%
M48
M72
T01C0.01969
T02C0.02362
T03C0.02559
T04C0.04000
%
T01
X50000Y133933
X175000Y158933
T02
X24000Y227933
X30500Y227433
X27000Y219933
X22000Y219933
X38500Y142933
X28500Y125433
X23500Y122433
X22000Y112933
X27500Y112933
X27500Y104933
X22000Y104933
T03
X40000Y130433
T04
X15000Y243933
X15000Y233933
X15000Y223933
X15000Y213933
X15000Y203933
X15000Y193933
X15000Y183933
X15000Y173933
X15000Y158933
X15000Y148933
X15000Y138933
X15000Y128933
X15000Y118933
X15000Y108933
X15000Y98933
X15000Y88933
X15000Y78933
X15000Y68933
X26250Y65433
X38000Y65433
X35250Y52933
X25250Y52933
X15250Y52933
X15250Y39183
X25250Y39183
X35250Y39183
X45250Y39183
X45250Y52933
X57500Y57183
X67500Y58183
X77500Y57183
X82500Y68433
X72500Y69433
X62500Y68433
X52500Y69433
X52750Y82933
X57500Y94683
X67500Y95683
X77500Y94683
X82500Y105933
X72500Y106933
X62500Y105933
X52500Y106933
X52750Y119183
X57500Y130933
X67500Y131933
X77500Y130933
X82500Y142183
X72500Y143183
X62500Y142183
X52500Y143183
X52250Y156183
X57500Y167183
X67500Y168183
X77500Y167183
X82250Y156183
X94500Y147433
X94250Y137683
X106250Y143183
X116250Y142183
X126250Y143183
X136250Y142183
X131250Y130933
X121250Y131933
X111250Y130933
X106250Y119183
X106250Y106933
X116250Y105933
X126250Y106933
X136250Y105933
X131250Y94683
X121250Y95683
X111250Y94683
X106250Y82933
X106250Y69433
X116250Y68433
X126250Y69433
X136250Y68433
X131250Y57183
X121250Y58183
X111250Y57183
X107000Y45683
X89750Y46183
X89500Y34683
X137000Y45683
X150500Y39683
X160000Y52933
X146500Y69183
X160000Y72933
X160000Y87933
X146500Y99183
X146500Y108933
X160000Y107933
X160000Y122933
X146500Y138933
X146500Y148683
X136250Y156683
X131250Y167183
X121250Y168183
X111250Y167183
X106250Y156683
X94500Y177433
X94500Y187433
X82750Y191683
X77500Y202183
X67500Y203183
X57500Y202183
X52750Y191683
X52500Y179433
X62500Y178433
X72500Y179433
X82500Y178433
X106250Y179433
X116250Y178433
X126250Y179433
X136250Y178433
X136250Y191683
X131250Y202183
X121250Y203183
X111250Y202183
X106250Y191683
X106250Y214433
X116250Y213433
X126250Y214433
X136250Y213433
X147750Y217933
X148500Y227433
X137500Y226683
X131250Y237183
X121250Y238183
X111250Y237183
X107500Y226683
X94500Y227433
X94500Y217433
X82500Y213433
X72500Y214433
X62500Y213433
X52500Y214433
X52750Y226683
X57500Y237183
X67500Y238183
X77500Y237183
X82750Y226683
X82500Y248433
X72500Y249433
X62500Y248433
X52500Y249433
X30000Y245183
X30000Y234183
X94500Y257433
X106250Y249433
X116250Y248433
X126250Y249433
X136250Y248433
X148500Y257433
X160000Y247933
X160000Y227933
X160000Y212933
X160000Y192933
X147750Y187933
X146500Y178683
X160000Y177933
X160000Y157933
X160000Y142933
X180000Y132933
X191000Y132933
X192000Y122933
X205000Y123933
X205000Y113933
X205000Y103933
X192000Y107683
X191000Y97683
X192000Y87683
X204000Y86433
X204000Y76433
X192000Y72433
X191000Y62433
X192000Y52433
X180000Y62933
X180500Y39683
X59500Y34683
X59750Y46183
X94500Y68683
X82750Y82933
X94500Y98683
X94250Y107683
X82750Y119183
X38000Y95433
X26250Y95433
X136250Y82933
X136250Y119183
X180000Y97933
X205000Y133933
X205000Y143933
X205000Y153933
X205000Y163933
X205000Y173933
X191750Y177433
X190750Y167433
X191750Y157433
X180000Y167933
X191750Y193183
X190750Y203183
X191750Y213183
X192250Y227683
X191250Y237683
X192250Y247683
X180000Y237933
X205000Y233933
X205000Y223933
X205000Y213933
X205000Y203933
X205000Y193933
X180000Y202933
X205000Y243933
X192000Y142933
M30
