G75*
%MOIN*%
%OFA0B0*%
%FSLAX25Y25*%
%IPPOS*%
%LPD*%
%AMOC8*
5,1,8,0,0,1.08239X$1,22.5*
%
%ADD10C,0.00600*%
%ADD11C,0.00512*%
%ADD12C,0.00300*%
%ADD13C,0.07400*%
%ADD14C,0.06000*%
%ADD15C,0.08000*%
%ADD16R,0.07400X0.07400*%
%ADD17C,0.01200*%
%ADD18C,0.01600*%
%ADD19C,0.03562*%
%ADD20C,0.03839*%
%ADD21C,0.03200*%
%ADD22C,0.03169*%
%ADD23C,0.02400*%
D10*
X0015000Y0028933D02*
X0005000Y0038933D01*
X0005000Y0248933D01*
X0012500Y0255933D01*
X0056000Y0255933D01*
X0065000Y0264433D01*
X0194500Y0263933D01*
X0205000Y0253933D01*
X0215000Y0253933D01*
X0215000Y0038933D01*
X0205000Y0028933D01*
X0015000Y0028933D01*
D11*
X0005000Y0038933D02*
X0005000Y0001256D01*
X0005256Y0008933D02*
X0015236Y0007909D01*
X0015236Y0007676D02*
X0005256Y0008933D01*
X0015236Y0009957D01*
X0015236Y0010190D02*
X0015236Y0007676D01*
X0015236Y0008421D02*
X0005256Y0008933D01*
X0015236Y0009445D01*
X0015236Y0010190D02*
X0005256Y0008933D01*
X0214744Y0008933D01*
X0204764Y0007909D01*
X0204764Y0007676D02*
X0214744Y0008933D01*
X0204764Y0009957D01*
X0204764Y0010190D02*
X0204764Y0007676D01*
X0204764Y0008421D02*
X0214744Y0008933D01*
X0204764Y0009445D01*
X0204764Y0010190D02*
X0214744Y0008933D01*
X0215000Y0001256D02*
X0215000Y0038933D01*
X0205000Y0028933D02*
X0242677Y0028933D01*
X0235000Y0029189D02*
X0236024Y0039169D01*
X0236257Y0039169D02*
X0235000Y0029189D01*
X0233976Y0039169D01*
X0233743Y0039169D02*
X0236257Y0039169D01*
X0235512Y0039169D02*
X0235000Y0029189D01*
X0234488Y0039169D01*
X0233743Y0039169D02*
X0235000Y0029189D01*
X0235000Y0263677D01*
X0236024Y0253697D01*
X0236257Y0253697D02*
X0235000Y0263677D01*
X0233976Y0253697D01*
X0233743Y0253697D02*
X0236257Y0253697D01*
X0235512Y0253697D02*
X0235000Y0263677D01*
X0234488Y0253697D01*
X0233743Y0253697D02*
X0235000Y0263677D01*
X0242677Y0263933D02*
X0205000Y0263933D01*
D12*
X0231444Y0152223D02*
X0232249Y0152223D01*
X0232249Y0151256D01*
X0232249Y0152223D02*
X0232319Y0152221D01*
X0232388Y0152215D01*
X0232458Y0152206D01*
X0232526Y0152193D01*
X0232594Y0152176D01*
X0232661Y0152156D01*
X0232726Y0152131D01*
X0232790Y0152104D01*
X0232853Y0152073D01*
X0232914Y0152038D01*
X0232972Y0152001D01*
X0233029Y0151960D01*
X0233083Y0151916D01*
X0233135Y0151870D01*
X0233185Y0151820D01*
X0233231Y0151768D01*
X0233275Y0151714D01*
X0233316Y0151657D01*
X0233353Y0151599D01*
X0233388Y0151538D01*
X0233419Y0151475D01*
X0233446Y0151411D01*
X0233471Y0151346D01*
X0233491Y0151279D01*
X0233508Y0151211D01*
X0233521Y0151143D01*
X0233530Y0151073D01*
X0233536Y0151004D01*
X0233538Y0150934D01*
X0232733Y0149343D02*
X0232572Y0149343D01*
X0232524Y0149341D01*
X0232476Y0149336D01*
X0232429Y0149327D01*
X0232382Y0149314D01*
X0232337Y0149298D01*
X0232293Y0149279D01*
X0232250Y0149257D01*
X0232209Y0149231D01*
X0232170Y0149203D01*
X0232134Y0149171D01*
X0232100Y0149137D01*
X0232069Y0149101D01*
X0232040Y0149062D01*
X0232014Y0149021D01*
X0231992Y0148978D01*
X0231973Y0148934D01*
X0231957Y0148889D01*
X0231944Y0148842D01*
X0231935Y0148795D01*
X0231930Y0148747D01*
X0231928Y0148699D01*
X0231927Y0148699D02*
X0231927Y0147732D01*
X0232733Y0147732D01*
X0232733Y0147731D02*
X0232788Y0147733D01*
X0232843Y0147739D01*
X0232897Y0147748D01*
X0232950Y0147761D01*
X0233003Y0147778D01*
X0233054Y0147798D01*
X0233104Y0147821D01*
X0233152Y0147848D01*
X0233198Y0147879D01*
X0233242Y0147912D01*
X0233283Y0147948D01*
X0233322Y0147987D01*
X0233358Y0148028D01*
X0233391Y0148072D01*
X0233422Y0148118D01*
X0233449Y0148166D01*
X0233472Y0148216D01*
X0233492Y0148267D01*
X0233509Y0148320D01*
X0233522Y0148373D01*
X0233531Y0148427D01*
X0233537Y0148482D01*
X0233539Y0148537D01*
X0233537Y0148592D01*
X0233531Y0148647D01*
X0233522Y0148701D01*
X0233509Y0148754D01*
X0233492Y0148807D01*
X0233472Y0148858D01*
X0233449Y0148908D01*
X0233422Y0148956D01*
X0233391Y0149002D01*
X0233358Y0149046D01*
X0233322Y0149087D01*
X0233283Y0149126D01*
X0233242Y0149162D01*
X0233198Y0149195D01*
X0233152Y0149226D01*
X0233104Y0149253D01*
X0233054Y0149276D01*
X0233003Y0149296D01*
X0232950Y0149313D01*
X0232897Y0149326D01*
X0232843Y0149335D01*
X0232788Y0149341D01*
X0232733Y0149343D01*
X0231927Y0147732D02*
X0231857Y0147734D01*
X0231788Y0147740D01*
X0231718Y0147749D01*
X0231650Y0147762D01*
X0231582Y0147779D01*
X0231515Y0147799D01*
X0231450Y0147824D01*
X0231386Y0147851D01*
X0231323Y0147882D01*
X0231262Y0147917D01*
X0231204Y0147954D01*
X0231147Y0147995D01*
X0231093Y0148039D01*
X0231041Y0148085D01*
X0230991Y0148135D01*
X0230945Y0148187D01*
X0230901Y0148241D01*
X0230860Y0148298D01*
X0230823Y0148356D01*
X0230788Y0148417D01*
X0230757Y0148480D01*
X0230730Y0148544D01*
X0230705Y0148609D01*
X0230685Y0148676D01*
X0230668Y0148744D01*
X0230655Y0148812D01*
X0230646Y0148882D01*
X0230640Y0148951D01*
X0230638Y0149021D01*
X0231444Y0150612D02*
X0231605Y0150612D01*
X0231653Y0150614D01*
X0231701Y0150619D01*
X0231748Y0150628D01*
X0231795Y0150641D01*
X0231840Y0150657D01*
X0231884Y0150676D01*
X0231927Y0150698D01*
X0231968Y0150724D01*
X0232007Y0150753D01*
X0232043Y0150784D01*
X0232077Y0150818D01*
X0232108Y0150854D01*
X0232137Y0150893D01*
X0232163Y0150934D01*
X0232185Y0150977D01*
X0232204Y0151021D01*
X0232220Y0151066D01*
X0232233Y0151113D01*
X0232242Y0151160D01*
X0232247Y0151208D01*
X0232249Y0151256D01*
X0231444Y0150611D02*
X0231389Y0150613D01*
X0231334Y0150619D01*
X0231280Y0150628D01*
X0231227Y0150641D01*
X0231174Y0150658D01*
X0231123Y0150678D01*
X0231073Y0150701D01*
X0231025Y0150728D01*
X0230979Y0150759D01*
X0230935Y0150792D01*
X0230894Y0150828D01*
X0230855Y0150867D01*
X0230819Y0150908D01*
X0230786Y0150952D01*
X0230755Y0150998D01*
X0230728Y0151046D01*
X0230705Y0151096D01*
X0230685Y0151147D01*
X0230668Y0151200D01*
X0230655Y0151253D01*
X0230646Y0151307D01*
X0230640Y0151362D01*
X0230638Y0151417D01*
X0230640Y0151472D01*
X0230646Y0151527D01*
X0230655Y0151581D01*
X0230668Y0151634D01*
X0230685Y0151687D01*
X0230705Y0151738D01*
X0230728Y0151788D01*
X0230755Y0151836D01*
X0230786Y0151882D01*
X0230819Y0151926D01*
X0230855Y0151967D01*
X0230894Y0152006D01*
X0230935Y0152042D01*
X0230979Y0152075D01*
X0231025Y0152106D01*
X0231073Y0152133D01*
X0231123Y0152156D01*
X0231174Y0152176D01*
X0231227Y0152193D01*
X0231280Y0152206D01*
X0231334Y0152215D01*
X0231389Y0152221D01*
X0231444Y0152223D01*
X0233377Y0146602D02*
X0233538Y0146602D01*
X0233538Y0146441D01*
X0233377Y0146441D01*
X0233377Y0146602D01*
X0232249Y0145311D02*
X0231444Y0145311D01*
X0232249Y0145311D02*
X0232249Y0144344D01*
X0232249Y0145311D02*
X0232319Y0145309D01*
X0232388Y0145303D01*
X0232458Y0145294D01*
X0232526Y0145281D01*
X0232594Y0145264D01*
X0232661Y0145244D01*
X0232726Y0145219D01*
X0232790Y0145192D01*
X0232853Y0145161D01*
X0232914Y0145126D01*
X0232972Y0145089D01*
X0233029Y0145048D01*
X0233083Y0145004D01*
X0233135Y0144958D01*
X0233185Y0144908D01*
X0233231Y0144856D01*
X0233275Y0144802D01*
X0233316Y0144745D01*
X0233353Y0144687D01*
X0233388Y0144626D01*
X0233419Y0144563D01*
X0233446Y0144499D01*
X0233471Y0144434D01*
X0233491Y0144367D01*
X0233508Y0144299D01*
X0233521Y0144231D01*
X0233530Y0144161D01*
X0233536Y0144092D01*
X0233538Y0144022D01*
X0232894Y0142431D02*
X0232572Y0142431D01*
X0232521Y0142429D01*
X0232471Y0142423D01*
X0232422Y0142413D01*
X0232373Y0142399D01*
X0232326Y0142382D01*
X0232280Y0142361D01*
X0232236Y0142336D01*
X0232193Y0142308D01*
X0232154Y0142277D01*
X0232117Y0142242D01*
X0232082Y0142205D01*
X0232051Y0142166D01*
X0232023Y0142123D01*
X0231998Y0142079D01*
X0231977Y0142033D01*
X0231960Y0141986D01*
X0231946Y0141937D01*
X0231936Y0141888D01*
X0231930Y0141838D01*
X0231928Y0141787D01*
X0231927Y0141787D02*
X0231927Y0140820D01*
X0230638Y0140820D01*
X0230638Y0142431D01*
X0231444Y0143700D02*
X0231605Y0143700D01*
X0231653Y0143702D01*
X0231701Y0143707D01*
X0231748Y0143716D01*
X0231795Y0143729D01*
X0231840Y0143745D01*
X0231884Y0143764D01*
X0231927Y0143786D01*
X0231968Y0143812D01*
X0232007Y0143841D01*
X0232043Y0143872D01*
X0232077Y0143906D01*
X0232108Y0143942D01*
X0232137Y0143981D01*
X0232163Y0144022D01*
X0232185Y0144065D01*
X0232204Y0144109D01*
X0232220Y0144154D01*
X0232233Y0144201D01*
X0232242Y0144248D01*
X0232247Y0144296D01*
X0232249Y0144344D01*
X0231444Y0143699D02*
X0231389Y0143701D01*
X0231334Y0143707D01*
X0231280Y0143716D01*
X0231227Y0143729D01*
X0231174Y0143746D01*
X0231123Y0143766D01*
X0231073Y0143789D01*
X0231025Y0143816D01*
X0230979Y0143847D01*
X0230935Y0143880D01*
X0230894Y0143916D01*
X0230855Y0143955D01*
X0230819Y0143996D01*
X0230786Y0144040D01*
X0230755Y0144086D01*
X0230728Y0144134D01*
X0230705Y0144184D01*
X0230685Y0144235D01*
X0230668Y0144288D01*
X0230655Y0144341D01*
X0230646Y0144395D01*
X0230640Y0144450D01*
X0230638Y0144505D01*
X0230640Y0144560D01*
X0230646Y0144615D01*
X0230655Y0144669D01*
X0230668Y0144722D01*
X0230685Y0144775D01*
X0230705Y0144826D01*
X0230728Y0144876D01*
X0230755Y0144924D01*
X0230786Y0144970D01*
X0230819Y0145014D01*
X0230855Y0145055D01*
X0230894Y0145094D01*
X0230935Y0145130D01*
X0230979Y0145163D01*
X0231025Y0145194D01*
X0231073Y0145221D01*
X0231123Y0145244D01*
X0231174Y0145264D01*
X0231227Y0145281D01*
X0231280Y0145294D01*
X0231334Y0145303D01*
X0231389Y0145309D01*
X0231444Y0145311D01*
X0232894Y0142431D02*
X0232942Y0142429D01*
X0232990Y0142424D01*
X0233037Y0142415D01*
X0233084Y0142402D01*
X0233129Y0142386D01*
X0233173Y0142367D01*
X0233216Y0142345D01*
X0233257Y0142319D01*
X0233296Y0142290D01*
X0233332Y0142259D01*
X0233366Y0142225D01*
X0233397Y0142189D01*
X0233426Y0142150D01*
X0233452Y0142109D01*
X0233474Y0142066D01*
X0233493Y0142022D01*
X0233509Y0141977D01*
X0233522Y0141930D01*
X0233531Y0141883D01*
X0233536Y0141835D01*
X0233538Y0141787D01*
X0233538Y0140820D01*
X0114823Y0013295D02*
X0114179Y0011039D01*
X0115790Y0011039D01*
X0115307Y0011684D02*
X0115307Y0010395D01*
X0112266Y0012006D02*
X0111621Y0012006D01*
X0112266Y0012006D02*
X0112315Y0012008D01*
X0112364Y0012014D01*
X0112413Y0012023D01*
X0112460Y0012036D01*
X0112507Y0012053D01*
X0112552Y0012073D01*
X0112595Y0012096D01*
X0112637Y0012123D01*
X0112676Y0012153D01*
X0112713Y0012186D01*
X0112747Y0012222D01*
X0112778Y0012260D01*
X0112807Y0012300D01*
X0112832Y0012342D01*
X0112854Y0012387D01*
X0112872Y0012432D01*
X0112887Y0012479D01*
X0112898Y0012527D01*
X0112906Y0012576D01*
X0112910Y0012625D01*
X0112910Y0012675D01*
X0112906Y0012724D01*
X0112898Y0012773D01*
X0112887Y0012821D01*
X0112872Y0012868D01*
X0112854Y0012913D01*
X0112832Y0012958D01*
X0112807Y0013000D01*
X0112778Y0013040D01*
X0112747Y0013078D01*
X0112713Y0013114D01*
X0112676Y0013147D01*
X0112637Y0013177D01*
X0112595Y0013204D01*
X0112552Y0013227D01*
X0112507Y0013247D01*
X0112460Y0013264D01*
X0112413Y0013277D01*
X0112364Y0013286D01*
X0112315Y0013292D01*
X0112266Y0013294D01*
X0112266Y0013295D02*
X0111299Y0013295D01*
X0112104Y0012006D02*
X0112159Y0012004D01*
X0112214Y0011998D01*
X0112268Y0011989D01*
X0112321Y0011976D01*
X0112374Y0011959D01*
X0112425Y0011939D01*
X0112475Y0011916D01*
X0112523Y0011889D01*
X0112569Y0011858D01*
X0112613Y0011825D01*
X0112654Y0011789D01*
X0112693Y0011750D01*
X0112729Y0011709D01*
X0112762Y0011665D01*
X0112793Y0011619D01*
X0112820Y0011571D01*
X0112843Y0011521D01*
X0112863Y0011470D01*
X0112880Y0011417D01*
X0112893Y0011364D01*
X0112902Y0011310D01*
X0112908Y0011255D01*
X0112910Y0011200D01*
X0112908Y0011145D01*
X0112902Y0011090D01*
X0112893Y0011036D01*
X0112880Y0010983D01*
X0112863Y0010930D01*
X0112843Y0010879D01*
X0112820Y0010829D01*
X0112793Y0010781D01*
X0112762Y0010735D01*
X0112729Y0010691D01*
X0112693Y0010650D01*
X0112654Y0010611D01*
X0112613Y0010575D01*
X0112569Y0010542D01*
X0112523Y0010511D01*
X0112475Y0010484D01*
X0112425Y0010461D01*
X0112374Y0010441D01*
X0112321Y0010424D01*
X0112268Y0010411D01*
X0112214Y0010402D01*
X0112159Y0010396D01*
X0112104Y0010394D01*
X0112104Y0010395D02*
X0111299Y0010395D01*
X0110169Y0010395D02*
X0110008Y0010395D01*
X0110008Y0010556D01*
X0110169Y0010556D01*
X0110169Y0010395D01*
X0108072Y0010395D02*
X0107267Y0010395D01*
X0108072Y0010394D02*
X0108127Y0010396D01*
X0108182Y0010402D01*
X0108236Y0010411D01*
X0108289Y0010424D01*
X0108342Y0010441D01*
X0108393Y0010461D01*
X0108443Y0010484D01*
X0108491Y0010511D01*
X0108537Y0010542D01*
X0108581Y0010575D01*
X0108622Y0010611D01*
X0108661Y0010650D01*
X0108697Y0010691D01*
X0108730Y0010735D01*
X0108761Y0010781D01*
X0108788Y0010829D01*
X0108811Y0010879D01*
X0108831Y0010930D01*
X0108848Y0010983D01*
X0108861Y0011036D01*
X0108870Y0011090D01*
X0108876Y0011145D01*
X0108878Y0011200D01*
X0108876Y0011255D01*
X0108870Y0011310D01*
X0108861Y0011364D01*
X0108848Y0011417D01*
X0108831Y0011470D01*
X0108811Y0011521D01*
X0108788Y0011571D01*
X0108761Y0011619D01*
X0108730Y0011665D01*
X0108697Y0011709D01*
X0108661Y0011750D01*
X0108622Y0011789D01*
X0108581Y0011825D01*
X0108537Y0011858D01*
X0108491Y0011889D01*
X0108443Y0011916D01*
X0108393Y0011939D01*
X0108342Y0011959D01*
X0108289Y0011976D01*
X0108236Y0011989D01*
X0108182Y0011998D01*
X0108127Y0012004D01*
X0108072Y0012006D01*
X0108234Y0012006D02*
X0107589Y0012006D01*
X0108234Y0012006D02*
X0108283Y0012008D01*
X0108332Y0012014D01*
X0108381Y0012023D01*
X0108428Y0012036D01*
X0108475Y0012053D01*
X0108520Y0012073D01*
X0108563Y0012096D01*
X0108605Y0012123D01*
X0108644Y0012153D01*
X0108681Y0012186D01*
X0108715Y0012222D01*
X0108746Y0012260D01*
X0108775Y0012300D01*
X0108800Y0012342D01*
X0108822Y0012387D01*
X0108840Y0012432D01*
X0108855Y0012479D01*
X0108866Y0012527D01*
X0108874Y0012576D01*
X0108878Y0012625D01*
X0108878Y0012675D01*
X0108874Y0012724D01*
X0108866Y0012773D01*
X0108855Y0012821D01*
X0108840Y0012868D01*
X0108822Y0012913D01*
X0108800Y0012958D01*
X0108775Y0013000D01*
X0108746Y0013040D01*
X0108715Y0013078D01*
X0108681Y0013114D01*
X0108644Y0013147D01*
X0108605Y0013177D01*
X0108563Y0013204D01*
X0108520Y0013227D01*
X0108475Y0013247D01*
X0108428Y0013264D01*
X0108381Y0013277D01*
X0108332Y0013286D01*
X0108283Y0013292D01*
X0108234Y0013294D01*
X0108234Y0013295D02*
X0107267Y0013295D01*
X0105998Y0013295D02*
X0104387Y0013295D01*
X0104387Y0012006D01*
X0105354Y0012006D01*
X0105402Y0012004D01*
X0105450Y0011999D01*
X0105497Y0011990D01*
X0105544Y0011977D01*
X0105589Y0011961D01*
X0105633Y0011942D01*
X0105676Y0011920D01*
X0105717Y0011894D01*
X0105756Y0011865D01*
X0105792Y0011834D01*
X0105826Y0011800D01*
X0105857Y0011764D01*
X0105886Y0011725D01*
X0105912Y0011684D01*
X0105934Y0011641D01*
X0105953Y0011597D01*
X0105969Y0011552D01*
X0105982Y0011505D01*
X0105991Y0011458D01*
X0105996Y0011410D01*
X0105998Y0011362D01*
X0105998Y0011039D01*
X0105996Y0010991D01*
X0105991Y0010943D01*
X0105982Y0010896D01*
X0105969Y0010849D01*
X0105953Y0010804D01*
X0105934Y0010760D01*
X0105912Y0010717D01*
X0105886Y0010676D01*
X0105857Y0010637D01*
X0105826Y0010601D01*
X0105792Y0010567D01*
X0105756Y0010536D01*
X0105717Y0010507D01*
X0105676Y0010481D01*
X0105633Y0010459D01*
X0105589Y0010440D01*
X0105544Y0010424D01*
X0105497Y0010411D01*
X0105450Y0010402D01*
X0105402Y0010397D01*
X0105354Y0010395D01*
X0104387Y0010395D01*
D13*
X0111250Y0057183D03*
X0121250Y0058183D03*
X0131250Y0057183D03*
X0136250Y0068433D03*
X0126250Y0069433D03*
X0116250Y0068433D03*
X0111250Y0094683D03*
X0121250Y0095683D03*
X0131250Y0094683D03*
X0136250Y0105933D03*
X0126250Y0106933D03*
X0116250Y0105933D03*
X0111250Y0130933D03*
X0121250Y0131933D03*
X0131250Y0130933D03*
X0136250Y0142183D03*
X0126250Y0143183D03*
X0116250Y0142183D03*
X0111250Y0167183D03*
X0121250Y0168183D03*
X0131250Y0167183D03*
X0136250Y0178433D03*
X0126250Y0179433D03*
X0116250Y0178433D03*
X0111250Y0202183D03*
X0121250Y0203183D03*
X0131250Y0202183D03*
X0136250Y0213433D03*
X0126250Y0214433D03*
X0116250Y0213433D03*
X0111250Y0237183D03*
X0121250Y0238183D03*
X0131250Y0237183D03*
X0136250Y0248433D03*
X0126250Y0249433D03*
X0116250Y0248433D03*
X0082500Y0248433D03*
X0072500Y0249433D03*
X0062500Y0248433D03*
X0067500Y0238183D03*
X0057500Y0237183D03*
X0077500Y0237183D03*
X0072500Y0214433D03*
X0062500Y0213433D03*
X0067500Y0203183D03*
X0057500Y0202183D03*
X0077500Y0202183D03*
X0082500Y0213433D03*
X0082500Y0178433D03*
X0072500Y0179433D03*
X0062500Y0178433D03*
X0067500Y0168183D03*
X0057500Y0167183D03*
X0077500Y0167183D03*
X0072500Y0143183D03*
X0062500Y0142183D03*
X0067500Y0131933D03*
X0057500Y0130933D03*
X0077500Y0130933D03*
X0082500Y0142183D03*
X0072500Y0106933D03*
X0062500Y0105933D03*
X0067500Y0095683D03*
X0057500Y0094683D03*
X0077500Y0094683D03*
X0082500Y0105933D03*
X0072500Y0069433D03*
X0062500Y0068433D03*
X0067500Y0058183D03*
X0057500Y0057183D03*
X0077500Y0057183D03*
X0082500Y0068433D03*
X0015000Y0068933D03*
X0015000Y0078933D03*
X0015000Y0088933D03*
X0015000Y0098933D03*
X0015000Y0108933D03*
X0015000Y0118933D03*
X0015000Y0128933D03*
X0015000Y0138933D03*
X0015000Y0148933D03*
X0015000Y0158933D03*
X0015000Y0173933D03*
X0015000Y0183933D03*
X0015000Y0193933D03*
X0015000Y0203933D03*
X0015000Y0213933D03*
X0015000Y0223933D03*
X0015000Y0233933D03*
X0015000Y0243933D03*
X0191250Y0237683D03*
X0192250Y0227683D03*
X0191750Y0213183D03*
X0190750Y0203183D03*
X0191750Y0193183D03*
X0205000Y0193933D03*
X0205000Y0203933D03*
X0205000Y0213933D03*
X0205000Y0223933D03*
X0205000Y0233933D03*
X0205000Y0243933D03*
X0192250Y0247683D03*
X0191750Y0177433D03*
X0190750Y0167433D03*
X0191750Y0157433D03*
X0205000Y0153933D03*
X0205000Y0143933D03*
X0205000Y0133933D03*
X0205000Y0123933D03*
X0205000Y0113933D03*
X0205000Y0103933D03*
X0192000Y0107683D03*
X0191000Y0097683D03*
X0192000Y0087683D03*
X0192000Y0072433D03*
X0191000Y0062433D03*
X0192000Y0052433D03*
X0192000Y0122933D03*
X0191000Y0132933D03*
X0192000Y0142933D03*
X0205000Y0163933D03*
X0205000Y0173933D03*
D14*
X0180000Y0170933D02*
X0180000Y0164933D01*
X0163000Y0157933D02*
X0157000Y0157933D01*
X0157000Y0142933D02*
X0163000Y0142933D01*
X0180000Y0135933D02*
X0180000Y0129933D01*
X0163000Y0122933D02*
X0157000Y0122933D01*
X0157000Y0107933D02*
X0163000Y0107933D01*
X0180000Y0100933D02*
X0180000Y0094933D01*
X0163000Y0087933D02*
X0157000Y0087933D01*
X0157000Y0072933D02*
X0163000Y0072933D01*
X0180000Y0065933D02*
X0180000Y0059933D01*
X0163000Y0052933D02*
X0157000Y0052933D01*
X0201000Y0076433D02*
X0207000Y0076433D01*
X0207000Y0086433D02*
X0201000Y0086433D01*
X0163000Y0177933D02*
X0157000Y0177933D01*
X0157000Y0192933D02*
X0163000Y0192933D01*
X0180000Y0199933D02*
X0180000Y0205933D01*
X0163000Y0212933D02*
X0157000Y0212933D01*
X0157000Y0227933D02*
X0163000Y0227933D01*
X0180000Y0234933D02*
X0180000Y0240933D01*
X0163000Y0247933D02*
X0157000Y0247933D01*
X0033000Y0245183D02*
X0027000Y0245183D01*
X0027000Y0234183D02*
X0033000Y0234183D01*
X0035250Y0055933D02*
X0035250Y0049933D01*
X0035250Y0042183D02*
X0035250Y0036183D01*
X0025250Y0036183D02*
X0025250Y0042183D01*
X0025250Y0049933D02*
X0025250Y0055933D01*
X0015250Y0055933D02*
X0015250Y0049933D01*
X0015250Y0042183D02*
X0015250Y0036183D01*
X0045250Y0036183D02*
X0045250Y0042183D01*
X0045250Y0049933D02*
X0045250Y0055933D01*
D15*
X0038000Y0065433D03*
X0026250Y0065433D03*
X0026250Y0095433D03*
X0038000Y0095433D03*
X0052750Y0082933D03*
X0082750Y0082933D03*
X0094500Y0068683D03*
X0106250Y0082933D03*
X0094500Y0098683D03*
X0094250Y0107683D03*
X0082750Y0119183D03*
X0094250Y0137683D03*
X0094500Y0147433D03*
X0106250Y0156683D03*
X0094500Y0177433D03*
X0094500Y0187433D03*
X0082750Y0191683D03*
X0106250Y0191683D03*
X0094500Y0217433D03*
X0094500Y0227433D03*
X0082750Y0226683D03*
X0107500Y0226683D03*
X0094500Y0257433D03*
X0052750Y0226683D03*
X0052750Y0191683D03*
X0052250Y0156183D03*
X0082250Y0156183D03*
X0106250Y0119183D03*
X0136250Y0119183D03*
X0146500Y0108933D03*
X0146500Y0099183D03*
X0136250Y0082933D03*
X0146500Y0069183D03*
X0137000Y0045683D03*
X0150500Y0039683D03*
X0180500Y0039683D03*
X0107000Y0045683D03*
X0089750Y0046183D03*
X0089500Y0034683D03*
X0059500Y0034683D03*
X0059750Y0046183D03*
X0052750Y0119183D03*
X0136250Y0156683D03*
X0146500Y0148683D03*
X0146500Y0138933D03*
X0146500Y0178683D03*
X0147750Y0187933D03*
X0136250Y0191683D03*
X0147750Y0217933D03*
X0148500Y0227433D03*
X0137500Y0226683D03*
X0148500Y0257433D03*
D16*
X0106250Y0249433D03*
X0106250Y0214433D03*
X0106250Y0179433D03*
X0106250Y0143183D03*
X0106250Y0106933D03*
X0106250Y0069433D03*
X0052500Y0069433D03*
X0052500Y0106933D03*
X0052500Y0143183D03*
X0052500Y0179433D03*
X0052500Y0214433D03*
X0052500Y0249433D03*
D17*
X0062500Y0248433D02*
X0062500Y0242183D01*
X0057500Y0237183D01*
X0047580Y0223933D02*
X0050430Y0221083D01*
X0085430Y0220083D01*
X0090680Y0210833D01*
X0098820Y0210833D01*
X0100600Y0217113D01*
X0101100Y0220583D01*
X0109820Y0221083D01*
X0113100Y0224363D01*
X0113100Y0230033D01*
X0121250Y0238183D01*
X0116250Y0242183D02*
X0116250Y0248433D01*
X0116250Y0242183D02*
X0111250Y0237183D01*
X0116250Y0213433D02*
X0116250Y0207183D01*
X0111250Y0202183D01*
X0116250Y0178433D02*
X0116250Y0172183D01*
X0111250Y0167183D01*
X0107005Y0163933D02*
X0109055Y0161883D01*
X0113445Y0161883D01*
X0119745Y0168183D01*
X0121250Y0168183D01*
X0107005Y0163933D02*
X0097920Y0161933D01*
X0084570Y0150583D01*
X0066605Y0150583D01*
X0043255Y0173933D01*
X0015000Y0173933D01*
X0052750Y0191683D02*
X0057950Y0196883D01*
X0079695Y0196883D01*
X0082800Y0199988D01*
X0082800Y0204378D01*
X0082500Y0204678D01*
X0082500Y0213433D01*
X0082750Y0226683D02*
X0077500Y0231933D01*
X0077500Y0237183D01*
X0047580Y0223933D02*
X0015000Y0223933D01*
X0057500Y0202183D02*
X0058250Y0202183D01*
X0062500Y0178433D02*
X0062500Y0172183D01*
X0057500Y0167183D01*
X0062500Y0142183D02*
X0060000Y0136933D01*
X0057500Y0131433D01*
X0057500Y0130933D01*
X0046250Y0118933D02*
X0046250Y0081433D01*
X0051250Y0076433D01*
X0121250Y0076433D01*
X0121250Y0095683D01*
X0116250Y0100183D02*
X0116250Y0105933D01*
X0116250Y0100183D02*
X0111250Y0095183D01*
X0111250Y0094683D01*
X0116250Y0068433D02*
X0116250Y0062183D01*
X0111250Y0057183D01*
X0089750Y0046183D02*
X0085000Y0050933D01*
X0085000Y0058933D01*
X0082500Y0068433D01*
X0077500Y0057183D02*
X0077500Y0056433D01*
X0077500Y0046683D01*
X0089500Y0034683D01*
X0077500Y0056433D02*
X0067250Y0046183D01*
X0059750Y0046183D01*
X0057500Y0057183D02*
X0057500Y0063433D01*
X0062500Y0068433D01*
X0055000Y0083933D02*
X0052750Y0082933D01*
X0055000Y0083933D02*
X0075000Y0083933D01*
X0085000Y0093933D01*
X0085000Y0096433D01*
X0082500Y0098933D01*
X0082500Y0105933D01*
X0062500Y0105933D02*
X0062500Y0099683D01*
X0057500Y0094683D01*
X0046250Y0118933D02*
X0015000Y0118933D01*
X0018500Y0072433D02*
X0031000Y0072433D01*
X0038000Y0065433D01*
X0018500Y0072433D02*
X0015000Y0068933D01*
X0077500Y0130933D02*
X0077500Y0131433D01*
X0080000Y0131433D01*
X0086250Y0137683D01*
X0094250Y0137683D01*
X0111250Y0130933D02*
X0116250Y0135933D01*
X0116250Y0142183D01*
X0136250Y0142183D02*
X0137500Y0140933D01*
X0137500Y0122683D01*
X0136250Y0121433D01*
X0136250Y0119183D01*
X0136250Y0105933D02*
X0137500Y0104683D01*
X0137500Y0086433D01*
X0136250Y0085183D01*
X0136250Y0082933D01*
X0136250Y0068433D02*
X0137000Y0067683D01*
X0137000Y0045683D01*
X0191000Y0097683D02*
X0175000Y0113683D01*
X0175000Y0158933D01*
X0199375Y0142683D02*
X0191250Y0134558D01*
X0191250Y0133308D01*
X0191000Y0132933D01*
X0199375Y0142683D02*
X0199375Y0180808D01*
X0210625Y0192058D01*
X0210625Y0208308D01*
X0205000Y0213933D01*
X0137500Y0212183D02*
X0137500Y0192933D01*
X0136250Y0191683D01*
X0136250Y0178433D02*
X0137500Y0177183D01*
X0137500Y0158933D01*
X0136250Y0157683D01*
X0136250Y0156683D01*
X0083250Y0161503D02*
X0083400Y0165153D01*
X0082400Y0178333D01*
X0082500Y0178433D01*
X0083250Y0161503D02*
X0082250Y0156183D01*
X0137500Y0212183D02*
X0136250Y0213433D01*
X0137500Y0226683D02*
X0137500Y0246433D01*
X0136250Y0247683D01*
X0136250Y0248433D01*
D18*
X0132700Y0252520D02*
X0130800Y0252520D01*
X0130828Y0252492D02*
X0129309Y0254011D01*
X0127324Y0254833D01*
X0125176Y0254833D01*
X0123191Y0254011D01*
X0121672Y0252492D01*
X0121043Y0250973D01*
X0120828Y0251492D01*
X0119309Y0253011D01*
X0117324Y0253833D01*
X0115176Y0253833D01*
X0113191Y0253011D01*
X0111750Y0251570D01*
X0111750Y0253370D01*
X0111627Y0253828D01*
X0111390Y0254238D01*
X0111055Y0254573D01*
X0110645Y0254810D01*
X0110187Y0254933D01*
X0106450Y0254933D01*
X0106450Y0249633D01*
X0106050Y0249633D01*
X0106050Y0249233D01*
X0106450Y0249233D01*
X0106450Y0243933D01*
X0110187Y0243933D01*
X0110645Y0244056D01*
X0111055Y0244293D01*
X0111390Y0244628D01*
X0111627Y0245038D01*
X0111708Y0245339D01*
X0113191Y0243855D01*
X0113950Y0243541D01*
X0113950Y0243136D01*
X0113083Y0242269D01*
X0112324Y0242583D01*
X0110176Y0242583D01*
X0108191Y0241761D01*
X0106672Y0240242D01*
X0105850Y0238257D01*
X0105850Y0236109D01*
X0106672Y0234124D01*
X0108191Y0232605D01*
X0110176Y0231783D01*
X0111597Y0231783D01*
X0111029Y0231215D01*
X0110729Y0231515D01*
X0108634Y0232383D01*
X0106366Y0232383D01*
X0104271Y0231515D01*
X0102668Y0229912D01*
X0101800Y0227817D01*
X0101800Y0225549D01*
X0102668Y0223454D01*
X0103119Y0223003D01*
X0101199Y0222893D01*
X0100485Y0222995D01*
X0100277Y0222840D01*
X0100017Y0222825D01*
X0099537Y0222286D01*
X0098959Y0221854D01*
X0098922Y0221597D01*
X0098749Y0221403D01*
X0098750Y0221385D01*
X0098278Y0221857D01*
X0097540Y0222394D01*
X0097400Y0222465D01*
X0097729Y0222601D01*
X0099332Y0224204D01*
X0100200Y0226299D01*
X0100200Y0228567D01*
X0099332Y0230662D01*
X0097729Y0232265D01*
X0095634Y0233133D01*
X0093366Y0233133D01*
X0091271Y0232265D01*
X0089668Y0230662D01*
X0088800Y0228567D01*
X0088800Y0226299D01*
X0089668Y0224204D01*
X0091271Y0222601D01*
X0091600Y0222465D01*
X0091460Y0222394D01*
X0090722Y0221857D01*
X0090076Y0221212D01*
X0089539Y0220473D01*
X0089125Y0219659D01*
X0088843Y0218791D01*
X0088835Y0218744D01*
X0087748Y0220660D01*
X0087757Y0220970D01*
X0087293Y0221460D01*
X0086960Y0222047D01*
X0086661Y0222129D01*
X0086465Y0222337D01*
X0087582Y0223454D01*
X0088450Y0225549D01*
X0088450Y0227817D01*
X0087582Y0229912D01*
X0085979Y0231515D01*
X0083884Y0232383D01*
X0081616Y0232383D01*
X0080687Y0231998D01*
X0080221Y0232465D01*
X0080559Y0232605D01*
X0082078Y0234124D01*
X0082900Y0236109D01*
X0082900Y0238257D01*
X0082078Y0240242D01*
X0080559Y0241761D01*
X0078574Y0242583D01*
X0076426Y0242583D01*
X0074441Y0241761D01*
X0072922Y0240242D01*
X0072707Y0239723D01*
X0072078Y0241242D01*
X0070559Y0242761D01*
X0068574Y0243583D01*
X0066426Y0243583D01*
X0064800Y0242910D01*
X0064800Y0243541D01*
X0065559Y0243855D01*
X0067078Y0245374D01*
X0067707Y0246893D01*
X0067922Y0246374D01*
X0069441Y0244855D01*
X0071426Y0244033D01*
X0073574Y0244033D01*
X0075559Y0244855D01*
X0077078Y0246374D01*
X0077293Y0246893D01*
X0077922Y0245374D01*
X0079441Y0243855D01*
X0081426Y0243033D01*
X0083574Y0243033D01*
X0085559Y0243855D01*
X0087078Y0245374D01*
X0087900Y0247359D01*
X0087900Y0249507D01*
X0087078Y0251492D01*
X0085559Y0253011D01*
X0083574Y0253833D01*
X0081426Y0253833D01*
X0079441Y0253011D01*
X0077922Y0251492D01*
X0077707Y0250973D01*
X0077078Y0252492D01*
X0075559Y0254011D01*
X0073574Y0254833D01*
X0071426Y0254833D01*
X0069441Y0254011D01*
X0067922Y0252492D01*
X0067293Y0250973D01*
X0067078Y0251492D01*
X0065559Y0253011D01*
X0063574Y0253833D01*
X0061426Y0253833D01*
X0059441Y0253011D01*
X0058000Y0251570D01*
X0058000Y0253370D01*
X0057877Y0253828D01*
X0057640Y0254238D01*
X0057458Y0254421D01*
X0057464Y0254427D01*
X0065831Y0262330D01*
X0091237Y0262232D01*
X0090722Y0261857D01*
X0090076Y0261212D01*
X0089539Y0260473D01*
X0089125Y0259659D01*
X0088843Y0258791D01*
X0088700Y0257890D01*
X0088700Y0257633D01*
X0094300Y0257633D01*
X0094300Y0257233D01*
X0094700Y0257233D01*
X0094700Y0251633D01*
X0094956Y0251633D01*
X0095858Y0251776D01*
X0096726Y0252058D01*
X0097540Y0252472D01*
X0098278Y0253009D01*
X0098924Y0253655D01*
X0099461Y0254393D01*
X0099875Y0255207D01*
X0100157Y0256075D01*
X0100300Y0256977D01*
X0100300Y0257233D01*
X0094700Y0257233D01*
X0094700Y0257633D01*
X0100300Y0257633D01*
X0100300Y0257890D01*
X0100157Y0258791D01*
X0099875Y0259659D01*
X0099461Y0260473D01*
X0098924Y0261212D01*
X0098278Y0261857D01*
X0097798Y0262206D01*
X0144952Y0262024D01*
X0144722Y0261857D01*
X0144076Y0261212D01*
X0143539Y0260473D01*
X0143125Y0259659D01*
X0142843Y0258791D01*
X0142700Y0257890D01*
X0142700Y0257633D01*
X0148300Y0257633D01*
X0148300Y0257233D01*
X0148700Y0257233D01*
X0148700Y0251633D01*
X0148956Y0251633D01*
X0149858Y0251776D01*
X0150726Y0252058D01*
X0151540Y0252472D01*
X0152278Y0253009D01*
X0152924Y0253655D01*
X0153461Y0254393D01*
X0153875Y0255207D01*
X0154157Y0256075D01*
X0154300Y0256977D01*
X0154300Y0257233D01*
X0148700Y0257233D01*
X0148700Y0257633D01*
X0154300Y0257633D01*
X0154300Y0257890D01*
X0154157Y0258791D01*
X0153875Y0259659D01*
X0153461Y0260473D01*
X0152924Y0261212D01*
X0152278Y0261857D01*
X0152086Y0261997D01*
X0193657Y0261836D01*
X0203533Y0252430D01*
X0204130Y0251833D01*
X0204160Y0251833D01*
X0204182Y0251812D01*
X0205025Y0251833D01*
X0212900Y0251833D01*
X0212900Y0209286D01*
X0210086Y0212100D01*
X0210400Y0212859D01*
X0210400Y0215007D01*
X0209578Y0216992D01*
X0208059Y0218511D01*
X0207040Y0218933D01*
X0208059Y0219355D01*
X0209578Y0220874D01*
X0210400Y0222859D01*
X0210400Y0225007D01*
X0209578Y0226992D01*
X0208059Y0228511D01*
X0207040Y0228933D01*
X0208059Y0229355D01*
X0209578Y0230874D01*
X0210400Y0232859D01*
X0210400Y0235007D01*
X0209578Y0236992D01*
X0208059Y0238511D01*
X0207040Y0238933D01*
X0208059Y0239355D01*
X0209578Y0240874D01*
X0210400Y0242859D01*
X0210400Y0245007D01*
X0209578Y0246992D01*
X0208059Y0248511D01*
X0206074Y0249333D01*
X0203926Y0249333D01*
X0201941Y0248511D01*
X0200422Y0246992D01*
X0199600Y0245007D01*
X0199600Y0242859D01*
X0199831Y0242300D01*
X0197714Y0240183D01*
X0196059Y0240183D01*
X0195828Y0240742D01*
X0194309Y0242261D01*
X0193790Y0242476D01*
X0195309Y0243105D01*
X0196828Y0244624D01*
X0197650Y0246609D01*
X0197650Y0248757D01*
X0196828Y0250742D01*
X0195309Y0252261D01*
X0193324Y0253083D01*
X0191176Y0253083D01*
X0189191Y0252261D01*
X0187672Y0250742D01*
X0186850Y0248757D01*
X0186850Y0246609D01*
X0187672Y0244624D01*
X0189191Y0243105D01*
X0189710Y0242890D01*
X0188191Y0242261D01*
X0186672Y0240742D01*
X0185850Y0238757D01*
X0185850Y0236609D01*
X0186672Y0234624D01*
X0188191Y0233105D01*
X0189617Y0232514D01*
X0189367Y0232387D01*
X0188667Y0231878D01*
X0188055Y0231266D01*
X0187546Y0230566D01*
X0187153Y0229794D01*
X0186885Y0228971D01*
X0186750Y0228116D01*
X0186750Y0227883D01*
X0192050Y0227883D01*
X0192050Y0227483D01*
X0186750Y0227483D01*
X0186750Y0227250D01*
X0186885Y0226395D01*
X0187153Y0225572D01*
X0187546Y0224800D01*
X0188055Y0224100D01*
X0188667Y0223488D01*
X0189367Y0222979D01*
X0190125Y0222593D01*
X0188331Y0220799D01*
X0188097Y0220702D01*
X0184231Y0216836D01*
X0183850Y0215917D01*
X0183850Y0210449D01*
X0184231Y0209530D01*
X0184934Y0208827D01*
X0186845Y0206915D01*
X0186172Y0206242D01*
X0185350Y0204257D01*
X0185350Y0202109D01*
X0186172Y0200124D01*
X0187691Y0198605D01*
X0189117Y0198014D01*
X0188867Y0197887D01*
X0188167Y0197378D01*
X0187555Y0196766D01*
X0187046Y0196066D01*
X0186653Y0195294D01*
X0186385Y0194471D01*
X0186250Y0193616D01*
X0186250Y0193383D01*
X0191550Y0193383D01*
X0191550Y0192983D01*
X0186250Y0192983D01*
X0186250Y0192750D01*
X0186385Y0191895D01*
X0186653Y0191072D01*
X0187046Y0190300D01*
X0187555Y0189600D01*
X0188167Y0188988D01*
X0188867Y0188479D01*
X0189639Y0188086D01*
X0190462Y0187819D01*
X0190483Y0187815D01*
X0182881Y0180212D01*
X0182500Y0179294D01*
X0182500Y0174985D01*
X0180935Y0175633D01*
X0179065Y0175633D01*
X0177338Y0174918D01*
X0176016Y0173595D01*
X0175300Y0171868D01*
X0175300Y0163998D01*
X0176016Y0162271D01*
X0176363Y0161923D01*
X0175653Y0162217D01*
X0174347Y0162217D01*
X0173140Y0161717D01*
X0172216Y0160793D01*
X0171716Y0159586D01*
X0171716Y0158280D01*
X0172216Y0157073D01*
X0172700Y0156588D01*
X0172700Y0112730D01*
X0179797Y0105633D01*
X0179065Y0105633D01*
X0177338Y0104918D01*
X0176016Y0103595D01*
X0175300Y0101868D01*
X0175300Y0093998D01*
X0176016Y0092271D01*
X0177338Y0090949D01*
X0179065Y0090233D01*
X0180935Y0090233D01*
X0182662Y0090949D01*
X0183984Y0092271D01*
X0184700Y0093998D01*
X0184700Y0100730D01*
X0185914Y0099516D01*
X0185600Y0098757D01*
X0185600Y0096609D01*
X0186422Y0094624D01*
X0187941Y0093105D01*
X0189367Y0092514D01*
X0189117Y0092387D01*
X0188417Y0091878D01*
X0187805Y0091266D01*
X0187296Y0090566D01*
X0186903Y0089794D01*
X0186635Y0088971D01*
X0186500Y0088116D01*
X0186500Y0087883D01*
X0191800Y0087883D01*
X0191800Y0087483D01*
X0192200Y0087483D01*
X0192200Y0082183D01*
X0192433Y0082183D01*
X0193288Y0082319D01*
X0194111Y0082586D01*
X0194883Y0082979D01*
X0195583Y0083488D01*
X0196195Y0084100D01*
X0196631Y0084700D01*
X0197016Y0083771D01*
X0198338Y0082449D01*
X0200065Y0081733D01*
X0207935Y0081733D01*
X0209662Y0082449D01*
X0210984Y0083771D01*
X0211700Y0085498D01*
X0211700Y0087368D01*
X0210984Y0089095D01*
X0209662Y0090418D01*
X0207935Y0091133D01*
X0200065Y0091133D01*
X0198338Y0090418D01*
X0197248Y0089328D01*
X0197097Y0089794D01*
X0196704Y0090566D01*
X0196195Y0091266D01*
X0195583Y0091878D01*
X0194883Y0092387D01*
X0194111Y0092780D01*
X0193642Y0092933D01*
X0194059Y0093105D01*
X0195578Y0094624D01*
X0196400Y0096609D01*
X0196400Y0098757D01*
X0195578Y0100742D01*
X0194059Y0102261D01*
X0193540Y0102476D01*
X0195059Y0103105D01*
X0196578Y0104624D01*
X0197400Y0106609D01*
X0197400Y0108757D01*
X0196578Y0110742D01*
X0195059Y0112261D01*
X0193074Y0113083D01*
X0190926Y0113083D01*
X0188941Y0112261D01*
X0187422Y0110742D01*
X0186600Y0108757D01*
X0186600Y0106609D01*
X0187422Y0104624D01*
X0188941Y0103105D01*
X0189460Y0102890D01*
X0189167Y0102769D01*
X0177300Y0114636D01*
X0177300Y0125986D01*
X0177338Y0125949D01*
X0179065Y0125233D01*
X0180935Y0125233D01*
X0182662Y0125949D01*
X0183984Y0127271D01*
X0184700Y0128998D01*
X0184700Y0136868D01*
X0183984Y0138595D01*
X0182662Y0139918D01*
X0180935Y0140633D01*
X0179065Y0140633D01*
X0177338Y0139918D01*
X0177300Y0139880D01*
X0177300Y0156588D01*
X0177784Y0157073D01*
X0178284Y0158280D01*
X0178284Y0159586D01*
X0177799Y0160757D01*
X0179065Y0160233D01*
X0180935Y0160233D01*
X0182662Y0160949D01*
X0183984Y0162271D01*
X0184700Y0163998D01*
X0184700Y0169948D01*
X0185581Y0169066D01*
X0185350Y0168507D01*
X0185350Y0166359D01*
X0186172Y0164374D01*
X0187691Y0162855D01*
X0189117Y0162264D01*
X0188867Y0162137D01*
X0188167Y0161628D01*
X0187555Y0161016D01*
X0187046Y0160316D01*
X0186653Y0159544D01*
X0186385Y0158721D01*
X0186250Y0157866D01*
X0186250Y0157633D01*
X0191550Y0157633D01*
X0191550Y0157233D01*
X0191950Y0157233D01*
X0191950Y0151933D01*
X0192183Y0151933D01*
X0193038Y0152069D01*
X0193861Y0152336D01*
X0194633Y0152729D01*
X0195333Y0153238D01*
X0195945Y0153850D01*
X0196454Y0154550D01*
X0196847Y0155322D01*
X0197075Y0156023D01*
X0197075Y0144792D01*
X0196578Y0145992D01*
X0195059Y0147511D01*
X0193074Y0148333D01*
X0190926Y0148333D01*
X0188941Y0147511D01*
X0187422Y0145992D01*
X0186600Y0144007D01*
X0186600Y0141859D01*
X0187422Y0139874D01*
X0188941Y0138355D01*
X0189460Y0138140D01*
X0187941Y0137511D01*
X0186422Y0135992D01*
X0185600Y0134007D01*
X0185600Y0131859D01*
X0186422Y0129874D01*
X0187941Y0128355D01*
X0189367Y0127764D01*
X0189117Y0127637D01*
X0188417Y0127128D01*
X0187805Y0126516D01*
X0187296Y0125816D01*
X0186903Y0125044D01*
X0186635Y0124221D01*
X0186500Y0123366D01*
X0186500Y0123133D01*
X0191800Y0123133D01*
X0191800Y0122733D01*
X0192200Y0122733D01*
X0192200Y0117433D01*
X0192433Y0117433D01*
X0193288Y0117569D01*
X0194111Y0117836D01*
X0194883Y0118229D01*
X0195583Y0118738D01*
X0196195Y0119350D01*
X0196704Y0120050D01*
X0197097Y0120822D01*
X0197365Y0121645D01*
X0197500Y0122500D01*
X0197500Y0122733D01*
X0192200Y0122733D01*
X0192200Y0123133D01*
X0197500Y0123133D01*
X0197500Y0123366D01*
X0197365Y0124221D01*
X0197097Y0125044D01*
X0196704Y0125816D01*
X0196195Y0126516D01*
X0195583Y0127128D01*
X0194883Y0127637D01*
X0194111Y0128030D01*
X0193642Y0128183D01*
X0194059Y0128355D01*
X0195578Y0129874D01*
X0196400Y0131859D01*
X0196400Y0134007D01*
X0195683Y0135738D01*
X0200328Y0140383D01*
X0200620Y0140676D01*
X0201941Y0139355D01*
X0202960Y0138933D01*
X0201941Y0138511D01*
X0200422Y0136992D01*
X0199600Y0135007D01*
X0199600Y0132859D01*
X0200422Y0130874D01*
X0201941Y0129355D01*
X0202960Y0128933D01*
X0201941Y0128511D01*
X0200422Y0126992D01*
X0199600Y0125007D01*
X0199600Y0122859D01*
X0200422Y0120874D01*
X0201941Y0119355D01*
X0202960Y0118933D01*
X0201941Y0118511D01*
X0200422Y0116992D01*
X0199600Y0115007D01*
X0199600Y0112859D01*
X0200422Y0110874D01*
X0201941Y0109355D01*
X0202960Y0108933D01*
X0201941Y0108511D01*
X0200422Y0106992D01*
X0199600Y0105007D01*
X0199600Y0102859D01*
X0200422Y0100874D01*
X0201941Y0099355D01*
X0203926Y0098533D01*
X0206074Y0098533D01*
X0208059Y0099355D01*
X0209578Y0100874D01*
X0210400Y0102859D01*
X0210400Y0105007D01*
X0209578Y0106992D01*
X0208059Y0108511D01*
X0207040Y0108933D01*
X0208059Y0109355D01*
X0209578Y0110874D01*
X0210400Y0112859D01*
X0210400Y0115007D01*
X0209578Y0116992D01*
X0208059Y0118511D01*
X0207040Y0118933D01*
X0208059Y0119355D01*
X0209578Y0120874D01*
X0210400Y0122859D01*
X0210400Y0125007D01*
X0209578Y0126992D01*
X0208059Y0128511D01*
X0207040Y0128933D01*
X0208059Y0129355D01*
X0209578Y0130874D01*
X0210400Y0132859D01*
X0210400Y0135007D01*
X0209578Y0136992D01*
X0208059Y0138511D01*
X0207040Y0138933D01*
X0208059Y0139355D01*
X0209578Y0140874D01*
X0210400Y0142859D01*
X0210400Y0145007D01*
X0209578Y0146992D01*
X0208059Y0148511D01*
X0207184Y0148873D01*
X0207883Y0149229D01*
X0208583Y0149738D01*
X0209195Y0150350D01*
X0209704Y0151050D01*
X0210097Y0151822D01*
X0210365Y0152645D01*
X0210500Y0153500D01*
X0210500Y0153733D01*
X0205200Y0153733D01*
X0205200Y0154133D01*
X0210500Y0154133D01*
X0210500Y0154366D01*
X0210365Y0155221D01*
X0210097Y0156044D01*
X0209704Y0156816D01*
X0209195Y0157516D01*
X0208583Y0158128D01*
X0207883Y0158637D01*
X0207302Y0158933D01*
X0207883Y0159229D01*
X0208583Y0159738D01*
X0209195Y0160350D01*
X0209704Y0161050D01*
X0210097Y0161822D01*
X0210365Y0162645D01*
X0210500Y0163500D01*
X0210500Y0163733D01*
X0205200Y0163733D01*
X0205200Y0158433D01*
X0205200Y0154133D01*
X0204800Y0154133D01*
X0204800Y0163733D01*
X0205200Y0163733D01*
X0205200Y0164133D01*
X0210500Y0164133D01*
X0210500Y0164366D01*
X0210365Y0165221D01*
X0210097Y0166044D01*
X0209704Y0166816D01*
X0209195Y0167516D01*
X0208583Y0168128D01*
X0207883Y0168637D01*
X0207184Y0168993D01*
X0208059Y0169355D01*
X0209578Y0170874D01*
X0210400Y0172859D01*
X0210400Y0175007D01*
X0209578Y0176992D01*
X0208059Y0178511D01*
X0206074Y0179333D01*
X0203926Y0179333D01*
X0201941Y0178511D01*
X0201675Y0178245D01*
X0201675Y0179855D01*
X0211578Y0189758D01*
X0212900Y0191080D01*
X0212900Y0039803D01*
X0204130Y0031033D01*
X0093911Y0031033D01*
X0094332Y0031454D01*
X0095200Y0033549D01*
X0095200Y0035817D01*
X0094332Y0037912D01*
X0092729Y0039515D01*
X0090634Y0040383D01*
X0088366Y0040383D01*
X0087437Y0039998D01*
X0079800Y0047636D01*
X0079800Y0052291D01*
X0080559Y0052605D01*
X0082078Y0054124D01*
X0082700Y0055626D01*
X0082700Y0049980D01*
X0084047Y0048633D01*
X0084435Y0048246D01*
X0084050Y0047317D01*
X0084050Y0045049D01*
X0084918Y0042954D01*
X0086521Y0041351D01*
X0088616Y0040483D01*
X0090884Y0040483D01*
X0092979Y0041351D01*
X0094582Y0042954D01*
X0095450Y0045049D01*
X0095450Y0047317D01*
X0094582Y0049412D01*
X0092979Y0051015D01*
X0090884Y0051883D01*
X0088616Y0051883D01*
X0087687Y0051498D01*
X0087300Y0051886D01*
X0087300Y0058311D01*
X0087467Y0058597D01*
X0087300Y0059231D01*
X0087300Y0059886D01*
X0087066Y0060120D01*
X0085974Y0064270D01*
X0087078Y0065374D01*
X0087900Y0067359D01*
X0087900Y0069507D01*
X0087078Y0071492D01*
X0085559Y0073011D01*
X0083574Y0073833D01*
X0081426Y0073833D01*
X0079441Y0073011D01*
X0077922Y0071492D01*
X0077707Y0070973D01*
X0077078Y0072492D01*
X0075559Y0074011D01*
X0075264Y0074133D01*
X0092763Y0074133D01*
X0091271Y0073515D01*
X0089668Y0071912D01*
X0088800Y0069817D01*
X0088800Y0067549D01*
X0089668Y0065454D01*
X0091271Y0063851D01*
X0093366Y0062983D01*
X0095634Y0062983D01*
X0097729Y0063851D01*
X0099332Y0065454D01*
X0100200Y0067549D01*
X0100200Y0069817D01*
X0099332Y0071912D01*
X0097729Y0073515D01*
X0096237Y0074133D01*
X0101049Y0074133D01*
X0100873Y0073828D01*
X0100750Y0073370D01*
X0100750Y0069633D01*
X0106050Y0069633D01*
X0106050Y0069233D01*
X0106450Y0069233D01*
X0106450Y0063933D01*
X0110187Y0063933D01*
X0110645Y0064056D01*
X0111055Y0064293D01*
X0111390Y0064628D01*
X0111627Y0065038D01*
X0111708Y0065339D01*
X0113191Y0063855D01*
X0113950Y0063541D01*
X0113950Y0063136D01*
X0113083Y0062269D01*
X0112324Y0062583D01*
X0110176Y0062583D01*
X0108191Y0061761D01*
X0106672Y0060242D01*
X0105850Y0058257D01*
X0105850Y0056109D01*
X0106672Y0054124D01*
X0108191Y0052605D01*
X0110176Y0051783D01*
X0112324Y0051783D01*
X0114309Y0052605D01*
X0115828Y0054124D01*
X0116457Y0055643D01*
X0116672Y0055124D01*
X0118191Y0053605D01*
X0120176Y0052783D01*
X0122324Y0052783D01*
X0124309Y0053605D01*
X0125828Y0055124D01*
X0126043Y0055643D01*
X0126672Y0054124D01*
X0128191Y0052605D01*
X0130176Y0051783D01*
X0132324Y0051783D01*
X0134309Y0052605D01*
X0134700Y0052996D01*
X0134700Y0050900D01*
X0133771Y0050515D01*
X0132168Y0048912D01*
X0131300Y0046817D01*
X0131300Y0044549D01*
X0132168Y0042454D01*
X0133771Y0040851D01*
X0135866Y0039983D01*
X0138134Y0039983D01*
X0140229Y0040851D01*
X0141832Y0042454D01*
X0142700Y0044549D01*
X0142700Y0046817D01*
X0141832Y0048912D01*
X0140229Y0050515D01*
X0139300Y0050900D01*
X0139300Y0063852D01*
X0139309Y0063855D01*
X0140828Y0065374D01*
X0141323Y0066569D01*
X0141539Y0066143D01*
X0142076Y0065405D01*
X0142722Y0064759D01*
X0143460Y0064222D01*
X0144274Y0063808D01*
X0145142Y0063526D01*
X0146044Y0063383D01*
X0146300Y0063383D01*
X0146300Y0068983D01*
X0146700Y0068983D01*
X0146700Y0063383D01*
X0146956Y0063383D01*
X0147858Y0063526D01*
X0148726Y0063808D01*
X0149540Y0064222D01*
X0150278Y0064759D01*
X0150924Y0065405D01*
X0151461Y0066143D01*
X0151875Y0066957D01*
X0152157Y0067825D01*
X0152300Y0068727D01*
X0152300Y0068983D01*
X0146700Y0068983D01*
X0146700Y0069383D01*
X0152300Y0069383D01*
X0152300Y0069640D01*
X0152157Y0070541D01*
X0151875Y0071409D01*
X0151461Y0072223D01*
X0150924Y0072962D01*
X0150278Y0073607D01*
X0149540Y0074144D01*
X0148726Y0074558D01*
X0147858Y0074840D01*
X0146956Y0074983D01*
X0146700Y0074983D01*
X0146700Y0069383D01*
X0146300Y0069383D01*
X0146300Y0074983D01*
X0146044Y0074983D01*
X0145142Y0074840D01*
X0144274Y0074558D01*
X0143460Y0074144D01*
X0142722Y0073607D01*
X0142076Y0072962D01*
X0141539Y0072223D01*
X0141125Y0071409D01*
X0141009Y0071054D01*
X0140828Y0071492D01*
X0139309Y0073011D01*
X0137324Y0073833D01*
X0135176Y0073833D01*
X0133191Y0073011D01*
X0131672Y0071492D01*
X0131457Y0070973D01*
X0130828Y0072492D01*
X0129309Y0074011D01*
X0127324Y0074833D01*
X0125176Y0074833D01*
X0123191Y0074011D01*
X0121672Y0072492D01*
X0121043Y0070973D01*
X0120828Y0071492D01*
X0119309Y0073011D01*
X0117324Y0073833D01*
X0115176Y0073833D01*
X0113191Y0073011D01*
X0111750Y0071570D01*
X0111750Y0073370D01*
X0111627Y0073828D01*
X0111451Y0074133D01*
X0122203Y0074133D01*
X0123550Y0075480D01*
X0123550Y0090791D01*
X0124309Y0091105D01*
X0125828Y0092624D01*
X0126043Y0093143D01*
X0126672Y0091624D01*
X0128191Y0090105D01*
X0130176Y0089283D01*
X0132324Y0089283D01*
X0134309Y0090105D01*
X0135200Y0090996D01*
X0135200Y0088633D01*
X0135116Y0088633D01*
X0133021Y0087765D01*
X0131418Y0086162D01*
X0130550Y0084067D01*
X0130550Y0081799D01*
X0131418Y0079704D01*
X0133021Y0078101D01*
X0135116Y0077233D01*
X0137384Y0077233D01*
X0139479Y0078101D01*
X0141082Y0079704D01*
X0141950Y0081799D01*
X0141950Y0084067D01*
X0141082Y0086162D01*
X0139800Y0087444D01*
X0139800Y0101846D01*
X0140828Y0102874D01*
X0141650Y0104859D01*
X0141650Y0105741D01*
X0142076Y0105155D01*
X0142722Y0104509D01*
X0143354Y0104050D01*
X0143271Y0104015D01*
X0141668Y0102412D01*
X0140800Y0100317D01*
X0140800Y0098049D01*
X0141668Y0095954D01*
X0143271Y0094351D01*
X0145366Y0093483D01*
X0147634Y0093483D01*
X0149729Y0094351D01*
X0151332Y0095954D01*
X0152200Y0098049D01*
X0152200Y0100317D01*
X0151332Y0102412D01*
X0149729Y0104015D01*
X0149646Y0104050D01*
X0150278Y0104509D01*
X0150924Y0105155D01*
X0151461Y0105893D01*
X0151875Y0106707D01*
X0152157Y0107575D01*
X0152300Y0108477D01*
X0152300Y0108733D01*
X0146700Y0108733D01*
X0146700Y0109133D01*
X0152300Y0109133D01*
X0152300Y0109390D01*
X0152157Y0110291D01*
X0151875Y0111159D01*
X0151461Y0111973D01*
X0150924Y0112712D01*
X0150278Y0113357D01*
X0149540Y0113894D01*
X0148726Y0114308D01*
X0147858Y0114590D01*
X0146956Y0114733D01*
X0146700Y0114733D01*
X0146700Y0109133D01*
X0146300Y0109133D01*
X0146300Y0108733D01*
X0140935Y0108733D01*
X0140828Y0108992D01*
X0139309Y0110511D01*
X0137324Y0111333D01*
X0135176Y0111333D01*
X0133191Y0110511D01*
X0131672Y0108992D01*
X0131457Y0108473D01*
X0130828Y0109992D01*
X0129309Y0111511D01*
X0127324Y0112333D01*
X0125176Y0112333D01*
X0123191Y0111511D01*
X0121672Y0109992D01*
X0121043Y0108473D01*
X0120828Y0108992D01*
X0119309Y0110511D01*
X0117324Y0111333D01*
X0115176Y0111333D01*
X0113191Y0110511D01*
X0111750Y0109070D01*
X0111750Y0110870D01*
X0111627Y0111328D01*
X0111390Y0111738D01*
X0111055Y0112073D01*
X0110645Y0112310D01*
X0110187Y0112433D01*
X0106450Y0112433D01*
X0106450Y0107133D01*
X0106050Y0107133D01*
X0106050Y0106733D01*
X0106450Y0106733D01*
X0106450Y0101433D01*
X0110187Y0101433D01*
X0110645Y0101556D01*
X0111055Y0101793D01*
X0111390Y0102128D01*
X0111627Y0102538D01*
X0111708Y0102839D01*
X0113191Y0101355D01*
X0113883Y0101069D01*
X0112729Y0099915D01*
X0112324Y0100083D01*
X0110176Y0100083D01*
X0108191Y0099261D01*
X0106672Y0097742D01*
X0105850Y0095757D01*
X0105850Y0093609D01*
X0106672Y0091624D01*
X0108191Y0090105D01*
X0110176Y0089283D01*
X0112324Y0089283D01*
X0114309Y0090105D01*
X0115828Y0091624D01*
X0116457Y0093143D01*
X0116672Y0092624D01*
X0118191Y0091105D01*
X0118950Y0090791D01*
X0118950Y0078733D01*
X0110111Y0078733D01*
X0111082Y0079704D01*
X0111950Y0081799D01*
X0111950Y0084067D01*
X0111082Y0086162D01*
X0109479Y0087765D01*
X0107384Y0088633D01*
X0105116Y0088633D01*
X0103021Y0087765D01*
X0101418Y0086162D01*
X0100550Y0084067D01*
X0100550Y0081799D01*
X0101418Y0079704D01*
X0102389Y0078733D01*
X0086611Y0078733D01*
X0087582Y0079704D01*
X0088450Y0081799D01*
X0088450Y0084067D01*
X0087582Y0086162D01*
X0085979Y0087765D01*
X0083884Y0088633D01*
X0082953Y0088633D01*
X0085953Y0091633D01*
X0087300Y0092980D01*
X0087300Y0097386D01*
X0085953Y0098733D01*
X0084800Y0099886D01*
X0084800Y0101041D01*
X0085559Y0101355D01*
X0087078Y0102874D01*
X0087900Y0104859D01*
X0087900Y0107007D01*
X0087078Y0108992D01*
X0085559Y0110511D01*
X0083574Y0111333D01*
X0081426Y0111333D01*
X0079441Y0110511D01*
X0077922Y0108992D01*
X0077707Y0108473D01*
X0077078Y0109992D01*
X0075559Y0111511D01*
X0073574Y0112333D01*
X0072175Y0112333D01*
X0065717Y0123097D01*
X0065570Y0123420D01*
X0065463Y0123520D01*
X0065388Y0123646D01*
X0065103Y0123857D01*
X0064843Y0124099D01*
X0064706Y0124151D01*
X0064589Y0124238D01*
X0064244Y0124324D01*
X0060463Y0125742D01*
X0059807Y0126044D01*
X0060559Y0126355D01*
X0062078Y0127874D01*
X0062707Y0129393D01*
X0062922Y0128874D01*
X0064441Y0127355D01*
X0066426Y0126533D01*
X0068574Y0126533D01*
X0070559Y0127355D01*
X0072078Y0128874D01*
X0072293Y0129393D01*
X0072922Y0127874D01*
X0074441Y0126355D01*
X0076426Y0125533D01*
X0078574Y0125533D01*
X0080559Y0126355D01*
X0082078Y0127874D01*
X0082900Y0129859D01*
X0082900Y0131080D01*
X0087203Y0135383D01*
X0089033Y0135383D01*
X0089418Y0134454D01*
X0091021Y0132851D01*
X0093116Y0131983D01*
X0095384Y0131983D01*
X0097479Y0132851D01*
X0099082Y0134454D01*
X0099950Y0136549D01*
X0099950Y0138817D01*
X0099082Y0140912D01*
X0097492Y0142503D01*
X0097729Y0142601D01*
X0099332Y0144204D01*
X0100200Y0146299D01*
X0100200Y0148567D01*
X0099332Y0150662D01*
X0097729Y0152265D01*
X0095634Y0153133D01*
X0093366Y0153133D01*
X0091271Y0152265D01*
X0089668Y0150662D01*
X0088800Y0148567D01*
X0088800Y0146299D01*
X0089668Y0144204D01*
X0091258Y0142614D01*
X0091021Y0142515D01*
X0089418Y0140912D01*
X0089033Y0139983D01*
X0087434Y0139983D01*
X0087900Y0141109D01*
X0087900Y0143257D01*
X0087078Y0145242D01*
X0085559Y0146761D01*
X0083574Y0147583D01*
X0081426Y0147583D01*
X0079441Y0146761D01*
X0077922Y0145242D01*
X0077707Y0144723D01*
X0077078Y0146242D01*
X0075559Y0147761D01*
X0074298Y0148283D01*
X0084477Y0148283D01*
X0085334Y0148214D01*
X0085415Y0148283D01*
X0085522Y0148283D01*
X0086130Y0148891D01*
X0098973Y0159810D01*
X0101977Y0160471D01*
X0101418Y0159912D01*
X0100550Y0157817D01*
X0100550Y0155549D01*
X0101418Y0153454D01*
X0103021Y0151851D01*
X0105116Y0150983D01*
X0107384Y0150983D01*
X0109479Y0151851D01*
X0111082Y0153454D01*
X0111950Y0155549D01*
X0111950Y0157817D01*
X0111218Y0159583D01*
X0114398Y0159583D01*
X0118353Y0163538D01*
X0120176Y0162783D01*
X0122324Y0162783D01*
X0124309Y0163605D01*
X0125828Y0165124D01*
X0126043Y0165643D01*
X0126672Y0164124D01*
X0128191Y0162605D01*
X0130176Y0161783D01*
X0132324Y0161783D01*
X0134309Y0162605D01*
X0135200Y0163496D01*
X0135200Y0162383D01*
X0135116Y0162383D01*
X0133021Y0161515D01*
X0131418Y0159912D01*
X0130550Y0157817D01*
X0130550Y0155549D01*
X0131418Y0153454D01*
X0133021Y0151851D01*
X0135116Y0150983D01*
X0137384Y0150983D01*
X0139479Y0151851D01*
X0141082Y0153454D01*
X0141950Y0155549D01*
X0141950Y0157817D01*
X0141082Y0159912D01*
X0139800Y0161194D01*
X0139800Y0174346D01*
X0140828Y0175374D01*
X0141264Y0176428D01*
X0141668Y0175454D01*
X0143271Y0173851D01*
X0145366Y0172983D01*
X0147634Y0172983D01*
X0149729Y0173851D01*
X0151332Y0175454D01*
X0152200Y0177549D01*
X0152200Y0179817D01*
X0151332Y0181912D01*
X0150447Y0182798D01*
X0150790Y0182972D01*
X0151528Y0183509D01*
X0152174Y0184155D01*
X0152711Y0184893D01*
X0153125Y0185707D01*
X0153407Y0186575D01*
X0153550Y0187477D01*
X0153550Y0187733D01*
X0147950Y0187733D01*
X0147950Y0188133D01*
X0153550Y0188133D01*
X0153550Y0188390D01*
X0153407Y0189291D01*
X0153125Y0190159D01*
X0153123Y0190163D01*
X0154338Y0188949D01*
X0156065Y0188233D01*
X0163935Y0188233D01*
X0165662Y0188949D01*
X0166984Y0190271D01*
X0167700Y0191998D01*
X0167700Y0193868D01*
X0166984Y0195595D01*
X0165662Y0196918D01*
X0163935Y0197633D01*
X0156065Y0197633D01*
X0154338Y0196918D01*
X0153016Y0195595D01*
X0152300Y0193868D01*
X0152300Y0191998D01*
X0152786Y0190825D01*
X0152711Y0190973D01*
X0152174Y0191712D01*
X0151528Y0192357D01*
X0150790Y0192894D01*
X0149976Y0193308D01*
X0149108Y0193590D01*
X0148206Y0193733D01*
X0147950Y0193733D01*
X0147950Y0188133D01*
X0147550Y0188133D01*
X0147550Y0187733D01*
X0141950Y0187733D01*
X0141950Y0187477D01*
X0142093Y0186575D01*
X0142375Y0185707D01*
X0142789Y0184893D01*
X0143326Y0184155D01*
X0143762Y0183719D01*
X0143271Y0183515D01*
X0141668Y0181912D01*
X0141161Y0180688D01*
X0140828Y0181492D01*
X0139309Y0183011D01*
X0137324Y0183833D01*
X0135176Y0183833D01*
X0133191Y0183011D01*
X0131672Y0181492D01*
X0131457Y0180973D01*
X0130828Y0182492D01*
X0129309Y0184011D01*
X0127324Y0184833D01*
X0125176Y0184833D01*
X0123191Y0184011D01*
X0121672Y0182492D01*
X0121043Y0180973D01*
X0120828Y0181492D01*
X0119309Y0183011D01*
X0117324Y0183833D01*
X0115176Y0183833D01*
X0113191Y0183011D01*
X0111750Y0181570D01*
X0111750Y0183370D01*
X0111627Y0183828D01*
X0111390Y0184238D01*
X0111055Y0184573D01*
X0110645Y0184810D01*
X0110187Y0184933D01*
X0106450Y0184933D01*
X0106450Y0179633D01*
X0106050Y0179633D01*
X0106050Y0179233D01*
X0106450Y0179233D01*
X0106450Y0173933D01*
X0110187Y0173933D01*
X0110645Y0174056D01*
X0111055Y0174293D01*
X0111390Y0174628D01*
X0111627Y0175038D01*
X0111708Y0175339D01*
X0113191Y0173855D01*
X0113950Y0173541D01*
X0113950Y0173136D01*
X0113083Y0172269D01*
X0112324Y0172583D01*
X0110176Y0172583D01*
X0108191Y0171761D01*
X0106672Y0170242D01*
X0105850Y0168257D01*
X0105850Y0166109D01*
X0105873Y0166054D01*
X0105854Y0166035D01*
X0097762Y0164253D01*
X0097156Y0164302D01*
X0096866Y0164056D01*
X0096495Y0163974D01*
X0096167Y0163462D01*
X0087950Y0156476D01*
X0087950Y0157317D01*
X0087082Y0159412D01*
X0085530Y0160964D01*
X0085541Y0161242D01*
X0085686Y0162015D01*
X0085579Y0162171D01*
X0085665Y0164261D01*
X0085765Y0164377D01*
X0085704Y0165193D01*
X0085737Y0166011D01*
X0085633Y0166124D01*
X0085062Y0173649D01*
X0085559Y0173855D01*
X0087078Y0175374D01*
X0087900Y0177359D01*
X0087900Y0179507D01*
X0087078Y0181492D01*
X0085559Y0183011D01*
X0083574Y0183833D01*
X0081426Y0183833D01*
X0079441Y0183011D01*
X0077922Y0181492D01*
X0077707Y0180973D01*
X0077078Y0182492D01*
X0075559Y0184011D01*
X0073574Y0184833D01*
X0071426Y0184833D01*
X0069441Y0184011D01*
X0067922Y0182492D01*
X0067293Y0180973D01*
X0067078Y0181492D01*
X0065559Y0183011D01*
X0063574Y0183833D01*
X0061426Y0183833D01*
X0059441Y0183011D01*
X0058000Y0181570D01*
X0058000Y0183370D01*
X0057877Y0183828D01*
X0057640Y0184238D01*
X0057305Y0184573D01*
X0056895Y0184810D01*
X0056437Y0184933D01*
X0052700Y0184933D01*
X0052700Y0179633D01*
X0052300Y0179633D01*
X0052300Y0179233D01*
X0052700Y0179233D01*
X0052700Y0173933D01*
X0056437Y0173933D01*
X0056895Y0174056D01*
X0057305Y0174293D01*
X0057640Y0174628D01*
X0057877Y0175038D01*
X0057958Y0175339D01*
X0059441Y0173855D01*
X0060200Y0173541D01*
X0060200Y0173136D01*
X0059333Y0172269D01*
X0058574Y0172583D01*
X0056426Y0172583D01*
X0054441Y0171761D01*
X0052922Y0170242D01*
X0052124Y0168316D01*
X0044207Y0176233D01*
X0019892Y0176233D01*
X0019578Y0176992D01*
X0018059Y0178511D01*
X0017040Y0178933D01*
X0018059Y0179355D01*
X0019578Y0180874D01*
X0020400Y0182859D01*
X0020400Y0185007D01*
X0019578Y0186992D01*
X0018059Y0188511D01*
X0017040Y0188933D01*
X0018059Y0189355D01*
X0019578Y0190874D01*
X0020400Y0192859D01*
X0020400Y0195007D01*
X0019578Y0196992D01*
X0018059Y0198511D01*
X0017040Y0198933D01*
X0018059Y0199355D01*
X0019578Y0200874D01*
X0020400Y0202859D01*
X0020400Y0205007D01*
X0019578Y0206992D01*
X0018059Y0208511D01*
X0017040Y0208933D01*
X0018059Y0209355D01*
X0019578Y0210874D01*
X0020400Y0212859D01*
X0020400Y0215007D01*
X0019578Y0216992D01*
X0018059Y0218511D01*
X0017040Y0218933D01*
X0018059Y0219355D01*
X0019578Y0220874D01*
X0019892Y0221633D01*
X0046628Y0221633D01*
X0048377Y0219883D01*
X0048105Y0219810D01*
X0047695Y0219573D01*
X0047360Y0219238D01*
X0047123Y0218828D01*
X0047000Y0218370D01*
X0047000Y0214633D01*
X0052300Y0214633D01*
X0052300Y0214233D01*
X0052700Y0214233D01*
X0052700Y0208933D01*
X0056437Y0208933D01*
X0056895Y0209056D01*
X0057305Y0209293D01*
X0057640Y0209628D01*
X0057877Y0210038D01*
X0057958Y0210339D01*
X0059441Y0208855D01*
X0061426Y0208033D01*
X0063574Y0208033D01*
X0065559Y0208855D01*
X0067078Y0210374D01*
X0067707Y0211893D01*
X0067922Y0211374D01*
X0069441Y0209855D01*
X0071426Y0209033D01*
X0073574Y0209033D01*
X0075559Y0209855D01*
X0077078Y0211374D01*
X0077293Y0211893D01*
X0077922Y0210374D01*
X0079441Y0208855D01*
X0080200Y0208541D01*
X0080200Y0206910D01*
X0078574Y0207583D01*
X0076426Y0207583D01*
X0074441Y0206761D01*
X0072922Y0205242D01*
X0072707Y0204723D01*
X0072078Y0206242D01*
X0070559Y0207761D01*
X0068574Y0208583D01*
X0066426Y0208583D01*
X0064441Y0207761D01*
X0062922Y0206242D01*
X0062293Y0204723D01*
X0062078Y0205242D01*
X0060559Y0206761D01*
X0058574Y0207583D01*
X0056426Y0207583D01*
X0054441Y0206761D01*
X0052922Y0205242D01*
X0052100Y0203257D01*
X0052100Y0201109D01*
X0052922Y0199124D01*
X0054441Y0197605D01*
X0055133Y0197319D01*
X0054813Y0196998D01*
X0053884Y0197383D01*
X0051616Y0197383D01*
X0049521Y0196515D01*
X0047918Y0194912D01*
X0047050Y0192817D01*
X0047050Y0190549D01*
X0047918Y0188454D01*
X0049521Y0186851D01*
X0051616Y0185983D01*
X0053884Y0185983D01*
X0055979Y0186851D01*
X0057582Y0188454D01*
X0058450Y0190549D01*
X0058450Y0192817D01*
X0058065Y0193746D01*
X0058903Y0194583D01*
X0077782Y0194583D01*
X0077050Y0192817D01*
X0077050Y0190549D01*
X0077918Y0188454D01*
X0079521Y0186851D01*
X0081616Y0185983D01*
X0083884Y0185983D01*
X0085979Y0186851D01*
X0087582Y0188454D01*
X0088450Y0190549D01*
X0088450Y0192817D01*
X0087582Y0194912D01*
X0085979Y0196515D01*
X0083884Y0197383D01*
X0083448Y0197383D01*
X0083753Y0197688D01*
X0085100Y0199035D01*
X0085100Y0205331D01*
X0084800Y0205631D01*
X0084800Y0208541D01*
X0085559Y0208855D01*
X0087078Y0210374D01*
X0087592Y0211615D01*
X0088380Y0210226D01*
X0088380Y0209880D01*
X0088834Y0209427D01*
X0089150Y0208869D01*
X0089483Y0208777D01*
X0089728Y0208533D01*
X0090369Y0208533D01*
X0090987Y0208363D01*
X0091288Y0208533D01*
X0098500Y0208533D01*
X0099109Y0208360D01*
X0099418Y0208533D01*
X0099772Y0208533D01*
X0100220Y0208981D01*
X0100773Y0209289D01*
X0100869Y0209630D01*
X0101021Y0209782D01*
X0101110Y0209628D01*
X0101445Y0209293D01*
X0101855Y0209056D01*
X0102313Y0208933D01*
X0106050Y0208933D01*
X0106050Y0214233D01*
X0106450Y0214233D01*
X0106450Y0208933D01*
X0110187Y0208933D01*
X0110645Y0209056D01*
X0111055Y0209293D01*
X0111390Y0209628D01*
X0111627Y0210038D01*
X0111708Y0210339D01*
X0113191Y0208855D01*
X0113950Y0208541D01*
X0113950Y0208136D01*
X0113083Y0207269D01*
X0112324Y0207583D01*
X0110176Y0207583D01*
X0108191Y0206761D01*
X0106672Y0205242D01*
X0105850Y0203257D01*
X0105850Y0201109D01*
X0106672Y0199124D01*
X0108191Y0197605D01*
X0110176Y0196783D01*
X0112324Y0196783D01*
X0114309Y0197605D01*
X0115828Y0199124D01*
X0116457Y0200643D01*
X0116672Y0200124D01*
X0118191Y0198605D01*
X0120176Y0197783D01*
X0122324Y0197783D01*
X0124309Y0198605D01*
X0125828Y0200124D01*
X0126043Y0200643D01*
X0126672Y0199124D01*
X0128191Y0197605D01*
X0130176Y0196783D01*
X0132324Y0196783D01*
X0134309Y0197605D01*
X0135200Y0198496D01*
X0135200Y0197383D01*
X0135116Y0197383D01*
X0133021Y0196515D01*
X0131418Y0194912D01*
X0130550Y0192817D01*
X0130550Y0190549D01*
X0131418Y0188454D01*
X0133021Y0186851D01*
X0135116Y0185983D01*
X0137384Y0185983D01*
X0139479Y0186851D01*
X0141082Y0188454D01*
X0141950Y0190549D01*
X0141950Y0192817D01*
X0141082Y0194912D01*
X0139800Y0196194D01*
X0139800Y0209346D01*
X0140828Y0210374D01*
X0141650Y0212359D01*
X0141650Y0214507D01*
X0140828Y0216492D01*
X0139309Y0218011D01*
X0137324Y0218833D01*
X0135176Y0218833D01*
X0133191Y0218011D01*
X0131672Y0216492D01*
X0131457Y0215973D01*
X0130828Y0217492D01*
X0129309Y0219011D01*
X0127324Y0219833D01*
X0125176Y0219833D01*
X0123191Y0219011D01*
X0121672Y0217492D01*
X0121043Y0215973D01*
X0120828Y0216492D01*
X0119309Y0218011D01*
X0117324Y0218833D01*
X0115176Y0218833D01*
X0113191Y0218011D01*
X0111750Y0216570D01*
X0111750Y0218370D01*
X0111627Y0218828D01*
X0111390Y0219238D01*
X0111319Y0219309D01*
X0111492Y0219503D01*
X0114053Y0222063D01*
X0115400Y0223411D01*
X0115400Y0229080D01*
X0119417Y0233097D01*
X0120176Y0232783D01*
X0122324Y0232783D01*
X0124309Y0233605D01*
X0125828Y0235124D01*
X0126043Y0235643D01*
X0126672Y0234124D01*
X0128191Y0232605D01*
X0130176Y0231783D01*
X0132324Y0231783D01*
X0134309Y0232605D01*
X0135200Y0233496D01*
X0135200Y0231900D01*
X0134271Y0231515D01*
X0132668Y0229912D01*
X0131800Y0227817D01*
X0131800Y0225549D01*
X0132668Y0223454D01*
X0134271Y0221851D01*
X0136366Y0220983D01*
X0138634Y0220983D01*
X0140729Y0221851D01*
X0142332Y0223454D01*
X0143155Y0225441D01*
X0143668Y0224204D01*
X0144935Y0222937D01*
X0144521Y0222765D01*
X0142918Y0221162D01*
X0142050Y0219067D01*
X0142050Y0216799D01*
X0142918Y0214704D01*
X0144521Y0213101D01*
X0146616Y0212233D01*
X0148884Y0212233D01*
X0150979Y0213101D01*
X0152582Y0214704D01*
X0153450Y0216799D01*
X0153450Y0219067D01*
X0152582Y0221162D01*
X0151315Y0222429D01*
X0151729Y0222601D01*
X0153332Y0224204D01*
X0153552Y0224734D01*
X0154338Y0223949D01*
X0156065Y0223233D01*
X0163935Y0223233D01*
X0165662Y0223949D01*
X0166984Y0225271D01*
X0167700Y0226998D01*
X0167700Y0228868D01*
X0166984Y0230595D01*
X0165662Y0231918D01*
X0163935Y0232633D01*
X0156065Y0232633D01*
X0154338Y0231918D01*
X0153207Y0230787D01*
X0151729Y0232265D01*
X0149634Y0233133D01*
X0147366Y0233133D01*
X0145271Y0232265D01*
X0143668Y0230662D01*
X0142845Y0228675D01*
X0142332Y0229912D01*
X0140729Y0231515D01*
X0139800Y0231900D01*
X0139800Y0244346D01*
X0140828Y0245374D01*
X0141650Y0247359D01*
X0141650Y0249507D01*
X0140828Y0251492D01*
X0139309Y0253011D01*
X0137324Y0253833D01*
X0135176Y0253833D01*
X0133191Y0253011D01*
X0131672Y0251492D01*
X0131457Y0250973D01*
X0130828Y0252492D01*
X0129049Y0254119D02*
X0143739Y0254119D01*
X0143539Y0254393D02*
X0144076Y0253655D01*
X0144722Y0253009D01*
X0145460Y0252472D01*
X0146274Y0252058D01*
X0147142Y0251776D01*
X0148044Y0251633D01*
X0148300Y0251633D01*
X0148300Y0257233D01*
X0142700Y0257233D01*
X0142700Y0256977D01*
X0142843Y0256075D01*
X0143125Y0255207D01*
X0143539Y0254393D01*
X0142959Y0255717D02*
X0100041Y0255717D01*
X0099261Y0254119D02*
X0101041Y0254119D01*
X0101110Y0254238D02*
X0100873Y0253828D01*
X0100750Y0253370D01*
X0100750Y0249633D01*
X0106050Y0249633D01*
X0106050Y0254933D01*
X0102313Y0254933D01*
X0101855Y0254810D01*
X0101445Y0254573D01*
X0101110Y0254238D01*
X0100750Y0252520D02*
X0097606Y0252520D01*
X0100750Y0250922D02*
X0087314Y0250922D01*
X0087900Y0249323D02*
X0106050Y0249323D01*
X0106050Y0249233D02*
X0100750Y0249233D01*
X0100750Y0245496D01*
X0100873Y0245038D01*
X0101110Y0244628D01*
X0101445Y0244293D01*
X0101855Y0244056D01*
X0102313Y0243933D01*
X0106050Y0243933D01*
X0106050Y0249233D01*
X0106050Y0247725D02*
X0106450Y0247725D01*
X0106450Y0246126D02*
X0106050Y0246126D01*
X0106050Y0244528D02*
X0106450Y0244528D01*
X0107761Y0241331D02*
X0080989Y0241331D01*
X0082289Y0239732D02*
X0106461Y0239732D01*
X0105850Y0238134D02*
X0082900Y0238134D01*
X0082900Y0236535D02*
X0105850Y0236535D01*
X0106336Y0234937D02*
X0082414Y0234937D01*
X0081292Y0233338D02*
X0107458Y0233338D01*
X0110187Y0231740D02*
X0111554Y0231740D01*
X0115400Y0228543D02*
X0132101Y0228543D01*
X0131800Y0226944D02*
X0115400Y0226944D01*
X0115400Y0225345D02*
X0131884Y0225345D01*
X0132547Y0223747D02*
X0115400Y0223747D01*
X0114138Y0222148D02*
X0133974Y0222148D01*
X0129368Y0218951D02*
X0142050Y0218951D01*
X0142050Y0217353D02*
X0139967Y0217353D01*
X0141133Y0215754D02*
X0142483Y0215754D01*
X0141650Y0214156D02*
X0143466Y0214156D01*
X0141650Y0212557D02*
X0145833Y0212557D01*
X0149667Y0212557D02*
X0152300Y0212557D01*
X0152300Y0211998D02*
X0153016Y0210271D01*
X0154338Y0208949D01*
X0156065Y0208233D01*
X0163935Y0208233D01*
X0165662Y0208949D01*
X0166984Y0210271D01*
X0167700Y0211998D01*
X0167700Y0213868D01*
X0166984Y0215595D01*
X0165662Y0216918D01*
X0163935Y0217633D01*
X0156065Y0217633D01*
X0154338Y0216918D01*
X0153016Y0215595D01*
X0152300Y0213868D01*
X0152300Y0211998D01*
X0152730Y0210959D02*
X0141070Y0210959D01*
X0139814Y0209360D02*
X0153926Y0209360D01*
X0152419Y0214156D02*
X0152034Y0214156D01*
X0153017Y0215754D02*
X0153175Y0215754D01*
X0153450Y0217353D02*
X0155389Y0217353D01*
X0153450Y0218951D02*
X0186346Y0218951D01*
X0184748Y0217353D02*
X0164611Y0217353D01*
X0166825Y0215754D02*
X0183850Y0215754D01*
X0183850Y0214156D02*
X0167581Y0214156D01*
X0167700Y0212557D02*
X0183850Y0212557D01*
X0183850Y0210959D02*
X0167270Y0210959D01*
X0166074Y0209360D02*
X0176781Y0209360D01*
X0177338Y0209918D02*
X0176016Y0208595D01*
X0175300Y0206868D01*
X0175300Y0198998D01*
X0176016Y0197271D01*
X0177338Y0195949D01*
X0179065Y0195233D01*
X0180935Y0195233D01*
X0182662Y0195949D01*
X0183984Y0197271D01*
X0184700Y0198998D01*
X0184700Y0206868D01*
X0183984Y0208595D01*
X0182662Y0209918D01*
X0180935Y0210633D01*
X0179065Y0210633D01*
X0177338Y0209918D01*
X0175670Y0207762D02*
X0139800Y0207762D01*
X0139800Y0206163D02*
X0175300Y0206163D01*
X0175300Y0204565D02*
X0139800Y0204565D01*
X0139800Y0202966D02*
X0175300Y0202966D01*
X0175300Y0201368D02*
X0139800Y0201368D01*
X0139800Y0199769D02*
X0175300Y0199769D01*
X0175643Y0198171D02*
X0139800Y0198171D01*
X0139800Y0196572D02*
X0153992Y0196572D01*
X0152758Y0194974D02*
X0141020Y0194974D01*
X0141719Y0193375D02*
X0145730Y0193375D01*
X0145524Y0193308D02*
X0144710Y0192894D01*
X0143972Y0192357D01*
X0143326Y0191712D01*
X0142789Y0190973D01*
X0142375Y0190159D01*
X0142093Y0189291D01*
X0141950Y0188390D01*
X0141950Y0188133D01*
X0147550Y0188133D01*
X0147550Y0193733D01*
X0147294Y0193733D01*
X0146392Y0193590D01*
X0145524Y0193308D01*
X0147550Y0193375D02*
X0147950Y0193375D01*
X0147950Y0191777D02*
X0147550Y0191777D01*
X0147550Y0190178D02*
X0147950Y0190178D01*
X0147950Y0188580D02*
X0147550Y0188580D01*
X0143391Y0191777D02*
X0141950Y0191777D01*
X0141796Y0190178D02*
X0142384Y0190178D01*
X0141980Y0188580D02*
X0141134Y0188580D01*
X0142028Y0186981D02*
X0139609Y0186981D01*
X0142540Y0185383D02*
X0099820Y0185383D01*
X0100200Y0186299D02*
X0099332Y0184204D01*
X0097729Y0182601D01*
X0097400Y0182465D01*
X0097540Y0182394D01*
X0098278Y0181857D01*
X0098924Y0181212D01*
X0099461Y0180473D01*
X0099875Y0179659D01*
X0100157Y0178791D01*
X0100300Y0177890D01*
X0100300Y0177633D01*
X0094700Y0177633D01*
X0094700Y0177233D01*
X0094700Y0171633D01*
X0094956Y0171633D01*
X0095858Y0171776D01*
X0096726Y0172058D01*
X0097540Y0172472D01*
X0098278Y0173009D01*
X0098924Y0173655D01*
X0099461Y0174393D01*
X0099875Y0175207D01*
X0100157Y0176075D01*
X0100300Y0176977D01*
X0100300Y0177233D01*
X0094700Y0177233D01*
X0094300Y0177233D01*
X0094300Y0171633D01*
X0094044Y0171633D01*
X0093142Y0171776D01*
X0092274Y0172058D01*
X0091460Y0172472D01*
X0090722Y0173009D01*
X0090076Y0173655D01*
X0089539Y0174393D01*
X0089125Y0175207D01*
X0088843Y0176075D01*
X0088700Y0176977D01*
X0088700Y0177233D01*
X0094300Y0177233D01*
X0094300Y0177633D01*
X0088700Y0177633D01*
X0088700Y0177890D01*
X0088843Y0178791D01*
X0089125Y0179659D01*
X0089539Y0180473D01*
X0090076Y0181212D01*
X0090722Y0181857D01*
X0091460Y0182394D01*
X0091600Y0182465D01*
X0091271Y0182601D01*
X0089668Y0184204D01*
X0088800Y0186299D01*
X0088800Y0188567D01*
X0089668Y0190662D01*
X0091271Y0192265D01*
X0093366Y0193133D01*
X0095634Y0193133D01*
X0097729Y0192265D01*
X0099332Y0190662D01*
X0100200Y0188567D01*
X0100200Y0186299D01*
X0100200Y0186981D02*
X0102891Y0186981D01*
X0103021Y0186851D02*
X0105116Y0185983D01*
X0107384Y0185983D01*
X0109479Y0186851D01*
X0111082Y0188454D01*
X0111950Y0190549D01*
X0111950Y0192817D01*
X0111082Y0194912D01*
X0109479Y0196515D01*
X0107384Y0197383D01*
X0105116Y0197383D01*
X0103021Y0196515D01*
X0101418Y0194912D01*
X0100550Y0192817D01*
X0100550Y0190549D01*
X0101418Y0188454D01*
X0103021Y0186851D01*
X0102313Y0184933D02*
X0101855Y0184810D01*
X0101445Y0184573D01*
X0101110Y0184238D01*
X0100873Y0183828D01*
X0100750Y0183370D01*
X0100750Y0179633D01*
X0106050Y0179633D01*
X0106050Y0184933D01*
X0102313Y0184933D01*
X0100861Y0183784D02*
X0098912Y0183784D01*
X0097826Y0182186D02*
X0100750Y0182186D01*
X0100750Y0180587D02*
X0099378Y0180587D01*
X0100093Y0178989D02*
X0100750Y0178989D01*
X0100750Y0179233D02*
X0100750Y0175496D01*
X0100873Y0175038D01*
X0101110Y0174628D01*
X0101445Y0174293D01*
X0101855Y0174056D01*
X0102313Y0173933D01*
X0106050Y0173933D01*
X0106050Y0179233D01*
X0100750Y0179233D01*
X0100750Y0177390D02*
X0094700Y0177390D01*
X0094300Y0177390D02*
X0087900Y0177390D01*
X0087900Y0178989D02*
X0088907Y0178989D01*
X0089622Y0180587D02*
X0087453Y0180587D01*
X0086384Y0182186D02*
X0091174Y0182186D01*
X0090088Y0183784D02*
X0083692Y0183784D01*
X0081308Y0183784D02*
X0075786Y0183784D01*
X0077205Y0182186D02*
X0078616Y0182186D01*
X0079391Y0186981D02*
X0056109Y0186981D01*
X0057634Y0188580D02*
X0077866Y0188580D01*
X0077204Y0190178D02*
X0058296Y0190178D01*
X0058450Y0191777D02*
X0077050Y0191777D01*
X0077281Y0193375D02*
X0058219Y0193375D01*
X0053876Y0198171D02*
X0018399Y0198171D01*
X0018473Y0199769D02*
X0052655Y0199769D01*
X0052100Y0201368D02*
X0019782Y0201368D01*
X0020400Y0202966D02*
X0052100Y0202966D01*
X0052642Y0204565D02*
X0020400Y0204565D01*
X0019921Y0206163D02*
X0053844Y0206163D01*
X0052300Y0208933D02*
X0052300Y0214233D01*
X0047000Y0214233D01*
X0047000Y0210496D01*
X0047123Y0210038D01*
X0047360Y0209628D01*
X0047695Y0209293D01*
X0048105Y0209056D01*
X0048563Y0208933D01*
X0052300Y0208933D01*
X0052300Y0209360D02*
X0052700Y0209360D01*
X0052700Y0210959D02*
X0052300Y0210959D01*
X0052300Y0212557D02*
X0052700Y0212557D01*
X0052700Y0214156D02*
X0052300Y0214156D01*
X0047000Y0214156D02*
X0020400Y0214156D01*
X0020275Y0212557D02*
X0047000Y0212557D01*
X0047000Y0210959D02*
X0019613Y0210959D01*
X0018064Y0209360D02*
X0047627Y0209360D01*
X0047000Y0215754D02*
X0020090Y0215754D01*
X0019217Y0217353D02*
X0047000Y0217353D01*
X0047194Y0218951D02*
X0017084Y0218951D01*
X0019254Y0220550D02*
X0047711Y0220550D01*
X0047050Y0226233D02*
X0019892Y0226233D01*
X0019578Y0226992D01*
X0018059Y0228511D01*
X0017040Y0228933D01*
X0018059Y0229355D01*
X0019578Y0230874D01*
X0020400Y0232859D01*
X0020400Y0235007D01*
X0019578Y0236992D01*
X0018059Y0238511D01*
X0017040Y0238933D01*
X0018059Y0239355D01*
X0019578Y0240874D01*
X0020400Y0242859D01*
X0020400Y0245007D01*
X0019578Y0246992D01*
X0018059Y0248511D01*
X0016074Y0249333D01*
X0013926Y0249333D01*
X0011941Y0248511D01*
X0010422Y0246992D01*
X0009600Y0245007D01*
X0009600Y0242859D01*
X0010422Y0240874D01*
X0011941Y0239355D01*
X0012960Y0238933D01*
X0011941Y0238511D01*
X0010422Y0236992D01*
X0009600Y0235007D01*
X0009600Y0232859D01*
X0010422Y0230874D01*
X0011941Y0229355D01*
X0012960Y0228933D01*
X0011941Y0228511D01*
X0010422Y0226992D01*
X0009600Y0225007D01*
X0009600Y0222859D01*
X0010422Y0220874D01*
X0011941Y0219355D01*
X0012960Y0218933D01*
X0011941Y0218511D01*
X0010422Y0216992D01*
X0009600Y0215007D01*
X0009600Y0212859D01*
X0010422Y0210874D01*
X0011941Y0209355D01*
X0012960Y0208933D01*
X0011941Y0208511D01*
X0010422Y0206992D01*
X0009600Y0205007D01*
X0009600Y0202859D01*
X0010422Y0200874D01*
X0011941Y0199355D01*
X0012960Y0198933D01*
X0011941Y0198511D01*
X0010422Y0196992D01*
X0009600Y0195007D01*
X0009600Y0192859D01*
X0010422Y0190874D01*
X0011941Y0189355D01*
X0012960Y0188933D01*
X0011941Y0188511D01*
X0010422Y0186992D01*
X0009600Y0185007D01*
X0009600Y0182859D01*
X0010422Y0180874D01*
X0011941Y0179355D01*
X0012960Y0178933D01*
X0011941Y0178511D01*
X0010422Y0176992D01*
X0009600Y0175007D01*
X0009600Y0172859D01*
X0010422Y0170874D01*
X0011941Y0169355D01*
X0013926Y0168533D01*
X0016074Y0168533D01*
X0018059Y0169355D01*
X0019578Y0170874D01*
X0019892Y0171633D01*
X0042302Y0171633D01*
X0052052Y0161883D01*
X0051116Y0161883D01*
X0049021Y0161015D01*
X0047418Y0159412D01*
X0046550Y0157317D01*
X0046550Y0155049D01*
X0047418Y0152954D01*
X0049021Y0151351D01*
X0051116Y0150483D01*
X0053384Y0150483D01*
X0055479Y0151351D01*
X0057082Y0152954D01*
X0057950Y0155049D01*
X0057950Y0155985D01*
X0064305Y0149630D01*
X0065652Y0148283D01*
X0070702Y0148283D01*
X0069441Y0147761D01*
X0067922Y0146242D01*
X0067293Y0144723D01*
X0067078Y0145242D01*
X0065559Y0146761D01*
X0063574Y0147583D01*
X0061426Y0147583D01*
X0059441Y0146761D01*
X0058000Y0145320D01*
X0058000Y0147120D01*
X0057877Y0147578D01*
X0057640Y0147988D01*
X0057305Y0148323D01*
X0056895Y0148560D01*
X0056437Y0148683D01*
X0052700Y0148683D01*
X0052700Y0143383D01*
X0052300Y0143383D01*
X0052300Y0142983D01*
X0052700Y0142983D01*
X0052700Y0137683D01*
X0056437Y0137683D01*
X0056895Y0137806D01*
X0057305Y0138043D01*
X0057640Y0138378D01*
X0057877Y0138788D01*
X0057958Y0139089D01*
X0058298Y0138748D01*
X0057915Y0137904D01*
X0057514Y0137062D01*
X0057522Y0137039D01*
X0057201Y0136333D01*
X0056426Y0136333D01*
X0054441Y0135511D01*
X0053284Y0134354D01*
X0053284Y0134586D01*
X0052784Y0135793D01*
X0051860Y0136717D01*
X0050653Y0137217D01*
X0049347Y0137217D01*
X0048140Y0136717D01*
X0047216Y0135793D01*
X0046716Y0134586D01*
X0046716Y0134290D01*
X0044718Y0131419D01*
X0040485Y0125333D01*
X0032501Y0125333D01*
X0035043Y0127875D01*
X0035446Y0128272D01*
X0035450Y0128282D01*
X0035458Y0128290D01*
X0035675Y0128812D01*
X0040385Y0139946D01*
X0040472Y0139982D01*
X0041451Y0140961D01*
X0041981Y0142241D01*
X0041981Y0143626D01*
X0041451Y0144905D01*
X0040472Y0145884D01*
X0039192Y0146414D01*
X0037808Y0146414D01*
X0036528Y0145884D01*
X0035549Y0144905D01*
X0035019Y0143626D01*
X0035019Y0142241D01*
X0035038Y0142194D01*
X0030550Y0131584D01*
X0027880Y0128914D01*
X0027808Y0128914D01*
X0026528Y0128384D01*
X0025549Y0127405D01*
X0025019Y0126126D01*
X0025019Y0125572D01*
X0024192Y0125914D01*
X0022808Y0125914D01*
X0021528Y0125384D01*
X0020549Y0124405D01*
X0020019Y0123126D01*
X0020019Y0121741D01*
X0020229Y0121233D01*
X0019892Y0121233D01*
X0019578Y0121992D01*
X0018059Y0123511D01*
X0017040Y0123933D01*
X0018059Y0124355D01*
X0019578Y0125874D01*
X0020400Y0127859D01*
X0020400Y0130007D01*
X0019578Y0131992D01*
X0018059Y0133511D01*
X0017040Y0133933D01*
X0018059Y0134355D01*
X0019578Y0135874D01*
X0020400Y0137859D01*
X0020400Y0140007D01*
X0019578Y0141992D01*
X0018059Y0143511D01*
X0017040Y0143933D01*
X0018059Y0144355D01*
X0019578Y0145874D01*
X0020400Y0147859D01*
X0020400Y0150007D01*
X0019578Y0151992D01*
X0018059Y0153511D01*
X0017040Y0153933D01*
X0018059Y0154355D01*
X0019578Y0155874D01*
X0020400Y0157859D01*
X0020400Y0160007D01*
X0019578Y0161992D01*
X0018059Y0163511D01*
X0016074Y0164333D01*
X0013926Y0164333D01*
X0011941Y0163511D01*
X0010422Y0161992D01*
X0009600Y0160007D01*
X0009600Y0157859D01*
X0010422Y0155874D01*
X0011941Y0154355D01*
X0012960Y0153933D01*
X0011941Y0153511D01*
X0010422Y0151992D01*
X0009600Y0150007D01*
X0009600Y0147859D01*
X0010422Y0145874D01*
X0011941Y0144355D01*
X0012960Y0143933D01*
X0011941Y0143511D01*
X0010422Y0141992D01*
X0009600Y0140007D01*
X0009600Y0137859D01*
X0010422Y0135874D01*
X0011941Y0134355D01*
X0012960Y0133933D01*
X0011941Y0133511D01*
X0010422Y0131992D01*
X0009600Y0130007D01*
X0009600Y0127859D01*
X0010422Y0125874D01*
X0011941Y0124355D01*
X0012960Y0123933D01*
X0011941Y0123511D01*
X0010422Y0121992D01*
X0009600Y0120007D01*
X0009600Y0117859D01*
X0010422Y0115874D01*
X0011941Y0114355D01*
X0012960Y0113933D01*
X0011941Y0113511D01*
X0010422Y0111992D01*
X0009600Y0110007D01*
X0009600Y0107859D01*
X0010422Y0105874D01*
X0011941Y0104355D01*
X0012816Y0103993D01*
X0012117Y0103637D01*
X0011417Y0103128D01*
X0010805Y0102516D01*
X0010296Y0101816D01*
X0009903Y0101044D01*
X0009635Y0100221D01*
X0009500Y0099366D01*
X0009500Y0099133D01*
X0014800Y0099133D01*
X0014800Y0098733D01*
X0009500Y0098733D01*
X0009500Y0098500D01*
X0009635Y0097645D01*
X0009903Y0096822D01*
X0010296Y0096050D01*
X0010805Y0095350D01*
X0011417Y0094738D01*
X0012117Y0094229D01*
X0012816Y0093873D01*
X0011941Y0093511D01*
X0010422Y0091992D01*
X0009600Y0090007D01*
X0009600Y0087859D01*
X0010422Y0085874D01*
X0011941Y0084355D01*
X0012960Y0083933D01*
X0011941Y0083511D01*
X0010422Y0081992D01*
X0009600Y0080007D01*
X0009600Y0077859D01*
X0010422Y0075874D01*
X0011941Y0074355D01*
X0012960Y0073933D01*
X0011941Y0073511D01*
X0010422Y0071992D01*
X0009600Y0070007D01*
X0009600Y0067859D01*
X0010422Y0065874D01*
X0011941Y0064355D01*
X0013926Y0063533D01*
X0016074Y0063533D01*
X0018059Y0064355D01*
X0019578Y0065874D01*
X0020400Y0067859D01*
X0020400Y0070007D01*
X0020348Y0070133D01*
X0022889Y0070133D01*
X0021418Y0068662D01*
X0020550Y0066567D01*
X0020550Y0064299D01*
X0021418Y0062204D01*
X0023021Y0060601D01*
X0023629Y0060349D01*
X0022588Y0059918D01*
X0021266Y0058595D01*
X0020550Y0056868D01*
X0020550Y0048998D01*
X0021266Y0047271D01*
X0022478Y0046058D01*
X0021266Y0044845D01*
X0020550Y0043118D01*
X0020550Y0035248D01*
X0021266Y0033521D01*
X0022588Y0032199D01*
X0024315Y0031483D01*
X0026185Y0031483D01*
X0027912Y0032199D01*
X0029234Y0033521D01*
X0029950Y0035248D01*
X0029950Y0043118D01*
X0029234Y0044845D01*
X0028022Y0046058D01*
X0029234Y0047271D01*
X0029950Y0048998D01*
X0029950Y0056868D01*
X0029234Y0058595D01*
X0027912Y0059918D01*
X0027871Y0059935D01*
X0029479Y0060601D01*
X0031082Y0062204D01*
X0031950Y0064299D01*
X0031950Y0066567D01*
X0031082Y0068662D01*
X0029611Y0070133D01*
X0030047Y0070133D01*
X0032685Y0067496D01*
X0032300Y0066567D01*
X0032300Y0064299D01*
X0033168Y0062204D01*
X0034739Y0060633D01*
X0034315Y0060633D01*
X0032588Y0059918D01*
X0031266Y0058595D01*
X0030550Y0056868D01*
X0030550Y0048998D01*
X0031266Y0047271D01*
X0032478Y0046058D01*
X0031266Y0044845D01*
X0030550Y0043118D01*
X0030550Y0035248D01*
X0031266Y0033521D01*
X0032588Y0032199D01*
X0034315Y0031483D01*
X0036185Y0031483D01*
X0037912Y0032199D01*
X0039234Y0033521D01*
X0039950Y0035248D01*
X0039950Y0043118D01*
X0039234Y0044845D01*
X0038022Y0046058D01*
X0039234Y0047271D01*
X0039950Y0048998D01*
X0039950Y0056868D01*
X0039234Y0058595D01*
X0038097Y0059733D01*
X0039134Y0059733D01*
X0041229Y0060601D01*
X0042832Y0062204D01*
X0043700Y0064299D01*
X0043700Y0066567D01*
X0042832Y0068662D01*
X0041229Y0070265D01*
X0039134Y0071133D01*
X0036866Y0071133D01*
X0035937Y0070748D01*
X0031953Y0074733D01*
X0018437Y0074733D01*
X0019578Y0075874D01*
X0020400Y0077859D01*
X0020400Y0080007D01*
X0019578Y0081992D01*
X0018059Y0083511D01*
X0017040Y0083933D01*
X0018059Y0084355D01*
X0019578Y0085874D01*
X0020400Y0087859D01*
X0020400Y0090007D01*
X0019578Y0091992D01*
X0018059Y0093511D01*
X0017184Y0093873D01*
X0017883Y0094229D01*
X0018583Y0094738D01*
X0019195Y0095350D01*
X0019704Y0096050D01*
X0020097Y0096822D01*
X0020365Y0097645D01*
X0020500Y0098500D01*
X0020500Y0098733D01*
X0015200Y0098733D01*
X0015200Y0099133D01*
X0020500Y0099133D01*
X0020500Y0099366D01*
X0020365Y0100221D01*
X0020097Y0101044D01*
X0019704Y0101816D01*
X0019195Y0102516D01*
X0018583Y0103128D01*
X0017883Y0103637D01*
X0017184Y0103993D01*
X0018059Y0104355D01*
X0018519Y0104815D01*
X0018519Y0104241D01*
X0019049Y0102961D01*
X0020028Y0101982D01*
X0021308Y0101452D01*
X0022692Y0101452D01*
X0023972Y0101982D01*
X0024750Y0102760D01*
X0025528Y0101982D01*
X0026808Y0101452D01*
X0028192Y0101452D01*
X0029472Y0101982D01*
X0030451Y0102961D01*
X0030981Y0104241D01*
X0030981Y0105626D01*
X0030451Y0106905D01*
X0030400Y0106956D01*
X0030400Y0110910D01*
X0030451Y0110961D01*
X0030981Y0112241D01*
X0030981Y0113626D01*
X0030451Y0114905D01*
X0029472Y0115884D01*
X0028192Y0116414D01*
X0026808Y0116414D01*
X0025528Y0115884D01*
X0024750Y0115106D01*
X0023972Y0115884D01*
X0022692Y0116414D01*
X0021308Y0116414D01*
X0020028Y0115884D01*
X0019049Y0114905D01*
X0018519Y0113626D01*
X0018519Y0113051D01*
X0018059Y0113511D01*
X0017040Y0113933D01*
X0018059Y0114355D01*
X0019578Y0115874D01*
X0019892Y0116633D01*
X0043950Y0116633D01*
X0043950Y0080480D01*
X0048950Y0075480D01*
X0049497Y0074933D01*
X0048563Y0074933D01*
X0048105Y0074810D01*
X0047695Y0074573D01*
X0047360Y0074238D01*
X0047123Y0073828D01*
X0047000Y0073370D01*
X0047000Y0069633D01*
X0052300Y0069633D01*
X0052300Y0069233D01*
X0052700Y0069233D01*
X0052700Y0063933D01*
X0055200Y0063933D01*
X0055200Y0062075D01*
X0054441Y0061761D01*
X0052922Y0060242D01*
X0052100Y0058257D01*
X0052100Y0056109D01*
X0052922Y0054124D01*
X0054441Y0052605D01*
X0056426Y0051783D01*
X0058375Y0051783D01*
X0056521Y0051015D01*
X0054918Y0049412D01*
X0054050Y0047317D01*
X0054050Y0045049D01*
X0054918Y0042954D01*
X0056521Y0041351D01*
X0058616Y0040483D01*
X0060884Y0040483D01*
X0062979Y0041351D01*
X0064582Y0042954D01*
X0064967Y0043883D01*
X0068203Y0043883D01*
X0075200Y0050880D01*
X0075200Y0045730D01*
X0076547Y0044383D01*
X0084185Y0036746D01*
X0083800Y0035817D01*
X0083800Y0033549D01*
X0084668Y0031454D01*
X0085089Y0031033D01*
X0064017Y0031033D01*
X0064461Y0031643D01*
X0064875Y0032457D01*
X0065157Y0033325D01*
X0065300Y0034227D01*
X0065300Y0034483D01*
X0059700Y0034483D01*
X0059700Y0034883D01*
X0065300Y0034883D01*
X0065300Y0035140D01*
X0065157Y0036041D01*
X0064875Y0036909D01*
X0064461Y0037723D01*
X0063924Y0038462D01*
X0063278Y0039107D01*
X0062540Y0039644D01*
X0061726Y0040058D01*
X0060858Y0040340D01*
X0059956Y0040483D01*
X0059700Y0040483D01*
X0059700Y0034883D01*
X0059300Y0034883D01*
X0059300Y0034483D01*
X0053700Y0034483D01*
X0053700Y0034227D01*
X0053843Y0033325D01*
X0054125Y0032457D01*
X0054539Y0031643D01*
X0054983Y0031033D01*
X0015870Y0031033D01*
X0015420Y0031483D01*
X0016185Y0031483D01*
X0017912Y0032199D01*
X0019234Y0033521D01*
X0019950Y0035248D01*
X0019950Y0043118D01*
X0019234Y0044845D01*
X0018022Y0046058D01*
X0019234Y0047271D01*
X0019950Y0048998D01*
X0019950Y0056868D01*
X0019234Y0058595D01*
X0017912Y0059918D01*
X0016185Y0060633D01*
X0014315Y0060633D01*
X0012588Y0059918D01*
X0011266Y0058595D01*
X0010550Y0056868D01*
X0010550Y0048998D01*
X0011266Y0047271D01*
X0012478Y0046058D01*
X0011266Y0044845D01*
X0010550Y0043118D01*
X0010550Y0036353D01*
X0007100Y0039803D01*
X0007100Y0248021D01*
X0013328Y0253833D01*
X0047126Y0253833D01*
X0047123Y0253828D01*
X0047000Y0253370D01*
X0047000Y0249633D01*
X0052300Y0249633D01*
X0052300Y0249233D01*
X0052700Y0249233D01*
X0052700Y0243933D01*
X0056437Y0243933D01*
X0056895Y0244056D01*
X0057305Y0244293D01*
X0057640Y0244628D01*
X0057877Y0245038D01*
X0057958Y0245339D01*
X0059441Y0243855D01*
X0060200Y0243541D01*
X0060200Y0243136D01*
X0059333Y0242269D01*
X0058574Y0242583D01*
X0056426Y0242583D01*
X0054441Y0241761D01*
X0052922Y0240242D01*
X0052100Y0238257D01*
X0052100Y0236109D01*
X0052922Y0234124D01*
X0054441Y0232605D01*
X0056426Y0231783D01*
X0058574Y0231783D01*
X0060559Y0232605D01*
X0062078Y0234124D01*
X0062707Y0235643D01*
X0062922Y0235124D01*
X0064441Y0233605D01*
X0066426Y0232783D01*
X0068574Y0232783D01*
X0070559Y0233605D01*
X0072078Y0235124D01*
X0072293Y0235643D01*
X0072922Y0234124D01*
X0074441Y0232605D01*
X0075200Y0232291D01*
X0075200Y0230980D01*
X0077435Y0228746D01*
X0077050Y0227817D01*
X0077050Y0225549D01*
X0077918Y0223454D01*
X0078799Y0222573D01*
X0057315Y0223187D01*
X0057582Y0223454D01*
X0058450Y0225549D01*
X0058450Y0227817D01*
X0057582Y0229912D01*
X0055979Y0231515D01*
X0053884Y0232383D01*
X0051616Y0232383D01*
X0049521Y0231515D01*
X0047918Y0229912D01*
X0047050Y0227817D01*
X0047050Y0226233D01*
X0047050Y0226944D02*
X0019598Y0226944D01*
X0017983Y0228543D02*
X0047351Y0228543D01*
X0048147Y0230141D02*
X0035523Y0230141D01*
X0035662Y0230199D02*
X0036984Y0231521D01*
X0037700Y0233248D01*
X0037700Y0235118D01*
X0036984Y0236845D01*
X0035662Y0238168D01*
X0033935Y0238883D01*
X0026065Y0238883D01*
X0024338Y0238168D01*
X0023016Y0236845D01*
X0022300Y0235118D01*
X0022300Y0233248D01*
X0023016Y0231521D01*
X0024338Y0230199D01*
X0026065Y0229483D01*
X0033935Y0229483D01*
X0035662Y0230199D01*
X0037075Y0231740D02*
X0050063Y0231740D01*
X0052586Y0234937D02*
X0037700Y0234937D01*
X0037700Y0233338D02*
X0053708Y0233338D01*
X0055437Y0231740D02*
X0075200Y0231740D01*
X0076039Y0230141D02*
X0057353Y0230141D01*
X0058149Y0228543D02*
X0077351Y0228543D01*
X0077050Y0226944D02*
X0058450Y0226944D01*
X0058366Y0225345D02*
X0077134Y0225345D01*
X0077797Y0223747D02*
X0057703Y0223747D01*
X0061292Y0233338D02*
X0065086Y0233338D01*
X0063110Y0234937D02*
X0062414Y0234937D01*
X0069914Y0233338D02*
X0073708Y0233338D01*
X0072586Y0234937D02*
X0071890Y0234937D01*
X0072703Y0239732D02*
X0072711Y0239732D01*
X0071989Y0241331D02*
X0074011Y0241331D01*
X0074768Y0244528D02*
X0078769Y0244528D01*
X0077611Y0246126D02*
X0076830Y0246126D01*
X0077050Y0252520D02*
X0078950Y0252520D01*
X0075299Y0254119D02*
X0089739Y0254119D01*
X0089539Y0254393D02*
X0090076Y0253655D01*
X0090722Y0253009D01*
X0091460Y0252472D01*
X0092274Y0252058D01*
X0093142Y0251776D01*
X0094044Y0251633D01*
X0094300Y0251633D01*
X0094300Y0257233D01*
X0088700Y0257233D01*
X0088700Y0256977D01*
X0088843Y0256075D01*
X0089125Y0255207D01*
X0089539Y0254393D01*
X0088959Y0255717D02*
X0058830Y0255717D01*
X0057709Y0254119D02*
X0069701Y0254119D01*
X0067950Y0252520D02*
X0066050Y0252520D01*
X0067389Y0246126D02*
X0068170Y0246126D01*
X0066231Y0244528D02*
X0070232Y0244528D01*
X0070153Y0242929D02*
X0113743Y0242929D01*
X0112519Y0244528D02*
X0111290Y0244528D01*
X0111750Y0252520D02*
X0112700Y0252520D01*
X0111459Y0254119D02*
X0123451Y0254119D01*
X0121700Y0252520D02*
X0119800Y0252520D01*
X0122445Y0262111D02*
X0097929Y0262111D01*
X0099432Y0260513D02*
X0143568Y0260513D01*
X0142883Y0258914D02*
X0100117Y0258914D01*
X0106050Y0254119D02*
X0106450Y0254119D01*
X0106450Y0252520D02*
X0106050Y0252520D01*
X0106050Y0250922D02*
X0106450Y0250922D01*
X0100750Y0247725D02*
X0087900Y0247725D01*
X0087389Y0246126D02*
X0100750Y0246126D01*
X0101210Y0244528D02*
X0086231Y0244528D01*
X0086050Y0252520D02*
X0091394Y0252520D01*
X0094300Y0252520D02*
X0094700Y0252520D01*
X0094700Y0254119D02*
X0094300Y0254119D01*
X0094300Y0255717D02*
X0094700Y0255717D01*
X0094700Y0257316D02*
X0148300Y0257316D01*
X0148700Y0257316D02*
X0198403Y0257316D01*
X0196725Y0258914D02*
X0154117Y0258914D01*
X0153432Y0260513D02*
X0195046Y0260513D01*
X0200082Y0255717D02*
X0154041Y0255717D01*
X0153261Y0254119D02*
X0201760Y0254119D01*
X0203439Y0252520D02*
X0194683Y0252520D01*
X0196648Y0250922D02*
X0212900Y0250922D01*
X0212900Y0249323D02*
X0206098Y0249323D01*
X0203902Y0249323D02*
X0197416Y0249323D01*
X0197650Y0247725D02*
X0201155Y0247725D01*
X0200063Y0246126D02*
X0197450Y0246126D01*
X0196731Y0244528D02*
X0199600Y0244528D01*
X0199600Y0242929D02*
X0194884Y0242929D01*
X0195239Y0241331D02*
X0198862Y0241331D01*
X0198750Y0237683D02*
X0191250Y0237683D01*
X0186254Y0239732D02*
X0184700Y0239732D01*
X0184700Y0238134D02*
X0185850Y0238134D01*
X0185881Y0236535D02*
X0184700Y0236535D01*
X0184700Y0234937D02*
X0186543Y0234937D01*
X0184700Y0233998D02*
X0183984Y0232271D01*
X0182662Y0230949D01*
X0180935Y0230233D01*
X0179065Y0230233D01*
X0177338Y0230949D01*
X0176016Y0232271D01*
X0175300Y0233998D01*
X0175300Y0241868D01*
X0176016Y0243595D01*
X0177338Y0244918D01*
X0179065Y0245633D01*
X0180935Y0245633D01*
X0182662Y0244918D01*
X0183984Y0243595D01*
X0184700Y0241868D01*
X0184700Y0233998D01*
X0184427Y0233338D02*
X0187958Y0233338D01*
X0188528Y0231740D02*
X0183453Y0231740D01*
X0187330Y0230141D02*
X0167173Y0230141D01*
X0167700Y0228543D02*
X0186818Y0228543D01*
X0186798Y0226944D02*
X0167678Y0226944D01*
X0167015Y0225345D02*
X0187268Y0225345D01*
X0188408Y0223747D02*
X0165176Y0223747D01*
X0165840Y0231740D02*
X0176547Y0231740D01*
X0175573Y0233338D02*
X0139800Y0233338D01*
X0139800Y0234937D02*
X0175300Y0234937D01*
X0175300Y0236535D02*
X0139800Y0236535D01*
X0139800Y0238134D02*
X0175300Y0238134D01*
X0175300Y0239732D02*
X0139800Y0239732D01*
X0139800Y0241331D02*
X0175300Y0241331D01*
X0175740Y0242929D02*
X0139800Y0242929D01*
X0139981Y0244528D02*
X0153759Y0244528D01*
X0154338Y0243949D02*
X0156065Y0243233D01*
X0163935Y0243233D01*
X0165662Y0243949D01*
X0166984Y0245271D01*
X0167700Y0246998D01*
X0167700Y0248868D01*
X0166984Y0250595D01*
X0165662Y0251918D01*
X0163935Y0252633D01*
X0156065Y0252633D01*
X0154338Y0251918D01*
X0153016Y0250595D01*
X0152300Y0248868D01*
X0152300Y0246998D01*
X0153016Y0245271D01*
X0154338Y0243949D01*
X0152661Y0246126D02*
X0141139Y0246126D01*
X0141650Y0247725D02*
X0152300Y0247725D01*
X0152489Y0249323D02*
X0141650Y0249323D01*
X0141064Y0250922D02*
X0153342Y0250922D01*
X0151606Y0252520D02*
X0155793Y0252520D01*
X0148700Y0252520D02*
X0148300Y0252520D01*
X0148300Y0254119D02*
X0148700Y0254119D01*
X0148700Y0255717D02*
X0148300Y0255717D01*
X0145394Y0252520D02*
X0139800Y0252520D01*
X0126336Y0234937D02*
X0125640Y0234937D01*
X0127458Y0233338D02*
X0123664Y0233338D01*
X0118059Y0231740D02*
X0134813Y0231740D01*
X0135042Y0233338D02*
X0135200Y0233338D01*
X0132897Y0230141D02*
X0116461Y0230141D01*
X0112539Y0220550D02*
X0142664Y0220550D01*
X0143904Y0222148D02*
X0141026Y0222148D01*
X0142453Y0223747D02*
X0144125Y0223747D01*
X0143195Y0225345D02*
X0143116Y0225345D01*
X0143452Y0230141D02*
X0142103Y0230141D01*
X0140187Y0231740D02*
X0144745Y0231740D01*
X0152255Y0231740D02*
X0154160Y0231740D01*
X0154824Y0223747D02*
X0152875Y0223747D01*
X0151596Y0222148D02*
X0189680Y0222148D01*
X0187945Y0220550D02*
X0152836Y0220550D01*
X0132533Y0217353D02*
X0130885Y0217353D01*
X0123132Y0218951D02*
X0111556Y0218951D01*
X0111750Y0217353D02*
X0112533Y0217353D01*
X0106450Y0214156D02*
X0106050Y0214156D01*
X0106050Y0212557D02*
X0106450Y0212557D01*
X0106450Y0210959D02*
X0106050Y0210959D01*
X0106050Y0209360D02*
X0106450Y0209360D01*
X0107594Y0206163D02*
X0084800Y0206163D01*
X0084800Y0207762D02*
X0113576Y0207762D01*
X0112686Y0209360D02*
X0111123Y0209360D01*
X0106392Y0204565D02*
X0085100Y0204565D01*
X0085100Y0202966D02*
X0105850Y0202966D01*
X0105850Y0201368D02*
X0085100Y0201368D01*
X0085100Y0199769D02*
X0106405Y0199769D01*
X0107626Y0198171D02*
X0084236Y0198171D01*
X0085841Y0196572D02*
X0103159Y0196572D01*
X0101480Y0194974D02*
X0087520Y0194974D01*
X0088219Y0193375D02*
X0100781Y0193375D01*
X0100550Y0191777D02*
X0098217Y0191777D01*
X0099533Y0190178D02*
X0100704Y0190178D01*
X0100195Y0188580D02*
X0101366Y0188580D01*
X0106050Y0183784D02*
X0106450Y0183784D01*
X0106450Y0182186D02*
X0106050Y0182186D01*
X0106050Y0180587D02*
X0106450Y0180587D01*
X0106450Y0178989D02*
X0106050Y0178989D01*
X0106050Y0177390D02*
X0106450Y0177390D01*
X0106450Y0175792D02*
X0106050Y0175792D01*
X0106050Y0174193D02*
X0106450Y0174193D01*
X0107426Y0170996D02*
X0085263Y0170996D01*
X0085385Y0169398D02*
X0106322Y0169398D01*
X0105850Y0167799D02*
X0085506Y0167799D01*
X0085627Y0166201D02*
X0105850Y0166201D01*
X0101374Y0159807D02*
X0098969Y0159807D01*
X0100712Y0158208D02*
X0097089Y0158208D01*
X0095209Y0156610D02*
X0100550Y0156610D01*
X0100773Y0155011D02*
X0093329Y0155011D01*
X0091448Y0153412D02*
X0101460Y0153412D01*
X0103110Y0151814D02*
X0098180Y0151814D01*
X0099517Y0150215D02*
X0140899Y0150215D01*
X0140843Y0150041D02*
X0140700Y0149140D01*
X0140700Y0148883D01*
X0146300Y0148883D01*
X0146300Y0148483D01*
X0140700Y0148483D01*
X0140700Y0148227D01*
X0140843Y0147325D01*
X0141125Y0146457D01*
X0141539Y0145643D01*
X0142076Y0144905D01*
X0142722Y0144259D01*
X0143354Y0143800D01*
X0143271Y0143765D01*
X0141668Y0142162D01*
X0141650Y0142119D01*
X0141650Y0143257D01*
X0140828Y0145242D01*
X0139309Y0146761D01*
X0137324Y0147583D01*
X0135176Y0147583D01*
X0133191Y0146761D01*
X0131672Y0145242D01*
X0131457Y0144723D01*
X0130828Y0146242D01*
X0129309Y0147761D01*
X0127324Y0148583D01*
X0125176Y0148583D01*
X0123191Y0147761D01*
X0121672Y0146242D01*
X0121043Y0144723D01*
X0120828Y0145242D01*
X0119309Y0146761D01*
X0117324Y0147583D01*
X0115176Y0147583D01*
X0113191Y0146761D01*
X0111750Y0145320D01*
X0111750Y0147120D01*
X0111627Y0147578D01*
X0111390Y0147988D01*
X0111055Y0148323D01*
X0110645Y0148560D01*
X0110187Y0148683D01*
X0106450Y0148683D01*
X0106450Y0143383D01*
X0106050Y0143383D01*
X0106050Y0142983D01*
X0106450Y0142983D01*
X0106450Y0137683D01*
X0110187Y0137683D01*
X0110645Y0137806D01*
X0111055Y0138043D01*
X0111390Y0138378D01*
X0111627Y0138788D01*
X0111708Y0139089D01*
X0113191Y0137605D01*
X0113950Y0137291D01*
X0113950Y0136886D01*
X0113083Y0136019D01*
X0112324Y0136333D01*
X0110176Y0136333D01*
X0108191Y0135511D01*
X0106672Y0133992D01*
X0105850Y0132007D01*
X0105850Y0129859D01*
X0106672Y0127874D01*
X0108191Y0126355D01*
X0110176Y0125533D01*
X0112324Y0125533D01*
X0114309Y0126355D01*
X0115828Y0127874D01*
X0116457Y0129393D01*
X0116672Y0128874D01*
X0118191Y0127355D01*
X0120176Y0126533D01*
X0122324Y0126533D01*
X0124309Y0127355D01*
X0125828Y0128874D01*
X0126043Y0129393D01*
X0126672Y0127874D01*
X0128191Y0126355D01*
X0130176Y0125533D01*
X0132324Y0125533D01*
X0134309Y0126355D01*
X0135200Y0127246D01*
X0135200Y0124883D01*
X0135116Y0124883D01*
X0133021Y0124015D01*
X0131418Y0122412D01*
X0130550Y0120317D01*
X0130550Y0118049D01*
X0131418Y0115954D01*
X0133021Y0114351D01*
X0135116Y0113483D01*
X0137384Y0113483D01*
X0139479Y0114351D01*
X0141082Y0115954D01*
X0141950Y0118049D01*
X0141950Y0120317D01*
X0141082Y0122412D01*
X0139800Y0123694D01*
X0139800Y0138096D01*
X0140800Y0139096D01*
X0140800Y0137799D01*
X0141668Y0135704D01*
X0143271Y0134101D01*
X0145366Y0133233D01*
X0147634Y0133233D01*
X0149729Y0134101D01*
X0151332Y0135704D01*
X0152200Y0137799D01*
X0152200Y0140067D01*
X0151332Y0142162D01*
X0149729Y0143765D01*
X0149646Y0143800D01*
X0150278Y0144259D01*
X0150924Y0144905D01*
X0151461Y0145643D01*
X0151875Y0146457D01*
X0152157Y0147325D01*
X0152300Y0148227D01*
X0152300Y0148483D01*
X0146700Y0148483D01*
X0146700Y0148883D01*
X0152300Y0148883D01*
X0152300Y0149140D01*
X0152157Y0150041D01*
X0151875Y0150909D01*
X0151461Y0151723D01*
X0150924Y0152462D01*
X0150278Y0153107D01*
X0149540Y0153644D01*
X0148726Y0154058D01*
X0147858Y0154340D01*
X0146956Y0154483D01*
X0146700Y0154483D01*
X0146700Y0148883D01*
X0146300Y0148883D01*
X0146300Y0154483D01*
X0146044Y0154483D01*
X0145142Y0154340D01*
X0144274Y0154058D01*
X0143460Y0153644D01*
X0142722Y0153107D01*
X0142076Y0152462D01*
X0141539Y0151723D01*
X0141125Y0150909D01*
X0140843Y0150041D01*
X0141606Y0151814D02*
X0139390Y0151814D01*
X0141040Y0153412D02*
X0143142Y0153412D01*
X0141727Y0155011D02*
X0153275Y0155011D01*
X0153016Y0155271D02*
X0154338Y0153949D01*
X0156065Y0153233D01*
X0163935Y0153233D01*
X0165662Y0153949D01*
X0166984Y0155271D01*
X0167700Y0156998D01*
X0167700Y0158868D01*
X0166984Y0160595D01*
X0165662Y0161918D01*
X0163935Y0162633D01*
X0156065Y0162633D01*
X0154338Y0161918D01*
X0153016Y0160595D01*
X0152300Y0158868D01*
X0152300Y0156998D01*
X0153016Y0155271D01*
X0152461Y0156610D02*
X0141950Y0156610D01*
X0141788Y0158208D02*
X0152300Y0158208D01*
X0152689Y0159807D02*
X0141126Y0159807D01*
X0139800Y0161405D02*
X0153825Y0161405D01*
X0155632Y0153412D02*
X0149858Y0153412D01*
X0151394Y0151814D02*
X0172700Y0151814D01*
X0172700Y0153412D02*
X0164368Y0153412D01*
X0166725Y0155011D02*
X0172700Y0155011D01*
X0172679Y0156610D02*
X0167539Y0156610D01*
X0167700Y0158208D02*
X0171745Y0158208D01*
X0171807Y0159807D02*
X0167311Y0159807D01*
X0166175Y0161405D02*
X0172827Y0161405D01*
X0175300Y0164602D02*
X0139800Y0164602D01*
X0139800Y0163004D02*
X0175712Y0163004D01*
X0175300Y0166201D02*
X0139800Y0166201D01*
X0139800Y0167799D02*
X0175300Y0167799D01*
X0175300Y0169398D02*
X0139800Y0169398D01*
X0139800Y0170996D02*
X0175300Y0170996D01*
X0175601Y0172595D02*
X0139800Y0172595D01*
X0139800Y0174193D02*
X0142929Y0174193D01*
X0141528Y0175792D02*
X0141001Y0175792D01*
X0140134Y0182186D02*
X0141942Y0182186D01*
X0143696Y0183784D02*
X0137442Y0183784D01*
X0135058Y0183784D02*
X0129536Y0183784D01*
X0130955Y0182186D02*
X0132366Y0182186D01*
X0132891Y0186981D02*
X0109609Y0186981D01*
X0111134Y0188580D02*
X0131366Y0188580D01*
X0130704Y0190178D02*
X0111796Y0190178D01*
X0111950Y0191777D02*
X0130550Y0191777D01*
X0130781Y0193375D02*
X0111719Y0193375D01*
X0111020Y0194974D02*
X0131480Y0194974D01*
X0133159Y0196572D02*
X0109341Y0196572D01*
X0114874Y0198171D02*
X0119240Y0198171D01*
X0117027Y0199769D02*
X0116095Y0199769D01*
X0123260Y0198171D02*
X0127626Y0198171D01*
X0126405Y0199769D02*
X0125473Y0199769D01*
X0134874Y0198171D02*
X0135200Y0198171D01*
X0122964Y0183784D02*
X0117442Y0183784D01*
X0115058Y0183784D02*
X0111639Y0183784D01*
X0111750Y0182186D02*
X0112366Y0182186D01*
X0120134Y0182186D02*
X0121545Y0182186D01*
X0112853Y0174193D02*
X0110883Y0174193D01*
X0113409Y0172595D02*
X0097708Y0172595D01*
X0099315Y0174193D02*
X0101617Y0174193D01*
X0100750Y0175792D02*
X0100065Y0175792D01*
X0094700Y0175792D02*
X0094300Y0175792D01*
X0094300Y0174193D02*
X0094700Y0174193D01*
X0094700Y0172595D02*
X0094300Y0172595D01*
X0091292Y0172595D02*
X0085142Y0172595D01*
X0085897Y0174193D02*
X0089685Y0174193D01*
X0088935Y0175792D02*
X0087251Y0175792D01*
X0089180Y0185383D02*
X0020244Y0185383D01*
X0020400Y0183784D02*
X0047111Y0183784D01*
X0047123Y0183828D02*
X0047000Y0183370D01*
X0047000Y0179633D01*
X0052300Y0179633D01*
X0052300Y0184933D01*
X0048563Y0184933D01*
X0048105Y0184810D01*
X0047695Y0184573D01*
X0047360Y0184238D01*
X0047123Y0183828D01*
X0047000Y0182186D02*
X0020121Y0182186D01*
X0019291Y0180587D02*
X0047000Y0180587D01*
X0047000Y0179233D02*
X0047000Y0175496D01*
X0047123Y0175038D01*
X0047360Y0174628D01*
X0047695Y0174293D01*
X0048105Y0174056D01*
X0048563Y0173933D01*
X0052300Y0173933D01*
X0052300Y0179233D01*
X0047000Y0179233D01*
X0047000Y0178989D02*
X0017174Y0178989D01*
X0019180Y0177390D02*
X0047000Y0177390D01*
X0047000Y0175792D02*
X0044649Y0175792D01*
X0046247Y0174193D02*
X0047867Y0174193D01*
X0047846Y0172595D02*
X0059659Y0172595D01*
X0059103Y0174193D02*
X0057133Y0174193D01*
X0053676Y0170996D02*
X0049444Y0170996D01*
X0051043Y0169398D02*
X0052572Y0169398D01*
X0052700Y0174193D02*
X0052300Y0174193D01*
X0052300Y0175792D02*
X0052700Y0175792D01*
X0052700Y0177390D02*
X0052300Y0177390D01*
X0052300Y0178989D02*
X0052700Y0178989D01*
X0052700Y0180587D02*
X0052300Y0180587D01*
X0052300Y0182186D02*
X0052700Y0182186D01*
X0052700Y0183784D02*
X0052300Y0183784D01*
X0049391Y0186981D02*
X0019582Y0186981D01*
X0017893Y0188580D02*
X0047866Y0188580D01*
X0047204Y0190178D02*
X0018882Y0190178D01*
X0019952Y0191777D02*
X0047050Y0191777D01*
X0047281Y0193375D02*
X0020400Y0193375D01*
X0020400Y0194974D02*
X0047980Y0194974D01*
X0049659Y0196572D02*
X0019752Y0196572D01*
X0011601Y0198171D02*
X0007100Y0198171D01*
X0007100Y0199769D02*
X0011527Y0199769D01*
X0010218Y0201368D02*
X0007100Y0201368D01*
X0007100Y0202966D02*
X0009600Y0202966D01*
X0009600Y0204565D02*
X0007100Y0204565D01*
X0007100Y0206163D02*
X0010079Y0206163D01*
X0011192Y0207762D02*
X0007100Y0207762D01*
X0007100Y0209360D02*
X0011936Y0209360D01*
X0010387Y0210959D02*
X0007100Y0210959D01*
X0007100Y0212557D02*
X0009725Y0212557D01*
X0009600Y0214156D02*
X0007100Y0214156D01*
X0007100Y0215754D02*
X0009910Y0215754D01*
X0010783Y0217353D02*
X0007100Y0217353D01*
X0007100Y0218951D02*
X0012916Y0218951D01*
X0010746Y0220550D02*
X0007100Y0220550D01*
X0007100Y0222148D02*
X0009894Y0222148D01*
X0009600Y0223747D02*
X0007100Y0223747D01*
X0007100Y0225345D02*
X0009740Y0225345D01*
X0010402Y0226944D02*
X0007100Y0226944D01*
X0007100Y0228543D02*
X0012017Y0228543D01*
X0011155Y0230141D02*
X0007100Y0230141D01*
X0007100Y0231740D02*
X0010064Y0231740D01*
X0009600Y0233338D02*
X0007100Y0233338D01*
X0007100Y0234937D02*
X0009600Y0234937D01*
X0010233Y0236535D02*
X0007100Y0236535D01*
X0007100Y0238134D02*
X0011564Y0238134D01*
X0011564Y0239732D02*
X0007100Y0239732D01*
X0007100Y0241331D02*
X0010233Y0241331D01*
X0009600Y0242929D02*
X0007100Y0242929D01*
X0007100Y0244528D02*
X0009600Y0244528D01*
X0010063Y0246126D02*
X0007100Y0246126D01*
X0007100Y0247725D02*
X0011155Y0247725D01*
X0008496Y0249323D02*
X0013902Y0249323D01*
X0016098Y0249323D02*
X0024713Y0249323D01*
X0024338Y0249168D02*
X0026065Y0249883D01*
X0033935Y0249883D01*
X0035662Y0249168D01*
X0036984Y0247845D01*
X0037700Y0246118D01*
X0037700Y0244248D01*
X0036984Y0242521D01*
X0035662Y0241199D01*
X0033935Y0240483D01*
X0026065Y0240483D01*
X0024338Y0241199D01*
X0023016Y0242521D01*
X0022300Y0244248D01*
X0022300Y0246118D01*
X0023016Y0247845D01*
X0024338Y0249168D01*
X0022966Y0247725D02*
X0018845Y0247725D01*
X0019937Y0246126D02*
X0022303Y0246126D01*
X0022300Y0244528D02*
X0020400Y0244528D01*
X0020400Y0242929D02*
X0022846Y0242929D01*
X0024206Y0241331D02*
X0019767Y0241331D01*
X0018436Y0239732D02*
X0052711Y0239732D01*
X0052100Y0238134D02*
X0035696Y0238134D01*
X0037113Y0236535D02*
X0052100Y0236535D01*
X0054011Y0241331D02*
X0035794Y0241331D01*
X0037154Y0242929D02*
X0059993Y0242929D01*
X0058769Y0244528D02*
X0057540Y0244528D01*
X0052700Y0244528D02*
X0052300Y0244528D01*
X0052300Y0243933D02*
X0052300Y0249233D01*
X0047000Y0249233D01*
X0047000Y0245496D01*
X0047123Y0245038D01*
X0047360Y0244628D01*
X0047695Y0244293D01*
X0048105Y0244056D01*
X0048563Y0243933D01*
X0052300Y0243933D01*
X0052300Y0246126D02*
X0052700Y0246126D01*
X0052700Y0247725D02*
X0052300Y0247725D01*
X0052300Y0249323D02*
X0035287Y0249323D01*
X0037034Y0247725D02*
X0047000Y0247725D01*
X0047000Y0246126D02*
X0037697Y0246126D01*
X0037700Y0244528D02*
X0047460Y0244528D01*
X0047000Y0250922D02*
X0010208Y0250922D01*
X0011921Y0252520D02*
X0047000Y0252520D01*
X0058000Y0252520D02*
X0058950Y0252520D01*
X0060522Y0257316D02*
X0094300Y0257316D01*
X0088883Y0258914D02*
X0062215Y0258914D01*
X0063907Y0260513D02*
X0089568Y0260513D01*
X0091071Y0262111D02*
X0065600Y0262111D01*
X0064847Y0242929D02*
X0064800Y0242929D01*
X0085437Y0231740D02*
X0090745Y0231740D01*
X0089452Y0230141D02*
X0087353Y0230141D01*
X0088149Y0228543D02*
X0088800Y0228543D01*
X0088800Y0226944D02*
X0088450Y0226944D01*
X0088366Y0225345D02*
X0089195Y0225345D01*
X0090125Y0223747D02*
X0087703Y0223747D01*
X0086643Y0222148D02*
X0091123Y0222148D01*
X0089595Y0220550D02*
X0087810Y0220550D01*
X0088717Y0218951D02*
X0088895Y0218951D01*
X0087964Y0210959D02*
X0087320Y0210959D01*
X0086064Y0209360D02*
X0088872Y0209360D01*
X0080200Y0207762D02*
X0070557Y0207762D01*
X0070636Y0209360D02*
X0066064Y0209360D01*
X0067320Y0210959D02*
X0068337Y0210959D01*
X0064443Y0207762D02*
X0018808Y0207762D01*
X0010248Y0196572D02*
X0007100Y0196572D01*
X0007100Y0194974D02*
X0009600Y0194974D01*
X0009600Y0193375D02*
X0007100Y0193375D01*
X0007100Y0191777D02*
X0010048Y0191777D01*
X0011118Y0190178D02*
X0007100Y0190178D01*
X0007100Y0188580D02*
X0012107Y0188580D01*
X0010418Y0186981D02*
X0007100Y0186981D01*
X0007100Y0185383D02*
X0009756Y0185383D01*
X0009600Y0183784D02*
X0007100Y0183784D01*
X0007100Y0182186D02*
X0009879Y0182186D01*
X0010709Y0180587D02*
X0007100Y0180587D01*
X0007100Y0178989D02*
X0012826Y0178989D01*
X0010820Y0177390D02*
X0007100Y0177390D01*
X0007100Y0175792D02*
X0009925Y0175792D01*
X0009600Y0174193D02*
X0007100Y0174193D01*
X0007100Y0172595D02*
X0009709Y0172595D01*
X0010372Y0170996D02*
X0007100Y0170996D01*
X0007100Y0169398D02*
X0011899Y0169398D01*
X0007100Y0167799D02*
X0046136Y0167799D01*
X0047734Y0166201D02*
X0007100Y0166201D01*
X0007100Y0164602D02*
X0049333Y0164602D01*
X0050931Y0163004D02*
X0018566Y0163004D01*
X0019821Y0161405D02*
X0049962Y0161405D01*
X0047812Y0159807D02*
X0020400Y0159807D01*
X0020400Y0158208D02*
X0046919Y0158208D01*
X0046550Y0156610D02*
X0019882Y0156610D01*
X0018715Y0155011D02*
X0046566Y0155011D01*
X0047228Y0153412D02*
X0018157Y0153412D01*
X0019652Y0151814D02*
X0048558Y0151814D01*
X0048563Y0148683D02*
X0048105Y0148560D01*
X0047695Y0148323D01*
X0047360Y0147988D01*
X0047123Y0147578D01*
X0047000Y0147120D01*
X0047000Y0143383D01*
X0052300Y0143383D01*
X0052300Y0148683D01*
X0048563Y0148683D01*
X0048316Y0148617D02*
X0020400Y0148617D01*
X0020314Y0150215D02*
X0063720Y0150215D01*
X0065318Y0148617D02*
X0056684Y0148617D01*
X0058000Y0147018D02*
X0060063Y0147018D01*
X0058100Y0145420D02*
X0058000Y0145420D01*
X0052700Y0145420D02*
X0052300Y0145420D01*
X0052300Y0147018D02*
X0052700Y0147018D01*
X0052700Y0148617D02*
X0052300Y0148617D01*
X0052300Y0143821D02*
X0052700Y0143821D01*
X0052300Y0142983D02*
X0047000Y0142983D01*
X0047000Y0139246D01*
X0047123Y0138788D01*
X0047360Y0138378D01*
X0047695Y0138043D01*
X0048105Y0137806D01*
X0048563Y0137683D01*
X0052300Y0137683D01*
X0052300Y0142983D01*
X0052300Y0142223D02*
X0052700Y0142223D01*
X0052700Y0140624D02*
X0052300Y0140624D01*
X0052300Y0139026D02*
X0052700Y0139026D01*
X0052749Y0135829D02*
X0055209Y0135829D01*
X0057688Y0137427D02*
X0039320Y0137427D01*
X0038643Y0135829D02*
X0047251Y0135829D01*
X0046674Y0134230D02*
X0037967Y0134230D01*
X0037291Y0132632D02*
X0045562Y0132632D01*
X0044718Y0131419D02*
X0044718Y0131419D01*
X0044450Y0131033D02*
X0036614Y0131033D01*
X0035938Y0129435D02*
X0043338Y0129435D01*
X0042226Y0127836D02*
X0035004Y0127836D01*
X0033406Y0126238D02*
X0041114Y0126238D01*
X0046769Y0129289D02*
X0059500Y0123433D01*
X0063500Y0121933D01*
X0072500Y0106933D01*
X0074737Y0111851D02*
X0090216Y0111851D01*
X0090472Y0112107D02*
X0089826Y0111462D01*
X0089289Y0110723D01*
X0088875Y0109909D01*
X0088593Y0109041D01*
X0088450Y0108140D01*
X0088450Y0107883D01*
X0094050Y0107883D01*
X0094050Y0107483D01*
X0094450Y0107483D01*
X0094450Y0101883D01*
X0094700Y0101883D01*
X0094700Y0098883D01*
X0100300Y0098883D01*
X0100300Y0099140D01*
X0100157Y0100041D01*
X0099875Y0100909D01*
X0099461Y0101723D01*
X0098924Y0102462D01*
X0098278Y0103107D01*
X0098046Y0103276D01*
X0098674Y0103905D01*
X0099211Y0104643D01*
X0099625Y0105457D01*
X0100750Y0105457D01*
X0099625Y0105457D02*
X0099907Y0106325D01*
X0100050Y0107227D01*
X0100050Y0107483D01*
X0094450Y0107483D01*
X0094450Y0107883D01*
X0100050Y0107883D01*
X0100050Y0108140D01*
X0099907Y0109041D01*
X0099625Y0109909D01*
X0099211Y0110723D01*
X0098674Y0111462D01*
X0098028Y0112107D01*
X0097290Y0112644D01*
X0096476Y0113058D01*
X0095608Y0113340D01*
X0094706Y0113483D01*
X0094450Y0113483D01*
X0094450Y0107883D01*
X0094050Y0107883D01*
X0094050Y0113483D01*
X0093794Y0113483D01*
X0092892Y0113340D01*
X0092024Y0113058D01*
X0091210Y0112644D01*
X0090472Y0112107D01*
X0089050Y0110253D02*
X0085817Y0110253D01*
X0087218Y0108654D02*
X0088532Y0108654D01*
X0088450Y0107483D02*
X0088450Y0107227D01*
X0088593Y0106325D01*
X0088875Y0105457D01*
X0087900Y0105457D01*
X0088875Y0105457D02*
X0089289Y0104643D01*
X0089826Y0103905D01*
X0090472Y0103259D01*
X0090704Y0103090D01*
X0090076Y0102462D01*
X0089539Y0101723D01*
X0089125Y0100909D01*
X0088843Y0100041D01*
X0088700Y0099140D01*
X0088700Y0098883D01*
X0094300Y0098883D01*
X0094300Y0098483D01*
X0094700Y0098483D01*
X0094700Y0092883D01*
X0094956Y0092883D01*
X0095858Y0093026D01*
X0096726Y0093308D01*
X0097540Y0093722D01*
X0098278Y0094259D01*
X0098924Y0094905D01*
X0099461Y0095643D01*
X0099875Y0096457D01*
X0100157Y0097325D01*
X0100300Y0098227D01*
X0100300Y0098483D01*
X0094700Y0098483D01*
X0094700Y0098883D01*
X0094300Y0098883D01*
X0094300Y0104483D01*
X0094050Y0104483D01*
X0094050Y0107483D01*
X0088450Y0107483D01*
X0088477Y0107056D02*
X0087880Y0107056D01*
X0087486Y0103859D02*
X0089872Y0103859D01*
X0089930Y0102260D02*
X0086464Y0102260D01*
X0084800Y0100662D02*
X0089044Y0100662D01*
X0088700Y0099063D02*
X0085623Y0099063D01*
X0087221Y0097465D02*
X0088821Y0097465D01*
X0088843Y0097325D02*
X0089125Y0096457D01*
X0089539Y0095643D01*
X0090076Y0094905D01*
X0090722Y0094259D01*
X0091460Y0093722D01*
X0092274Y0093308D01*
X0093142Y0093026D01*
X0094044Y0092883D01*
X0094300Y0092883D01*
X0094300Y0098483D01*
X0088700Y0098483D01*
X0088700Y0098227D01*
X0088843Y0097325D01*
X0089426Y0095866D02*
X0087300Y0095866D01*
X0087300Y0094268D02*
X0090713Y0094268D01*
X0094300Y0094268D02*
X0094700Y0094268D01*
X0094700Y0095866D02*
X0094300Y0095866D01*
X0094300Y0097465D02*
X0094700Y0097465D01*
X0094700Y0099063D02*
X0094300Y0099063D01*
X0094300Y0100662D02*
X0094700Y0100662D01*
X0094450Y0102260D02*
X0094300Y0102260D01*
X0094300Y0103859D02*
X0094450Y0103859D01*
X0094450Y0105457D02*
X0094050Y0105457D01*
X0094050Y0107056D02*
X0094450Y0107056D01*
X0094450Y0108654D02*
X0094050Y0108654D01*
X0094050Y0110253D02*
X0094450Y0110253D01*
X0094450Y0111851D02*
X0094050Y0111851D01*
X0094050Y0113450D02*
X0094450Y0113450D01*
X0094917Y0113450D02*
X0142849Y0113450D01*
X0142722Y0113357D02*
X0142076Y0112712D01*
X0141539Y0111973D01*
X0141125Y0111159D01*
X0140843Y0110291D01*
X0140700Y0109390D01*
X0140700Y0109133D01*
X0146300Y0109133D01*
X0146300Y0114733D01*
X0146044Y0114733D01*
X0145142Y0114590D01*
X0144274Y0114308D01*
X0143460Y0113894D01*
X0142722Y0113357D01*
X0141477Y0111851D02*
X0128487Y0111851D01*
X0130567Y0110253D02*
X0132933Y0110253D01*
X0131532Y0108654D02*
X0131382Y0108654D01*
X0132324Y0115048D02*
X0110176Y0115048D01*
X0109479Y0114351D02*
X0111082Y0115954D01*
X0111950Y0118049D01*
X0111950Y0120317D01*
X0111082Y0122412D01*
X0109479Y0124015D01*
X0107384Y0124883D01*
X0105116Y0124883D01*
X0103021Y0124015D01*
X0101418Y0122412D01*
X0100550Y0120317D01*
X0100550Y0118049D01*
X0101418Y0115954D01*
X0103021Y0114351D01*
X0105116Y0113483D01*
X0107384Y0113483D01*
X0109479Y0114351D01*
X0111369Y0116647D02*
X0131131Y0116647D01*
X0130550Y0118245D02*
X0111950Y0118245D01*
X0111950Y0119844D02*
X0130550Y0119844D01*
X0131016Y0121442D02*
X0111484Y0121442D01*
X0110453Y0123041D02*
X0132047Y0123041D01*
X0134528Y0124639D02*
X0107972Y0124639D01*
X0108474Y0126238D02*
X0080275Y0126238D01*
X0081028Y0124639D02*
X0063403Y0124639D01*
X0065751Y0123041D02*
X0078547Y0123041D01*
X0077918Y0122412D02*
X0079521Y0124015D01*
X0081616Y0124883D01*
X0083884Y0124883D01*
X0085979Y0124015D01*
X0087582Y0122412D01*
X0088450Y0120317D01*
X0088450Y0118049D01*
X0087582Y0115954D01*
X0085979Y0114351D01*
X0083884Y0113483D01*
X0081616Y0113483D01*
X0079521Y0114351D01*
X0077918Y0115954D01*
X0077050Y0118049D01*
X0077050Y0120317D01*
X0077918Y0122412D01*
X0077516Y0121442D02*
X0066710Y0121442D01*
X0067669Y0119844D02*
X0077050Y0119844D01*
X0077050Y0118245D02*
X0068628Y0118245D01*
X0069587Y0116647D02*
X0077631Y0116647D01*
X0078824Y0115048D02*
X0070546Y0115048D01*
X0071505Y0113450D02*
X0093583Y0113450D01*
X0098284Y0111851D02*
X0101223Y0111851D01*
X0101110Y0111738D02*
X0101445Y0112073D01*
X0101855Y0112310D01*
X0102313Y0112433D01*
X0106050Y0112433D01*
X0106050Y0107133D01*
X0100750Y0107133D01*
X0100750Y0110870D01*
X0100873Y0111328D01*
X0101110Y0111738D01*
X0100750Y0110253D02*
X0099450Y0110253D01*
X0099968Y0108654D02*
X0100750Y0108654D01*
X0100023Y0107056D02*
X0106050Y0107056D01*
X0106050Y0106733D02*
X0100750Y0106733D01*
X0100750Y0102996D01*
X0100873Y0102538D01*
X0101110Y0102128D01*
X0101445Y0101793D01*
X0101855Y0101556D01*
X0102313Y0101433D01*
X0106050Y0101433D01*
X0106050Y0106733D01*
X0106050Y0105457D02*
X0106450Y0105457D01*
X0106450Y0103859D02*
X0106050Y0103859D01*
X0106050Y0102260D02*
X0106450Y0102260D01*
X0107993Y0099063D02*
X0100300Y0099063D01*
X0100179Y0097465D02*
X0106557Y0097465D01*
X0105895Y0095866D02*
X0099574Y0095866D01*
X0098287Y0094268D02*
X0105850Y0094268D01*
X0106239Y0092669D02*
X0086989Y0092669D01*
X0085953Y0091633D02*
X0085953Y0091633D01*
X0085390Y0091071D02*
X0107226Y0091071D01*
X0109720Y0089472D02*
X0083792Y0089472D01*
X0085717Y0087874D02*
X0103283Y0087874D01*
X0101531Y0086275D02*
X0087469Y0086275D01*
X0088197Y0084677D02*
X0100803Y0084677D01*
X0100550Y0083078D02*
X0088450Y0083078D01*
X0088318Y0081479D02*
X0100682Y0081479D01*
X0101345Y0079881D02*
X0087655Y0079881D01*
X0084410Y0073487D02*
X0091243Y0073487D01*
X0089658Y0071888D02*
X0086681Y0071888D01*
X0087576Y0070290D02*
X0088996Y0070290D01*
X0088800Y0068691D02*
X0087900Y0068691D01*
X0087790Y0067093D02*
X0088989Y0067093D01*
X0089651Y0065494D02*
X0087128Y0065494D01*
X0086072Y0063896D02*
X0091226Y0063896D01*
X0086493Y0062297D02*
X0109486Y0062297D01*
X0107129Y0060699D02*
X0086914Y0060699D01*
X0087334Y0059100D02*
X0106199Y0059100D01*
X0105850Y0057502D02*
X0087300Y0057502D01*
X0087300Y0055903D02*
X0105935Y0055903D01*
X0106597Y0054305D02*
X0087300Y0054305D01*
X0087300Y0052706D02*
X0108090Y0052706D01*
X0108134Y0051383D02*
X0105866Y0051383D01*
X0103771Y0050515D01*
X0102168Y0048912D01*
X0101300Y0046817D01*
X0101300Y0044549D01*
X0102168Y0042454D01*
X0103771Y0040851D01*
X0105866Y0039983D01*
X0108134Y0039983D01*
X0110229Y0040851D01*
X0111832Y0042454D01*
X0112700Y0044549D01*
X0112700Y0046817D01*
X0111832Y0048912D01*
X0110229Y0050515D01*
X0108134Y0051383D01*
X0108798Y0051108D02*
X0134700Y0051108D01*
X0134700Y0052706D02*
X0134410Y0052706D01*
X0132765Y0049509D02*
X0111235Y0049509D01*
X0112247Y0047911D02*
X0131753Y0047911D01*
X0131300Y0046312D02*
X0112700Y0046312D01*
X0112700Y0044714D02*
X0131300Y0044714D01*
X0131894Y0043115D02*
X0112106Y0043115D01*
X0110895Y0041517D02*
X0133105Y0041517D01*
X0140895Y0041517D02*
X0145090Y0041517D01*
X0144800Y0040817D02*
X0144800Y0038549D01*
X0145668Y0036454D01*
X0147271Y0034851D01*
X0149366Y0033983D01*
X0151634Y0033983D01*
X0153729Y0034851D01*
X0155332Y0036454D01*
X0156200Y0038549D01*
X0156200Y0040817D01*
X0155332Y0042912D01*
X0153729Y0044515D01*
X0151634Y0045383D01*
X0149366Y0045383D01*
X0147271Y0044515D01*
X0145668Y0042912D01*
X0144800Y0040817D01*
X0144800Y0039918D02*
X0091756Y0039918D01*
X0093145Y0041517D02*
X0103105Y0041517D01*
X0101894Y0043115D02*
X0094649Y0043115D01*
X0095311Y0044714D02*
X0101300Y0044714D01*
X0101300Y0046312D02*
X0095450Y0046312D01*
X0095204Y0047911D02*
X0101753Y0047911D01*
X0102765Y0049509D02*
X0094485Y0049509D01*
X0092756Y0051108D02*
X0105202Y0051108D01*
X0114410Y0052706D02*
X0128090Y0052706D01*
X0126597Y0054305D02*
X0125008Y0054305D01*
X0117492Y0054305D02*
X0115903Y0054305D01*
X0113112Y0062297D02*
X0113014Y0062297D01*
X0113150Y0063896D02*
X0097774Y0063896D01*
X0099349Y0065494D02*
X0100750Y0065494D01*
X0100750Y0065496D02*
X0100873Y0065038D01*
X0101110Y0064628D01*
X0101445Y0064293D01*
X0101855Y0064056D01*
X0102313Y0063933D01*
X0106050Y0063933D01*
X0106050Y0069233D01*
X0100750Y0069233D01*
X0100750Y0065496D01*
X0100750Y0067093D02*
X0100011Y0067093D01*
X0100200Y0068691D02*
X0100750Y0068691D01*
X0100750Y0070290D02*
X0100004Y0070290D01*
X0099342Y0071888D02*
X0100750Y0071888D01*
X0100781Y0073487D02*
X0097757Y0073487D01*
X0106050Y0068691D02*
X0106450Y0068691D01*
X0106450Y0067093D02*
X0106050Y0067093D01*
X0106050Y0065494D02*
X0106450Y0065494D01*
X0111750Y0071888D02*
X0112069Y0071888D01*
X0111719Y0073487D02*
X0114340Y0073487D01*
X0118160Y0073487D02*
X0122667Y0073487D01*
X0123155Y0075085D02*
X0152804Y0075085D01*
X0153016Y0075595D02*
X0152300Y0073868D01*
X0152300Y0071998D01*
X0153016Y0070271D01*
X0154338Y0068949D01*
X0156065Y0068233D01*
X0163935Y0068233D01*
X0165662Y0068949D01*
X0166984Y0070271D01*
X0167700Y0071998D01*
X0167700Y0073868D01*
X0166984Y0075595D01*
X0165662Y0076918D01*
X0163935Y0077633D01*
X0156065Y0077633D01*
X0154338Y0076918D01*
X0153016Y0075595D01*
X0154104Y0076684D02*
X0123550Y0076684D01*
X0123550Y0078282D02*
X0132840Y0078282D01*
X0131345Y0079881D02*
X0123550Y0079881D01*
X0123550Y0081479D02*
X0130682Y0081479D01*
X0130550Y0083078D02*
X0123550Y0083078D01*
X0123550Y0084677D02*
X0130803Y0084677D01*
X0131531Y0086275D02*
X0123550Y0086275D01*
X0123550Y0087874D02*
X0133283Y0087874D01*
X0132780Y0089472D02*
X0135200Y0089472D01*
X0139800Y0089472D02*
X0152550Y0089472D01*
X0152300Y0088868D02*
X0152300Y0086998D01*
X0153016Y0085271D01*
X0154338Y0083949D01*
X0156065Y0083233D01*
X0163935Y0083233D01*
X0165662Y0083949D01*
X0166984Y0085271D01*
X0167700Y0086998D01*
X0167700Y0088868D01*
X0166984Y0090595D01*
X0165662Y0091918D01*
X0163935Y0092633D01*
X0156065Y0092633D01*
X0154338Y0091918D01*
X0153016Y0090595D01*
X0152300Y0088868D01*
X0152300Y0087874D02*
X0139800Y0087874D01*
X0140969Y0086275D02*
X0152600Y0086275D01*
X0153610Y0084677D02*
X0141697Y0084677D01*
X0141950Y0083078D02*
X0188981Y0083078D01*
X0189117Y0082979D02*
X0189889Y0082586D01*
X0190712Y0082319D01*
X0191567Y0082183D01*
X0191800Y0082183D01*
X0191800Y0087483D01*
X0186500Y0087483D01*
X0186500Y0087250D01*
X0186635Y0086395D01*
X0186903Y0085572D01*
X0187296Y0084800D01*
X0187805Y0084100D01*
X0188417Y0083488D01*
X0189117Y0082979D01*
X0187386Y0084677D02*
X0166390Y0084677D01*
X0167400Y0086275D02*
X0186674Y0086275D01*
X0186798Y0089472D02*
X0167450Y0089472D01*
X0167700Y0087874D02*
X0191800Y0087874D01*
X0191800Y0086275D02*
X0192200Y0086275D01*
X0192200Y0084677D02*
X0191800Y0084677D01*
X0191800Y0083078D02*
X0192200Y0083078D01*
X0195019Y0083078D02*
X0197708Y0083078D01*
X0196640Y0084677D02*
X0196614Y0084677D01*
X0198484Y0080538D02*
X0197873Y0080094D01*
X0197339Y0079560D01*
X0196895Y0078949D01*
X0196552Y0078276D01*
X0196318Y0077557D01*
X0196200Y0076811D01*
X0196200Y0076633D01*
X0203800Y0076633D01*
X0203800Y0076233D01*
X0204200Y0076233D01*
X0204200Y0071633D01*
X0207378Y0071633D01*
X0208124Y0071751D01*
X0208843Y0071985D01*
X0209516Y0072328D01*
X0210127Y0072772D01*
X0210661Y0073306D01*
X0211105Y0073917D01*
X0211448Y0074591D01*
X0211682Y0075309D01*
X0211800Y0076055D01*
X0211800Y0076233D01*
X0204200Y0076233D01*
X0204200Y0076633D01*
X0211800Y0076633D01*
X0211800Y0076811D01*
X0211682Y0077557D01*
X0211448Y0078276D01*
X0211105Y0078949D01*
X0210661Y0079560D01*
X0210127Y0080094D01*
X0209516Y0080538D01*
X0208843Y0080881D01*
X0208124Y0081115D01*
X0207378Y0081233D01*
X0204200Y0081233D01*
X0204200Y0076633D01*
X0203800Y0076633D01*
X0203800Y0081233D01*
X0200622Y0081233D01*
X0199876Y0081115D01*
X0199157Y0080881D01*
X0198484Y0080538D01*
X0197660Y0079881D02*
X0141155Y0079881D01*
X0141818Y0081479D02*
X0212900Y0081479D01*
X0212900Y0079881D02*
X0210340Y0079881D01*
X0211445Y0078282D02*
X0212900Y0078282D01*
X0212900Y0076684D02*
X0211800Y0076684D01*
X0211609Y0075085D02*
X0212900Y0075085D01*
X0212900Y0073487D02*
X0210793Y0073487D01*
X0212900Y0071888D02*
X0208546Y0071888D01*
X0204200Y0071888D02*
X0203800Y0071888D01*
X0203800Y0071633D02*
X0200622Y0071633D01*
X0199876Y0071751D01*
X0199157Y0071985D01*
X0198484Y0072328D01*
X0197873Y0072772D01*
X0197400Y0073245D01*
X0197400Y0071359D01*
X0196578Y0069374D01*
X0195059Y0067855D01*
X0193540Y0067226D01*
X0194059Y0067011D01*
X0195578Y0065492D01*
X0196400Y0063507D01*
X0196400Y0061359D01*
X0195578Y0059374D01*
X0194059Y0057855D01*
X0193642Y0057683D01*
X0194111Y0057530D01*
X0194883Y0057137D01*
X0195583Y0056628D01*
X0196195Y0056016D01*
X0196704Y0055316D01*
X0197097Y0054544D01*
X0197365Y0053721D01*
X0197500Y0052866D01*
X0197500Y0052633D01*
X0192200Y0052633D01*
X0192200Y0052233D01*
X0192200Y0046933D01*
X0192433Y0046933D01*
X0193288Y0047069D01*
X0194111Y0047336D01*
X0194883Y0047729D01*
X0195583Y0048238D01*
X0196195Y0048850D01*
X0196704Y0049550D01*
X0197097Y0050322D01*
X0197365Y0051145D01*
X0197500Y0052000D01*
X0197500Y0052233D01*
X0192200Y0052233D01*
X0191800Y0052233D01*
X0191800Y0046933D01*
X0191567Y0046933D01*
X0190712Y0047069D01*
X0189889Y0047336D01*
X0189117Y0047729D01*
X0188417Y0048238D01*
X0187805Y0048850D01*
X0187296Y0049550D01*
X0186903Y0050322D01*
X0186635Y0051145D01*
X0186500Y0052000D01*
X0186500Y0052233D01*
X0191800Y0052233D01*
X0191800Y0052633D01*
X0186500Y0052633D01*
X0186500Y0052866D01*
X0186635Y0053721D01*
X0186903Y0054544D01*
X0187296Y0055316D01*
X0187805Y0056016D01*
X0188417Y0056628D01*
X0189117Y0057137D01*
X0189367Y0057264D01*
X0187941Y0057855D01*
X0186422Y0059374D01*
X0185600Y0061359D01*
X0185600Y0063507D01*
X0186422Y0065492D01*
X0187941Y0067011D01*
X0189460Y0067640D01*
X0188941Y0067855D01*
X0187422Y0069374D01*
X0186600Y0071359D01*
X0186600Y0073507D01*
X0187422Y0075492D01*
X0188941Y0077011D01*
X0190926Y0077833D01*
X0193074Y0077833D01*
X0195059Y0077011D01*
X0196235Y0075835D01*
X0196200Y0076055D01*
X0196200Y0076233D01*
X0203800Y0076233D01*
X0203800Y0071633D01*
X0203800Y0073487D02*
X0204200Y0073487D01*
X0204200Y0075085D02*
X0203800Y0075085D01*
X0203800Y0076684D02*
X0204200Y0076684D01*
X0204200Y0078282D02*
X0203800Y0078282D01*
X0203800Y0079881D02*
X0204200Y0079881D01*
X0210292Y0083078D02*
X0212900Y0083078D01*
X0212900Y0084677D02*
X0211360Y0084677D01*
X0211700Y0086275D02*
X0212900Y0086275D01*
X0212900Y0087874D02*
X0211491Y0087874D01*
X0210608Y0089472D02*
X0212900Y0089472D01*
X0212900Y0091071D02*
X0208086Y0091071D01*
X0212900Y0092669D02*
X0194329Y0092669D01*
X0195221Y0094268D02*
X0212900Y0094268D01*
X0212900Y0095866D02*
X0196092Y0095866D01*
X0196400Y0097465D02*
X0212900Y0097465D01*
X0212900Y0099063D02*
X0207354Y0099063D01*
X0209365Y0100662D02*
X0212900Y0100662D01*
X0212900Y0102260D02*
X0210152Y0102260D01*
X0210400Y0103859D02*
X0212900Y0103859D01*
X0212900Y0105457D02*
X0210214Y0105457D01*
X0209514Y0107056D02*
X0212900Y0107056D01*
X0212900Y0108654D02*
X0207713Y0108654D01*
X0208956Y0110253D02*
X0212900Y0110253D01*
X0212900Y0111851D02*
X0209983Y0111851D01*
X0210400Y0113450D02*
X0212900Y0113450D01*
X0212900Y0115048D02*
X0210383Y0115048D01*
X0209721Y0116647D02*
X0212900Y0116647D01*
X0212900Y0118245D02*
X0208325Y0118245D01*
X0208547Y0119844D02*
X0212900Y0119844D01*
X0212900Y0121442D02*
X0209813Y0121442D01*
X0210400Y0123041D02*
X0212900Y0123041D01*
X0212900Y0124639D02*
X0210400Y0124639D01*
X0209890Y0126238D02*
X0212900Y0126238D01*
X0212900Y0127836D02*
X0208734Y0127836D01*
X0208138Y0129435D02*
X0212900Y0129435D01*
X0212900Y0131033D02*
X0209644Y0131033D01*
X0210306Y0132632D02*
X0212900Y0132632D01*
X0212900Y0134230D02*
X0210400Y0134230D01*
X0210060Y0135829D02*
X0212900Y0135829D01*
X0212900Y0137427D02*
X0209142Y0137427D01*
X0207264Y0139026D02*
X0212900Y0139026D01*
X0212900Y0140624D02*
X0209328Y0140624D01*
X0210137Y0142223D02*
X0212900Y0142223D01*
X0212900Y0143821D02*
X0210400Y0143821D01*
X0210229Y0145420D02*
X0212900Y0145420D01*
X0212900Y0147018D02*
X0209551Y0147018D01*
X0207803Y0148617D02*
X0212900Y0148617D01*
X0212900Y0150215D02*
X0209061Y0150215D01*
X0210093Y0151814D02*
X0212900Y0151814D01*
X0212900Y0153412D02*
X0210486Y0153412D01*
X0210398Y0155011D02*
X0212900Y0155011D01*
X0212900Y0156610D02*
X0209809Y0156610D01*
X0208473Y0158208D02*
X0212900Y0158208D01*
X0212900Y0159807D02*
X0208652Y0159807D01*
X0209885Y0161405D02*
X0212900Y0161405D01*
X0212900Y0163004D02*
X0210421Y0163004D01*
X0210463Y0164602D02*
X0212900Y0164602D01*
X0212900Y0166201D02*
X0210017Y0166201D01*
X0208912Y0167799D02*
X0212900Y0167799D01*
X0212900Y0169398D02*
X0208101Y0169398D01*
X0209628Y0170996D02*
X0212900Y0170996D01*
X0212900Y0172595D02*
X0210291Y0172595D01*
X0210400Y0174193D02*
X0212900Y0174193D01*
X0212900Y0175792D02*
X0210075Y0175792D01*
X0209180Y0177390D02*
X0212900Y0177390D01*
X0212900Y0178989D02*
X0206906Y0178989D01*
X0203094Y0178989D02*
X0201675Y0178989D01*
X0202407Y0180587D02*
X0212900Y0180587D01*
X0212900Y0182186D02*
X0204005Y0182186D01*
X0205604Y0183784D02*
X0212900Y0183784D01*
X0212900Y0185383D02*
X0207202Y0185383D01*
X0208801Y0186981D02*
X0212900Y0186981D01*
X0212900Y0188580D02*
X0210399Y0188580D01*
X0211998Y0190178D02*
X0212900Y0190178D01*
X0197150Y0190946D02*
X0185000Y0178796D01*
X0185000Y0173183D01*
X0190750Y0167433D01*
X0186078Y0164602D02*
X0184700Y0164602D01*
X0184700Y0166201D02*
X0185416Y0166201D01*
X0185350Y0167799D02*
X0184700Y0167799D01*
X0184700Y0169398D02*
X0185250Y0169398D01*
X0184288Y0163004D02*
X0187543Y0163004D01*
X0187944Y0161405D02*
X0183119Y0161405D01*
X0186787Y0159807D02*
X0178193Y0159807D01*
X0178255Y0158208D02*
X0186304Y0158208D01*
X0186250Y0157233D02*
X0186250Y0157000D01*
X0186385Y0156145D01*
X0186653Y0155322D01*
X0187046Y0154550D01*
X0187555Y0153850D01*
X0188167Y0153238D01*
X0188867Y0152729D01*
X0189639Y0152336D01*
X0190462Y0152069D01*
X0191317Y0151933D01*
X0191550Y0151933D01*
X0191550Y0157233D01*
X0186250Y0157233D01*
X0186312Y0156610D02*
X0177321Y0156610D01*
X0177300Y0155011D02*
X0186811Y0155011D01*
X0187992Y0153412D02*
X0177300Y0153412D01*
X0177300Y0151814D02*
X0197075Y0151814D01*
X0197075Y0153412D02*
X0195508Y0153412D01*
X0196689Y0155011D02*
X0197075Y0155011D01*
X0197075Y0150215D02*
X0177300Y0150215D01*
X0177300Y0148617D02*
X0197075Y0148617D01*
X0197075Y0147018D02*
X0195551Y0147018D01*
X0196815Y0145420D02*
X0197075Y0145420D01*
X0200569Y0140624D02*
X0200672Y0140624D01*
X0198970Y0139026D02*
X0202736Y0139026D01*
X0200858Y0137427D02*
X0197372Y0137427D01*
X0195773Y0135829D02*
X0199940Y0135829D01*
X0199600Y0134230D02*
X0196308Y0134230D01*
X0196400Y0132632D02*
X0199694Y0132632D01*
X0200356Y0131033D02*
X0196058Y0131033D01*
X0195138Y0129435D02*
X0201861Y0129435D01*
X0201266Y0127836D02*
X0194492Y0127836D01*
X0196397Y0126238D02*
X0200110Y0126238D01*
X0199600Y0124639D02*
X0197229Y0124639D01*
X0199600Y0123041D02*
X0192200Y0123041D01*
X0191800Y0123041D02*
X0177300Y0123041D01*
X0177300Y0124639D02*
X0186771Y0124639D01*
X0187603Y0126238D02*
X0182952Y0126238D01*
X0184219Y0127836D02*
X0189194Y0127836D01*
X0186861Y0129435D02*
X0184700Y0129435D01*
X0184700Y0131033D02*
X0185942Y0131033D01*
X0185600Y0132632D02*
X0184700Y0132632D01*
X0184700Y0134230D02*
X0185692Y0134230D01*
X0186355Y0135829D02*
X0184700Y0135829D01*
X0184468Y0137427D02*
X0187858Y0137427D01*
X0188270Y0139026D02*
X0183554Y0139026D01*
X0180956Y0140624D02*
X0187111Y0140624D01*
X0186600Y0142223D02*
X0177300Y0142223D01*
X0177300Y0143821D02*
X0186600Y0143821D01*
X0187185Y0145420D02*
X0177300Y0145420D01*
X0177300Y0147018D02*
X0188449Y0147018D01*
X0191550Y0153412D02*
X0191950Y0153412D01*
X0191950Y0155011D02*
X0191550Y0155011D01*
X0191550Y0156610D02*
X0191950Y0156610D01*
X0204800Y0156610D02*
X0205200Y0156610D01*
X0205200Y0158208D02*
X0204800Y0158208D01*
X0204800Y0159807D02*
X0205200Y0159807D01*
X0205200Y0161405D02*
X0204800Y0161405D01*
X0204800Y0163004D02*
X0205200Y0163004D01*
X0205200Y0155011D02*
X0204800Y0155011D01*
X0182500Y0175792D02*
X0167200Y0175792D01*
X0166984Y0175271D02*
X0167700Y0176998D01*
X0167700Y0178868D01*
X0166984Y0180595D01*
X0165662Y0181918D01*
X0163935Y0182633D01*
X0156065Y0182633D01*
X0154338Y0181918D01*
X0153016Y0180595D01*
X0152300Y0178868D01*
X0152300Y0176998D01*
X0153016Y0175271D01*
X0154338Y0173949D01*
X0156065Y0173233D01*
X0163935Y0173233D01*
X0165662Y0173949D01*
X0166984Y0175271D01*
X0165907Y0174193D02*
X0176613Y0174193D01*
X0182500Y0177390D02*
X0167700Y0177390D01*
X0167650Y0178989D02*
X0182500Y0178989D01*
X0183255Y0180587D02*
X0166988Y0180587D01*
X0165015Y0182186D02*
X0184854Y0182186D01*
X0186452Y0183784D02*
X0151804Y0183784D01*
X0151058Y0182186D02*
X0154985Y0182186D01*
X0153012Y0180587D02*
X0151881Y0180587D01*
X0152200Y0178989D02*
X0152350Y0178989D01*
X0152300Y0177390D02*
X0152134Y0177390D01*
X0151472Y0175792D02*
X0152800Y0175792D01*
X0154093Y0174193D02*
X0150071Y0174193D01*
X0152960Y0185383D02*
X0188051Y0185383D01*
X0189649Y0186981D02*
X0153472Y0186981D01*
X0153520Y0188580D02*
X0155228Y0188580D01*
X0152392Y0191777D02*
X0152109Y0191777D01*
X0152300Y0193375D02*
X0149770Y0193375D01*
X0164772Y0188580D02*
X0188729Y0188580D01*
X0187135Y0190178D02*
X0166892Y0190178D01*
X0167608Y0191777D02*
X0186424Y0191777D01*
X0186549Y0194974D02*
X0167242Y0194974D01*
X0167700Y0193375D02*
X0191550Y0193375D01*
X0187414Y0196572D02*
X0183286Y0196572D01*
X0184357Y0198171D02*
X0188740Y0198171D01*
X0186527Y0199769D02*
X0184700Y0199769D01*
X0184700Y0201368D02*
X0185657Y0201368D01*
X0185350Y0202966D02*
X0184700Y0202966D01*
X0184700Y0204565D02*
X0185477Y0204565D01*
X0186140Y0206163D02*
X0184700Y0206163D01*
X0184330Y0207762D02*
X0185999Y0207762D01*
X0184934Y0208827D02*
X0184934Y0208827D01*
X0184400Y0209360D02*
X0183219Y0209360D01*
X0186350Y0210946D02*
X0190750Y0206546D01*
X0190750Y0203183D01*
X0186350Y0210946D02*
X0186350Y0215420D01*
X0189513Y0218583D01*
X0189650Y0218583D01*
X0193350Y0222283D01*
X0194487Y0222283D01*
X0194637Y0222433D01*
X0196000Y0222433D01*
X0199600Y0226033D01*
X0199600Y0226170D01*
X0205000Y0231570D01*
X0205000Y0233933D01*
X0208845Y0230141D02*
X0212900Y0230141D01*
X0212900Y0228543D02*
X0207983Y0228543D01*
X0209598Y0226944D02*
X0212900Y0226944D01*
X0212900Y0225345D02*
X0210260Y0225345D01*
X0210400Y0223747D02*
X0212900Y0223747D01*
X0212900Y0222148D02*
X0210106Y0222148D01*
X0209254Y0220550D02*
X0212900Y0220550D01*
X0212900Y0218951D02*
X0207084Y0218951D01*
X0209217Y0217353D02*
X0212900Y0217353D01*
X0212900Y0215754D02*
X0210090Y0215754D01*
X0210400Y0214156D02*
X0212900Y0214156D01*
X0212900Y0212557D02*
X0210275Y0212557D01*
X0211227Y0210959D02*
X0212900Y0210959D01*
X0212900Y0209360D02*
X0212825Y0209360D01*
X0205000Y0223933D02*
X0197150Y0216083D01*
X0197150Y0190946D01*
X0176714Y0196572D02*
X0166008Y0196572D01*
X0192450Y0227483D02*
X0192450Y0227883D01*
X0197750Y0227883D01*
X0197750Y0228116D01*
X0197615Y0228971D01*
X0197347Y0229794D01*
X0196954Y0230566D01*
X0196445Y0231266D01*
X0195833Y0231878D01*
X0195133Y0232387D01*
X0194361Y0232780D01*
X0193892Y0232933D01*
X0194309Y0233105D01*
X0195828Y0234624D01*
X0196059Y0235183D01*
X0199247Y0235183D01*
X0199761Y0235396D01*
X0199600Y0235007D01*
X0199600Y0232859D01*
X0200422Y0230874D01*
X0200595Y0230701D01*
X0197481Y0227586D01*
X0197438Y0227483D01*
X0192450Y0227483D01*
X0197170Y0230141D02*
X0200036Y0230141D01*
X0200064Y0231740D02*
X0195972Y0231740D01*
X0194542Y0233338D02*
X0199600Y0233338D01*
X0199600Y0234937D02*
X0195957Y0234937D01*
X0198750Y0237683D02*
X0205000Y0243933D01*
X0208436Y0239732D02*
X0212900Y0239732D01*
X0212900Y0238134D02*
X0208436Y0238134D01*
X0209767Y0236535D02*
X0212900Y0236535D01*
X0212900Y0234937D02*
X0210400Y0234937D01*
X0210400Y0233338D02*
X0212900Y0233338D01*
X0212900Y0231740D02*
X0209936Y0231740D01*
X0209767Y0241331D02*
X0212900Y0241331D01*
X0212900Y0242929D02*
X0210400Y0242929D01*
X0210400Y0244528D02*
X0212900Y0244528D01*
X0212900Y0246126D02*
X0209937Y0246126D01*
X0208845Y0247725D02*
X0212900Y0247725D01*
X0198437Y0228543D02*
X0197682Y0228543D01*
X0187261Y0241331D02*
X0184700Y0241331D01*
X0184260Y0242929D02*
X0189616Y0242929D01*
X0187769Y0244528D02*
X0183052Y0244528D01*
X0187050Y0246126D02*
X0167339Y0246126D01*
X0167700Y0247725D02*
X0186850Y0247725D01*
X0187084Y0249323D02*
X0167511Y0249323D01*
X0166658Y0250922D02*
X0187852Y0250922D01*
X0189817Y0252520D02*
X0164207Y0252520D01*
X0166241Y0244528D02*
X0176948Y0244528D01*
X0121615Y0217353D02*
X0119967Y0217353D01*
X0102547Y0223747D02*
X0098875Y0223747D01*
X0099353Y0222148D02*
X0097877Y0222148D01*
X0099805Y0225345D02*
X0101884Y0225345D01*
X0101800Y0226944D02*
X0100200Y0226944D01*
X0100200Y0228543D02*
X0102101Y0228543D01*
X0102897Y0230141D02*
X0099548Y0230141D01*
X0098255Y0231740D02*
X0104813Y0231740D01*
X0101377Y0209360D02*
X0100793Y0209360D01*
X0090783Y0191777D02*
X0088450Y0191777D01*
X0088296Y0190178D02*
X0089467Y0190178D01*
X0088805Y0188580D02*
X0087634Y0188580D01*
X0088800Y0186981D02*
X0086109Y0186981D01*
X0069214Y0183784D02*
X0063692Y0183784D01*
X0061308Y0183784D02*
X0057889Y0183784D01*
X0058000Y0182186D02*
X0058616Y0182186D01*
X0066384Y0182186D02*
X0067795Y0182186D01*
X0085748Y0164602D02*
X0099346Y0164602D01*
X0095628Y0163004D02*
X0085614Y0163004D01*
X0085572Y0161405D02*
X0093748Y0161405D01*
X0091868Y0159807D02*
X0086688Y0159807D01*
X0087581Y0158208D02*
X0089987Y0158208D01*
X0088107Y0156610D02*
X0087950Y0156610D01*
X0089568Y0151814D02*
X0090820Y0151814D01*
X0089483Y0150215D02*
X0087688Y0150215D01*
X0088821Y0148617D02*
X0085856Y0148617D01*
X0084937Y0147018D02*
X0088800Y0147018D01*
X0089164Y0145420D02*
X0086900Y0145420D01*
X0087666Y0143821D02*
X0090051Y0143821D01*
X0090729Y0142223D02*
X0087900Y0142223D01*
X0087699Y0140624D02*
X0089299Y0140624D01*
X0089642Y0134230D02*
X0086050Y0134230D01*
X0084451Y0132632D02*
X0091550Y0132632D01*
X0096950Y0132632D02*
X0106109Y0132632D01*
X0105850Y0131033D02*
X0082900Y0131033D01*
X0082724Y0129435D02*
X0106026Y0129435D01*
X0106710Y0127836D02*
X0082040Y0127836D01*
X0084472Y0124639D02*
X0104528Y0124639D01*
X0102047Y0123041D02*
X0086953Y0123041D01*
X0087984Y0121442D02*
X0101016Y0121442D01*
X0100550Y0119844D02*
X0088450Y0119844D01*
X0088450Y0118245D02*
X0100550Y0118245D01*
X0101131Y0116647D02*
X0087869Y0116647D01*
X0086676Y0115048D02*
X0102324Y0115048D01*
X0106050Y0111851D02*
X0106450Y0111851D01*
X0106450Y0110253D02*
X0106050Y0110253D01*
X0106050Y0108654D02*
X0106450Y0108654D01*
X0111750Y0110253D02*
X0112933Y0110253D01*
X0111277Y0111851D02*
X0124013Y0111851D01*
X0121933Y0110253D02*
X0119567Y0110253D01*
X0120968Y0108654D02*
X0121118Y0108654D01*
X0112286Y0102260D02*
X0111467Y0102260D01*
X0113476Y0100662D02*
X0099956Y0100662D01*
X0099070Y0102260D02*
X0101033Y0102260D01*
X0100750Y0103859D02*
X0098628Y0103859D01*
X0109217Y0087874D02*
X0118950Y0087874D01*
X0118950Y0089472D02*
X0112780Y0089472D01*
X0115274Y0091071D02*
X0118275Y0091071D01*
X0116654Y0092669D02*
X0116261Y0092669D01*
X0118950Y0086275D02*
X0110969Y0086275D01*
X0111697Y0084677D02*
X0118950Y0084677D01*
X0118950Y0083078D02*
X0111950Y0083078D01*
X0111818Y0081479D02*
X0118950Y0081479D01*
X0118950Y0079881D02*
X0111155Y0079881D01*
X0120431Y0071888D02*
X0121422Y0071888D01*
X0129833Y0073487D02*
X0134340Y0073487D01*
X0132069Y0071888D02*
X0131078Y0071888D01*
X0138160Y0073487D02*
X0142601Y0073487D01*
X0141369Y0071888D02*
X0140431Y0071888D01*
X0146300Y0071888D02*
X0146700Y0071888D01*
X0146700Y0070290D02*
X0146300Y0070290D01*
X0146300Y0068691D02*
X0146700Y0068691D01*
X0146700Y0067093D02*
X0146300Y0067093D01*
X0146300Y0065494D02*
X0146700Y0065494D01*
X0146700Y0063896D02*
X0146300Y0063896D01*
X0144101Y0063896D02*
X0139350Y0063896D01*
X0139300Y0062297D02*
X0175300Y0062297D01*
X0175300Y0060699D02*
X0139300Y0060699D01*
X0139300Y0059100D02*
X0175300Y0059100D01*
X0175300Y0058998D02*
X0176016Y0057271D01*
X0177338Y0055949D01*
X0179065Y0055233D01*
X0180935Y0055233D01*
X0182662Y0055949D01*
X0183984Y0057271D01*
X0184700Y0058998D01*
X0184700Y0066868D01*
X0183984Y0068595D01*
X0182662Y0069918D01*
X0180935Y0070633D01*
X0179065Y0070633D01*
X0177338Y0069918D01*
X0176016Y0068595D01*
X0175300Y0066868D01*
X0175300Y0058998D01*
X0175920Y0057502D02*
X0164252Y0057502D01*
X0163935Y0057633D02*
X0165662Y0056918D01*
X0166984Y0055595D01*
X0167700Y0053868D01*
X0167700Y0051998D01*
X0166984Y0050271D01*
X0165662Y0048949D01*
X0163935Y0048233D01*
X0156065Y0048233D01*
X0154338Y0048949D01*
X0153016Y0050271D01*
X0152300Y0051998D01*
X0152300Y0053868D01*
X0153016Y0055595D01*
X0154338Y0056918D01*
X0156065Y0057633D01*
X0163935Y0057633D01*
X0166677Y0055903D02*
X0177447Y0055903D01*
X0182553Y0055903D02*
X0187723Y0055903D01*
X0186825Y0054305D02*
X0167519Y0054305D01*
X0167700Y0052706D02*
X0186500Y0052706D01*
X0186648Y0051108D02*
X0167331Y0051108D01*
X0166223Y0049509D02*
X0187326Y0049509D01*
X0188867Y0047911D02*
X0142247Y0047911D01*
X0142700Y0046312D02*
X0212900Y0046312D01*
X0212900Y0044714D02*
X0183402Y0044714D01*
X0183540Y0044644D02*
X0182726Y0045058D01*
X0181858Y0045340D01*
X0180956Y0045483D01*
X0180700Y0045483D01*
X0180700Y0039883D01*
X0186300Y0039883D01*
X0186300Y0040140D01*
X0186157Y0041041D01*
X0185875Y0041909D01*
X0185461Y0042723D01*
X0184924Y0043462D01*
X0184278Y0044107D01*
X0183540Y0044644D01*
X0185176Y0043115D02*
X0212900Y0043115D01*
X0212900Y0041517D02*
X0186003Y0041517D01*
X0186300Y0039918D02*
X0212900Y0039918D01*
X0211417Y0038320D02*
X0186155Y0038320D01*
X0186157Y0038325D02*
X0186300Y0039227D01*
X0186300Y0039483D01*
X0180700Y0039483D01*
X0180700Y0033883D01*
X0180956Y0033883D01*
X0181858Y0034026D01*
X0182726Y0034308D01*
X0183540Y0034722D01*
X0184278Y0035259D01*
X0184924Y0035905D01*
X0185461Y0036643D01*
X0185875Y0037457D01*
X0186157Y0038325D01*
X0185500Y0036721D02*
X0209818Y0036721D01*
X0208220Y0035123D02*
X0184091Y0035123D01*
X0180700Y0035123D02*
X0180300Y0035123D01*
X0180300Y0033883D02*
X0180300Y0039483D01*
X0180700Y0039483D01*
X0180700Y0039883D01*
X0180300Y0039883D01*
X0180300Y0039483D01*
X0174700Y0039483D01*
X0174700Y0039227D01*
X0174843Y0038325D01*
X0175125Y0037457D01*
X0175539Y0036643D01*
X0176076Y0035905D01*
X0176722Y0035259D01*
X0177460Y0034722D01*
X0178274Y0034308D01*
X0179142Y0034026D01*
X0180044Y0033883D01*
X0180300Y0033883D01*
X0180300Y0036721D02*
X0180700Y0036721D01*
X0180700Y0038320D02*
X0180300Y0038320D01*
X0180300Y0039883D02*
X0174700Y0039883D01*
X0174700Y0040140D01*
X0174843Y0041041D01*
X0175125Y0041909D01*
X0175539Y0042723D01*
X0176076Y0043462D01*
X0176722Y0044107D01*
X0177460Y0044644D01*
X0178274Y0045058D01*
X0179142Y0045340D01*
X0180044Y0045483D01*
X0180300Y0045483D01*
X0180300Y0039883D01*
X0180300Y0039918D02*
X0180700Y0039918D01*
X0180700Y0041517D02*
X0180300Y0041517D01*
X0180300Y0043115D02*
X0180700Y0043115D01*
X0180700Y0044714D02*
X0180300Y0044714D01*
X0177598Y0044714D02*
X0153250Y0044714D01*
X0155129Y0043115D02*
X0175824Y0043115D01*
X0174997Y0041517D02*
X0155910Y0041517D01*
X0156200Y0039918D02*
X0174700Y0039918D01*
X0174845Y0038320D02*
X0156105Y0038320D01*
X0155443Y0036721D02*
X0175500Y0036721D01*
X0176909Y0035123D02*
X0154001Y0035123D01*
X0146999Y0035123D02*
X0095200Y0035123D01*
X0095190Y0033524D02*
X0206621Y0033524D01*
X0205023Y0031926D02*
X0094527Y0031926D01*
X0094825Y0036721D02*
X0145557Y0036721D01*
X0144895Y0038320D02*
X0093924Y0038320D01*
X0086355Y0041517D02*
X0085919Y0041517D01*
X0084851Y0043115D02*
X0084321Y0043115D01*
X0084189Y0044714D02*
X0082722Y0044714D01*
X0084050Y0046312D02*
X0081124Y0046312D01*
X0079800Y0047911D02*
X0084296Y0047911D01*
X0083171Y0049509D02*
X0079800Y0049509D01*
X0079800Y0051108D02*
X0082700Y0051108D01*
X0082700Y0052706D02*
X0080660Y0052706D01*
X0082153Y0054305D02*
X0082700Y0054305D01*
X0075200Y0049509D02*
X0073829Y0049509D01*
X0075200Y0047911D02*
X0072230Y0047911D01*
X0070632Y0046312D02*
X0075200Y0046312D01*
X0076217Y0044714D02*
X0069033Y0044714D01*
X0064649Y0043115D02*
X0077815Y0043115D01*
X0079414Y0041517D02*
X0063145Y0041517D01*
X0062001Y0039918D02*
X0081012Y0039918D01*
X0082611Y0038320D02*
X0064027Y0038320D01*
X0064936Y0036721D02*
X0084175Y0036721D01*
X0083800Y0035123D02*
X0065300Y0035123D01*
X0065189Y0033524D02*
X0083810Y0033524D01*
X0084473Y0031926D02*
X0064604Y0031926D01*
X0059700Y0035123D02*
X0059300Y0035123D01*
X0059300Y0034883D02*
X0059300Y0040483D01*
X0059044Y0040483D01*
X0058142Y0040340D01*
X0057274Y0040058D01*
X0056460Y0039644D01*
X0055722Y0039107D01*
X0055076Y0038462D01*
X0054539Y0037723D01*
X0054125Y0036909D01*
X0053843Y0036041D01*
X0053700Y0035140D01*
X0053700Y0034883D01*
X0059300Y0034883D01*
X0059300Y0036721D02*
X0059700Y0036721D01*
X0059700Y0038320D02*
X0059300Y0038320D01*
X0059300Y0039918D02*
X0059700Y0039918D01*
X0056999Y0039918D02*
X0050050Y0039918D01*
X0050050Y0039383D02*
X0050050Y0042561D01*
X0049932Y0043307D01*
X0049698Y0044026D01*
X0049355Y0044699D01*
X0048911Y0045310D01*
X0048377Y0045844D01*
X0048083Y0046058D01*
X0048377Y0046272D01*
X0048911Y0046806D01*
X0049355Y0047417D01*
X0049698Y0048091D01*
X0049932Y0048809D01*
X0050050Y0049555D01*
X0050050Y0052733D01*
X0045450Y0052733D01*
X0045450Y0045133D01*
X0045450Y0039383D01*
X0050050Y0039383D01*
X0050050Y0038983D02*
X0045450Y0038983D01*
X0045450Y0031383D01*
X0045628Y0031383D01*
X0046374Y0031501D01*
X0047093Y0031735D01*
X0047766Y0032078D01*
X0048377Y0032522D01*
X0048911Y0033056D01*
X0049355Y0033667D01*
X0049698Y0034341D01*
X0049932Y0035059D01*
X0050050Y0035805D01*
X0050050Y0038983D01*
X0050050Y0038320D02*
X0054973Y0038320D01*
X0054064Y0036721D02*
X0050050Y0036721D01*
X0049942Y0035123D02*
X0053700Y0035123D01*
X0053811Y0033524D02*
X0049251Y0033524D01*
X0047467Y0031926D02*
X0054395Y0031926D01*
X0045450Y0031926D02*
X0045050Y0031926D01*
X0045050Y0031383D02*
X0045050Y0038983D01*
X0045450Y0038983D01*
X0045450Y0039383D01*
X0045050Y0039383D01*
X0045050Y0038983D01*
X0040450Y0038983D01*
X0040450Y0035805D01*
X0040568Y0035059D01*
X0040802Y0034341D01*
X0041145Y0033667D01*
X0041589Y0033056D01*
X0042123Y0032522D01*
X0042734Y0032078D01*
X0043407Y0031735D01*
X0044126Y0031501D01*
X0044872Y0031383D01*
X0045050Y0031383D01*
X0043033Y0031926D02*
X0037253Y0031926D01*
X0039236Y0033524D02*
X0041249Y0033524D01*
X0040558Y0035123D02*
X0039898Y0035123D01*
X0039950Y0036721D02*
X0040450Y0036721D01*
X0040450Y0038320D02*
X0039950Y0038320D01*
X0040450Y0039383D02*
X0045050Y0039383D01*
X0045050Y0052733D01*
X0045450Y0052733D01*
X0045450Y0053133D01*
X0050050Y0053133D01*
X0050050Y0056311D01*
X0049932Y0057057D01*
X0049698Y0057776D01*
X0049355Y0058449D01*
X0048911Y0059060D01*
X0048377Y0059594D01*
X0047766Y0060038D01*
X0047093Y0060381D01*
X0046374Y0060615D01*
X0045628Y0060733D01*
X0045450Y0060733D01*
X0045450Y0053133D01*
X0045050Y0053133D01*
X0045050Y0052733D01*
X0040450Y0052733D01*
X0040450Y0049555D01*
X0040568Y0048809D01*
X0040802Y0048091D01*
X0041145Y0047417D01*
X0041589Y0046806D01*
X0042123Y0046272D01*
X0042417Y0046058D01*
X0042123Y0045844D01*
X0041589Y0045310D01*
X0041145Y0044699D01*
X0040802Y0044026D01*
X0040568Y0043307D01*
X0040450Y0042561D01*
X0040450Y0039383D01*
X0040450Y0039918D02*
X0039950Y0039918D01*
X0039950Y0041517D02*
X0040450Y0041517D01*
X0040538Y0043115D02*
X0039950Y0043115D01*
X0039289Y0044714D02*
X0041156Y0044714D01*
X0042083Y0046312D02*
X0038276Y0046312D01*
X0039500Y0047911D02*
X0040893Y0047911D01*
X0040457Y0049509D02*
X0039950Y0049509D01*
X0039950Y0051108D02*
X0040450Y0051108D01*
X0040450Y0052706D02*
X0039950Y0052706D01*
X0040450Y0053133D02*
X0045050Y0053133D01*
X0045050Y0060733D01*
X0044872Y0060733D01*
X0044126Y0060615D01*
X0043407Y0060381D01*
X0042734Y0060038D01*
X0042123Y0059594D01*
X0041589Y0059060D01*
X0041145Y0058449D01*
X0040802Y0057776D01*
X0040568Y0057057D01*
X0040450Y0056311D01*
X0040450Y0053133D01*
X0040450Y0054305D02*
X0039950Y0054305D01*
X0039950Y0055903D02*
X0040450Y0055903D01*
X0040713Y0057502D02*
X0039687Y0057502D01*
X0038730Y0059100D02*
X0041629Y0059100D01*
X0041327Y0060699D02*
X0044656Y0060699D01*
X0045050Y0060699D02*
X0045450Y0060699D01*
X0045844Y0060699D02*
X0053379Y0060699D01*
X0052449Y0059100D02*
X0048871Y0059100D01*
X0049787Y0057502D02*
X0052100Y0057502D01*
X0052185Y0055903D02*
X0050050Y0055903D01*
X0050050Y0054305D02*
X0052847Y0054305D01*
X0054340Y0052706D02*
X0050050Y0052706D01*
X0050050Y0051108D02*
X0056744Y0051108D01*
X0055015Y0049509D02*
X0050043Y0049509D01*
X0049607Y0047911D02*
X0054296Y0047911D01*
X0054050Y0046312D02*
X0048417Y0046312D01*
X0049344Y0044714D02*
X0054189Y0044714D01*
X0054851Y0043115D02*
X0049962Y0043115D01*
X0050050Y0041517D02*
X0056355Y0041517D01*
X0045450Y0041517D02*
X0045050Y0041517D01*
X0045050Y0043115D02*
X0045450Y0043115D01*
X0045450Y0044714D02*
X0045050Y0044714D01*
X0045050Y0046312D02*
X0045450Y0046312D01*
X0045450Y0047911D02*
X0045050Y0047911D01*
X0045050Y0049509D02*
X0045450Y0049509D01*
X0045450Y0051108D02*
X0045050Y0051108D01*
X0045050Y0052706D02*
X0045450Y0052706D01*
X0045450Y0054305D02*
X0045050Y0054305D01*
X0045050Y0055903D02*
X0045450Y0055903D01*
X0045450Y0057502D02*
X0045050Y0057502D01*
X0045050Y0059100D02*
X0045450Y0059100D01*
X0042871Y0062297D02*
X0055200Y0062297D01*
X0055200Y0063896D02*
X0043533Y0063896D01*
X0043700Y0065494D02*
X0047000Y0065494D01*
X0047000Y0065496D02*
X0047123Y0065038D01*
X0047360Y0064628D01*
X0047695Y0064293D01*
X0048105Y0064056D01*
X0048563Y0063933D01*
X0052300Y0063933D01*
X0052300Y0069233D01*
X0047000Y0069233D01*
X0047000Y0065496D01*
X0047000Y0067093D02*
X0043482Y0067093D01*
X0042803Y0068691D02*
X0047000Y0068691D01*
X0047000Y0070290D02*
X0041169Y0070290D01*
X0047000Y0071888D02*
X0034797Y0071888D01*
X0033199Y0073487D02*
X0047031Y0073487D01*
X0049345Y0075085D02*
X0018789Y0075085D01*
X0019913Y0076684D02*
X0047746Y0076684D01*
X0046148Y0078282D02*
X0020400Y0078282D01*
X0020400Y0079881D02*
X0044549Y0079881D01*
X0043950Y0081479D02*
X0019790Y0081479D01*
X0018492Y0083078D02*
X0043950Y0083078D01*
X0043950Y0084677D02*
X0018380Y0084677D01*
X0019744Y0086275D02*
X0043950Y0086275D01*
X0043950Y0087874D02*
X0020400Y0087874D01*
X0020400Y0089472D02*
X0043950Y0089472D01*
X0043950Y0091071D02*
X0041698Y0091071D01*
X0041229Y0090601D02*
X0042832Y0092204D01*
X0043700Y0094299D01*
X0043700Y0096567D01*
X0042832Y0098662D01*
X0041229Y0100265D01*
X0039134Y0101133D01*
X0036866Y0101133D01*
X0034771Y0100265D01*
X0033168Y0098662D01*
X0032300Y0096567D01*
X0032300Y0094299D01*
X0033168Y0092204D01*
X0034771Y0090601D01*
X0036866Y0089733D01*
X0039134Y0089733D01*
X0041229Y0090601D01*
X0043025Y0092669D02*
X0043950Y0092669D01*
X0043950Y0094268D02*
X0043687Y0094268D01*
X0043700Y0095866D02*
X0043950Y0095866D01*
X0043950Y0097465D02*
X0043328Y0097465D01*
X0043950Y0099063D02*
X0042431Y0099063D01*
X0043950Y0100662D02*
X0040272Y0100662D01*
X0043950Y0102260D02*
X0029750Y0102260D01*
X0030823Y0103859D02*
X0043950Y0103859D01*
X0043950Y0105457D02*
X0030981Y0105457D01*
X0030400Y0107056D02*
X0043950Y0107056D01*
X0043950Y0108654D02*
X0030400Y0108654D01*
X0030400Y0110253D02*
X0043950Y0110253D01*
X0043950Y0111851D02*
X0030820Y0111851D01*
X0030981Y0113450D02*
X0043950Y0113450D01*
X0043950Y0115048D02*
X0030308Y0115048D01*
X0020142Y0121442D02*
X0019806Y0121442D01*
X0020019Y0123041D02*
X0018529Y0123041D01*
X0018343Y0124639D02*
X0020783Y0124639D01*
X0019728Y0126238D02*
X0025065Y0126238D01*
X0025980Y0127836D02*
X0020391Y0127836D01*
X0020400Y0129435D02*
X0028401Y0129435D01*
X0029999Y0131033D02*
X0019975Y0131033D01*
X0018938Y0132632D02*
X0030993Y0132632D01*
X0031669Y0134230D02*
X0017757Y0134230D01*
X0019533Y0135829D02*
X0032346Y0135829D01*
X0033022Y0137427D02*
X0020221Y0137427D01*
X0020400Y0139026D02*
X0033698Y0139026D01*
X0034374Y0140624D02*
X0020144Y0140624D01*
X0019347Y0142223D02*
X0035026Y0142223D01*
X0035100Y0143821D02*
X0017309Y0143821D01*
X0019124Y0145420D02*
X0036064Y0145420D01*
X0040936Y0145420D02*
X0047000Y0145420D01*
X0047000Y0147018D02*
X0020052Y0147018D01*
X0012691Y0143821D02*
X0007100Y0143821D01*
X0007100Y0142223D02*
X0010653Y0142223D01*
X0009856Y0140624D02*
X0007100Y0140624D01*
X0007100Y0139026D02*
X0009600Y0139026D01*
X0009779Y0137427D02*
X0007100Y0137427D01*
X0007100Y0135829D02*
X0010467Y0135829D01*
X0012242Y0134230D02*
X0007100Y0134230D01*
X0007100Y0132632D02*
X0011062Y0132632D01*
X0010025Y0131033D02*
X0007100Y0131033D01*
X0007100Y0129435D02*
X0009600Y0129435D01*
X0009609Y0127836D02*
X0007100Y0127836D01*
X0007100Y0126238D02*
X0010271Y0126238D01*
X0011657Y0124639D02*
X0007100Y0124639D01*
X0007100Y0123041D02*
X0011471Y0123041D01*
X0010194Y0121442D02*
X0007100Y0121442D01*
X0007100Y0119844D02*
X0009600Y0119844D01*
X0009600Y0118245D02*
X0007100Y0118245D01*
X0007100Y0116647D02*
X0010102Y0116647D01*
X0011248Y0115048D02*
X0007100Y0115048D01*
X0007100Y0113450D02*
X0011880Y0113450D01*
X0010364Y0111851D02*
X0007100Y0111851D01*
X0007100Y0110253D02*
X0009702Y0110253D01*
X0009600Y0108654D02*
X0007100Y0108654D01*
X0007100Y0107056D02*
X0009933Y0107056D01*
X0010839Y0105457D02*
X0007100Y0105457D01*
X0007100Y0103859D02*
X0012552Y0103859D01*
X0010619Y0102260D02*
X0007100Y0102260D01*
X0007100Y0100662D02*
X0009779Y0100662D01*
X0009694Y0097465D02*
X0007100Y0097465D01*
X0007100Y0099063D02*
X0014800Y0099063D01*
X0015200Y0099063D02*
X0021819Y0099063D01*
X0021418Y0098662D02*
X0020550Y0096567D01*
X0020550Y0094299D01*
X0021418Y0092204D01*
X0023021Y0090601D01*
X0025116Y0089733D01*
X0027384Y0089733D01*
X0029479Y0090601D01*
X0031082Y0092204D01*
X0031950Y0094299D01*
X0031950Y0096567D01*
X0031082Y0098662D01*
X0029479Y0100265D01*
X0027384Y0101133D01*
X0025116Y0101133D01*
X0023021Y0100265D01*
X0021418Y0098662D01*
X0020922Y0097465D02*
X0020306Y0097465D01*
X0020550Y0095866D02*
X0019570Y0095866D01*
X0020563Y0094268D02*
X0017936Y0094268D01*
X0018901Y0092669D02*
X0021225Y0092669D01*
X0019960Y0091071D02*
X0022551Y0091071D01*
X0029948Y0091071D02*
X0034301Y0091071D01*
X0032975Y0092669D02*
X0031275Y0092669D01*
X0031937Y0094268D02*
X0032313Y0094268D01*
X0032300Y0095866D02*
X0031950Y0095866D01*
X0031578Y0097465D02*
X0032672Y0097465D01*
X0033569Y0099063D02*
X0030681Y0099063D01*
X0028522Y0100662D02*
X0035728Y0100662D01*
X0025250Y0102260D02*
X0024250Y0102260D01*
X0023978Y0100662D02*
X0020221Y0100662D01*
X0019750Y0102260D02*
X0019381Y0102260D01*
X0018677Y0103859D02*
X0017448Y0103859D01*
X0018120Y0113450D02*
X0018519Y0113450D01*
X0018752Y0115048D02*
X0019192Y0115048D01*
X0010430Y0095866D02*
X0007100Y0095866D01*
X0007100Y0094268D02*
X0012064Y0094268D01*
X0011099Y0092669D02*
X0007100Y0092669D01*
X0007100Y0091071D02*
X0010040Y0091071D01*
X0009600Y0089472D02*
X0007100Y0089472D01*
X0007100Y0087874D02*
X0009600Y0087874D01*
X0010256Y0086275D02*
X0007100Y0086275D01*
X0007100Y0084677D02*
X0011620Y0084677D01*
X0011508Y0083078D02*
X0007100Y0083078D01*
X0007100Y0081479D02*
X0010210Y0081479D01*
X0009600Y0079881D02*
X0007100Y0079881D01*
X0007100Y0078282D02*
X0009600Y0078282D01*
X0010087Y0076684D02*
X0007100Y0076684D01*
X0007100Y0075085D02*
X0011211Y0075085D01*
X0011917Y0073487D02*
X0007100Y0073487D01*
X0007100Y0071888D02*
X0010379Y0071888D01*
X0009717Y0070290D02*
X0007100Y0070290D01*
X0007100Y0068691D02*
X0009600Y0068691D01*
X0009917Y0067093D02*
X0007100Y0067093D01*
X0007100Y0065494D02*
X0010802Y0065494D01*
X0013050Y0063896D02*
X0007100Y0063896D01*
X0007100Y0062297D02*
X0021379Y0062297D01*
X0020717Y0063896D02*
X0016950Y0063896D01*
X0019198Y0065494D02*
X0020550Y0065494D01*
X0020768Y0067093D02*
X0020083Y0067093D01*
X0020400Y0068691D02*
X0021447Y0068691D01*
X0022923Y0060699D02*
X0007100Y0060699D01*
X0007100Y0059100D02*
X0011770Y0059100D01*
X0010813Y0057502D02*
X0007100Y0057502D01*
X0007100Y0055903D02*
X0010550Y0055903D01*
X0010550Y0054305D02*
X0007100Y0054305D01*
X0007100Y0052706D02*
X0010550Y0052706D01*
X0010550Y0051108D02*
X0007100Y0051108D01*
X0007100Y0049509D02*
X0010550Y0049509D01*
X0011000Y0047911D02*
X0007100Y0047911D01*
X0007100Y0046312D02*
X0012224Y0046312D01*
X0011211Y0044714D02*
X0007100Y0044714D01*
X0007100Y0043115D02*
X0010550Y0043115D01*
X0010550Y0041517D02*
X0007100Y0041517D01*
X0007100Y0039918D02*
X0010550Y0039918D01*
X0010550Y0038320D02*
X0008583Y0038320D01*
X0010182Y0036721D02*
X0010550Y0036721D01*
X0017253Y0031926D02*
X0023247Y0031926D01*
X0021264Y0033524D02*
X0019236Y0033524D01*
X0019898Y0035123D02*
X0020602Y0035123D01*
X0020550Y0036721D02*
X0019950Y0036721D01*
X0019950Y0038320D02*
X0020550Y0038320D01*
X0020550Y0039918D02*
X0019950Y0039918D01*
X0019950Y0041517D02*
X0020550Y0041517D01*
X0020550Y0043115D02*
X0019950Y0043115D01*
X0019289Y0044714D02*
X0021211Y0044714D01*
X0022224Y0046312D02*
X0018276Y0046312D01*
X0019500Y0047911D02*
X0021000Y0047911D01*
X0020550Y0049509D02*
X0019950Y0049509D01*
X0019950Y0051108D02*
X0020550Y0051108D01*
X0020550Y0052706D02*
X0019950Y0052706D01*
X0019950Y0054305D02*
X0020550Y0054305D01*
X0020550Y0055903D02*
X0019950Y0055903D01*
X0019687Y0057502D02*
X0020813Y0057502D01*
X0021770Y0059100D02*
X0018730Y0059100D01*
X0028730Y0059100D02*
X0031770Y0059100D01*
X0030813Y0057502D02*
X0029687Y0057502D01*
X0029950Y0055903D02*
X0030550Y0055903D01*
X0030550Y0054305D02*
X0029950Y0054305D01*
X0029950Y0052706D02*
X0030550Y0052706D01*
X0030550Y0051108D02*
X0029950Y0051108D01*
X0029950Y0049509D02*
X0030550Y0049509D01*
X0031000Y0047911D02*
X0029500Y0047911D01*
X0028276Y0046312D02*
X0032224Y0046312D01*
X0031211Y0044714D02*
X0029289Y0044714D01*
X0029950Y0043115D02*
X0030550Y0043115D01*
X0030550Y0041517D02*
X0029950Y0041517D01*
X0029950Y0039918D02*
X0030550Y0039918D01*
X0030550Y0038320D02*
X0029950Y0038320D01*
X0029950Y0036721D02*
X0030550Y0036721D01*
X0030602Y0035123D02*
X0029898Y0035123D01*
X0029236Y0033524D02*
X0031264Y0033524D01*
X0033247Y0031926D02*
X0027253Y0031926D01*
X0045050Y0033524D02*
X0045450Y0033524D01*
X0045450Y0035123D02*
X0045050Y0035123D01*
X0045050Y0036721D02*
X0045450Y0036721D01*
X0045450Y0038320D02*
X0045050Y0038320D01*
X0045050Y0039918D02*
X0045450Y0039918D01*
X0034673Y0060699D02*
X0029577Y0060699D01*
X0031121Y0062297D02*
X0033129Y0062297D01*
X0032467Y0063896D02*
X0031783Y0063896D01*
X0031950Y0065494D02*
X0032300Y0065494D01*
X0032518Y0067093D02*
X0031732Y0067093D01*
X0031489Y0068691D02*
X0031053Y0068691D01*
X0048550Y0086794D02*
X0048550Y0101437D01*
X0048563Y0101433D01*
X0052300Y0101433D01*
X0052300Y0106733D01*
X0052700Y0106733D01*
X0052700Y0101433D01*
X0056437Y0101433D01*
X0056895Y0101556D01*
X0057305Y0101793D01*
X0057640Y0102128D01*
X0057877Y0102538D01*
X0057958Y0102839D01*
X0059441Y0101355D01*
X0060200Y0101041D01*
X0060200Y0100636D01*
X0059333Y0099769D01*
X0058574Y0100083D01*
X0056426Y0100083D01*
X0054441Y0099261D01*
X0052922Y0097742D01*
X0052100Y0095757D01*
X0052100Y0093609D01*
X0052922Y0091624D01*
X0054441Y0090105D01*
X0056426Y0089283D01*
X0058574Y0089283D01*
X0060559Y0090105D01*
X0062078Y0091624D01*
X0062707Y0093143D01*
X0062922Y0092624D01*
X0064441Y0091105D01*
X0066426Y0090283D01*
X0068574Y0090283D01*
X0070559Y0091105D01*
X0072078Y0092624D01*
X0072293Y0093143D01*
X0072922Y0091624D01*
X0074441Y0090105D01*
X0076426Y0089283D01*
X0077097Y0089283D01*
X0074047Y0086233D01*
X0057511Y0086233D01*
X0055979Y0087765D01*
X0053884Y0088633D01*
X0051616Y0088633D01*
X0049521Y0087765D01*
X0048550Y0086794D01*
X0048550Y0087874D02*
X0049783Y0087874D01*
X0048550Y0089472D02*
X0055970Y0089472D01*
X0055717Y0087874D02*
X0075688Y0087874D01*
X0075970Y0089472D02*
X0059030Y0089472D01*
X0061524Y0091071D02*
X0064525Y0091071D01*
X0062904Y0092669D02*
X0062511Y0092669D01*
X0057469Y0086275D02*
X0074089Y0086275D01*
X0073476Y0091071D02*
X0070475Y0091071D01*
X0072096Y0092669D02*
X0072489Y0092669D01*
X0060200Y0100662D02*
X0048550Y0100662D01*
X0048550Y0099063D02*
X0054243Y0099063D01*
X0052807Y0097465D02*
X0048550Y0097465D01*
X0048550Y0095866D02*
X0052145Y0095866D01*
X0052100Y0094268D02*
X0048550Y0094268D01*
X0048550Y0092669D02*
X0052489Y0092669D01*
X0053476Y0091071D02*
X0048550Y0091071D01*
X0052300Y0102260D02*
X0052700Y0102260D01*
X0052700Y0103859D02*
X0052300Y0103859D01*
X0052300Y0105457D02*
X0052700Y0105457D01*
X0052700Y0107133D02*
X0052300Y0107133D01*
X0052300Y0112433D01*
X0048563Y0112433D01*
X0048550Y0112430D01*
X0048550Y0115322D01*
X0049521Y0114351D01*
X0051616Y0113483D01*
X0053884Y0113483D01*
X0055979Y0114351D01*
X0057582Y0115954D01*
X0058450Y0118049D01*
X0058450Y0120317D01*
X0058016Y0121364D01*
X0058088Y0121331D01*
X0058157Y0121267D01*
X0058537Y0121124D01*
X0058907Y0120954D01*
X0059000Y0120950D01*
X0061805Y0119899D01*
X0067852Y0109821D01*
X0067293Y0108473D01*
X0067078Y0108992D01*
X0065559Y0110511D01*
X0063574Y0111333D01*
X0061426Y0111333D01*
X0059441Y0110511D01*
X0058000Y0109070D01*
X0058000Y0110870D01*
X0057877Y0111328D01*
X0057640Y0111738D01*
X0057305Y0112073D01*
X0056895Y0112310D01*
X0056437Y0112433D01*
X0052700Y0112433D01*
X0052700Y0107133D01*
X0052700Y0108654D02*
X0052300Y0108654D01*
X0052300Y0110253D02*
X0052700Y0110253D01*
X0052700Y0111851D02*
X0052300Y0111851D01*
X0048824Y0115048D02*
X0048550Y0115048D01*
X0048550Y0113450D02*
X0065675Y0113450D01*
X0064715Y0115048D02*
X0056676Y0115048D01*
X0057869Y0116647D02*
X0063756Y0116647D01*
X0062797Y0118245D02*
X0058450Y0118245D01*
X0058450Y0119844D02*
X0061838Y0119844D01*
X0060275Y0126238D02*
X0074724Y0126238D01*
X0072960Y0127836D02*
X0071040Y0127836D01*
X0063960Y0127836D02*
X0062040Y0127836D01*
X0058020Y0139026D02*
X0057941Y0139026D01*
X0064937Y0147018D02*
X0068699Y0147018D01*
X0067582Y0145420D02*
X0066900Y0145420D01*
X0062121Y0151814D02*
X0055942Y0151814D01*
X0057272Y0153412D02*
X0060523Y0153412D01*
X0058924Y0155011D02*
X0057934Y0155011D01*
X0047000Y0143821D02*
X0041900Y0143821D01*
X0041974Y0142223D02*
X0047000Y0142223D01*
X0047000Y0140624D02*
X0041114Y0140624D01*
X0039996Y0139026D02*
X0047059Y0139026D01*
X0057527Y0111851D02*
X0066634Y0111851D01*
X0065817Y0110253D02*
X0067593Y0110253D01*
X0067368Y0108654D02*
X0067218Y0108654D01*
X0059183Y0110253D02*
X0058000Y0110253D01*
X0057717Y0102260D02*
X0058536Y0102260D01*
X0076817Y0110253D02*
X0079183Y0110253D01*
X0077782Y0108654D02*
X0077632Y0108654D01*
X0098858Y0134230D02*
X0106911Y0134230D01*
X0108959Y0135829D02*
X0099652Y0135829D01*
X0099950Y0137427D02*
X0113620Y0137427D01*
X0111770Y0139026D02*
X0111691Y0139026D01*
X0106450Y0139026D02*
X0106050Y0139026D01*
X0106050Y0137683D02*
X0106050Y0142983D01*
X0100750Y0142983D01*
X0100750Y0139246D01*
X0100873Y0138788D01*
X0101110Y0138378D01*
X0101445Y0138043D01*
X0101855Y0137806D01*
X0102313Y0137683D01*
X0106050Y0137683D01*
X0106050Y0140624D02*
X0106450Y0140624D01*
X0106450Y0142223D02*
X0106050Y0142223D01*
X0106050Y0143383D02*
X0100750Y0143383D01*
X0100750Y0147120D01*
X0100873Y0147578D01*
X0101110Y0147988D01*
X0101445Y0148323D01*
X0101855Y0148560D01*
X0102313Y0148683D01*
X0106050Y0148683D01*
X0106050Y0143383D01*
X0106050Y0143821D02*
X0106450Y0143821D01*
X0106450Y0145420D02*
X0106050Y0145420D01*
X0106050Y0147018D02*
X0106450Y0147018D01*
X0106450Y0148617D02*
X0106050Y0148617D01*
X0102066Y0148617D02*
X0100179Y0148617D01*
X0100200Y0147018D02*
X0100750Y0147018D01*
X0100750Y0145420D02*
X0099836Y0145420D01*
X0098949Y0143821D02*
X0100750Y0143821D01*
X0100750Y0142223D02*
X0097771Y0142223D01*
X0099201Y0140624D02*
X0100750Y0140624D01*
X0100809Y0139026D02*
X0099863Y0139026D01*
X0111750Y0145420D02*
X0111850Y0145420D01*
X0111750Y0147018D02*
X0113813Y0147018D01*
X0110434Y0148617D02*
X0146300Y0148617D01*
X0146700Y0148617D02*
X0172700Y0148617D01*
X0172700Y0150215D02*
X0152101Y0150215D01*
X0152058Y0147018D02*
X0154581Y0147018D01*
X0154338Y0146918D02*
X0153016Y0145595D01*
X0152300Y0143868D01*
X0152300Y0141998D01*
X0153016Y0140271D01*
X0154338Y0138949D01*
X0156065Y0138233D01*
X0163935Y0138233D01*
X0165662Y0138949D01*
X0166984Y0140271D01*
X0167700Y0141998D01*
X0167700Y0143868D01*
X0166984Y0145595D01*
X0165662Y0146918D01*
X0163935Y0147633D01*
X0156065Y0147633D01*
X0154338Y0146918D01*
X0152943Y0145420D02*
X0151298Y0145420D01*
X0152300Y0143821D02*
X0149676Y0143821D01*
X0151271Y0142223D02*
X0152300Y0142223D01*
X0151969Y0140624D02*
X0152869Y0140624D01*
X0152200Y0139026D02*
X0154260Y0139026D01*
X0152046Y0137427D02*
X0172700Y0137427D01*
X0172700Y0135829D02*
X0151384Y0135829D01*
X0149858Y0134230D02*
X0172700Y0134230D01*
X0172700Y0132632D02*
X0139800Y0132632D01*
X0139800Y0134230D02*
X0143142Y0134230D01*
X0141616Y0135829D02*
X0139800Y0135829D01*
X0139800Y0137427D02*
X0140954Y0137427D01*
X0140800Y0139026D02*
X0140730Y0139026D01*
X0141650Y0142223D02*
X0141729Y0142223D01*
X0141416Y0143821D02*
X0143324Y0143821D01*
X0141702Y0145420D02*
X0140650Y0145420D01*
X0140942Y0147018D02*
X0138687Y0147018D01*
X0133813Y0147018D02*
X0130051Y0147018D01*
X0131168Y0145420D02*
X0131850Y0145420D01*
X0133110Y0151814D02*
X0109390Y0151814D01*
X0111040Y0153412D02*
X0131460Y0153412D01*
X0130773Y0155011D02*
X0111727Y0155011D01*
X0111950Y0156610D02*
X0130550Y0156610D01*
X0130712Y0158208D02*
X0111788Y0158208D01*
X0114621Y0159807D02*
X0131374Y0159807D01*
X0132911Y0161405D02*
X0116220Y0161405D01*
X0117819Y0163004D02*
X0119644Y0163004D01*
X0122856Y0163004D02*
X0127793Y0163004D01*
X0126474Y0164602D02*
X0125306Y0164602D01*
X0134707Y0163004D02*
X0135200Y0163004D01*
X0146300Y0153412D02*
X0146700Y0153412D01*
X0146700Y0151814D02*
X0146300Y0151814D01*
X0146300Y0150215D02*
X0146700Y0150215D01*
X0165419Y0147018D02*
X0172700Y0147018D01*
X0172700Y0145420D02*
X0167057Y0145420D01*
X0167700Y0143821D02*
X0172700Y0143821D01*
X0172700Y0142223D02*
X0167700Y0142223D01*
X0167131Y0140624D02*
X0172700Y0140624D01*
X0172700Y0139026D02*
X0165740Y0139026D01*
X0172700Y0131033D02*
X0139800Y0131033D01*
X0139800Y0129435D02*
X0172700Y0129435D01*
X0172700Y0127836D02*
X0139800Y0127836D01*
X0139800Y0126238D02*
X0153658Y0126238D01*
X0153016Y0125595D02*
X0152300Y0123868D01*
X0152300Y0121998D01*
X0153016Y0120271D01*
X0154338Y0118949D01*
X0156065Y0118233D01*
X0163935Y0118233D01*
X0165662Y0118949D01*
X0166984Y0120271D01*
X0167700Y0121998D01*
X0167700Y0123868D01*
X0166984Y0125595D01*
X0165662Y0126918D01*
X0163935Y0127633D01*
X0156065Y0127633D01*
X0154338Y0126918D01*
X0153016Y0125595D01*
X0152620Y0124639D02*
X0139800Y0124639D01*
X0140453Y0123041D02*
X0152300Y0123041D01*
X0152530Y0121442D02*
X0141484Y0121442D01*
X0141950Y0119844D02*
X0153443Y0119844D01*
X0156036Y0118245D02*
X0141950Y0118245D01*
X0141369Y0116647D02*
X0172700Y0116647D01*
X0172700Y0118245D02*
X0163964Y0118245D01*
X0166557Y0119844D02*
X0172700Y0119844D01*
X0172700Y0121442D02*
X0167470Y0121442D01*
X0167700Y0123041D02*
X0172700Y0123041D01*
X0172700Y0124639D02*
X0167380Y0124639D01*
X0166342Y0126238D02*
X0172700Y0126238D01*
X0177300Y0121442D02*
X0186701Y0121442D01*
X0186635Y0121645D02*
X0186903Y0120822D01*
X0187296Y0120050D01*
X0187805Y0119350D01*
X0188417Y0118738D01*
X0189117Y0118229D01*
X0189889Y0117836D01*
X0190712Y0117569D01*
X0191567Y0117433D01*
X0191800Y0117433D01*
X0191800Y0122733D01*
X0186500Y0122733D01*
X0186500Y0122500D01*
X0186635Y0121645D01*
X0187446Y0119844D02*
X0177300Y0119844D01*
X0177300Y0118245D02*
X0189095Y0118245D01*
X0191800Y0118245D02*
X0192200Y0118245D01*
X0192200Y0119844D02*
X0191800Y0119844D01*
X0191800Y0121442D02*
X0192200Y0121442D01*
X0194905Y0118245D02*
X0201675Y0118245D01*
X0201453Y0119844D02*
X0196554Y0119844D01*
X0197299Y0121442D02*
X0200187Y0121442D01*
X0200279Y0116647D02*
X0177300Y0116647D01*
X0177300Y0115048D02*
X0199617Y0115048D01*
X0199600Y0113450D02*
X0178486Y0113450D01*
X0180085Y0111851D02*
X0188531Y0111851D01*
X0187219Y0110253D02*
X0181683Y0110253D01*
X0183282Y0108654D02*
X0186600Y0108654D01*
X0186600Y0107056D02*
X0184880Y0107056D01*
X0186479Y0105457D02*
X0187077Y0105457D01*
X0188077Y0103859D02*
X0188188Y0103859D01*
X0184769Y0100662D02*
X0184700Y0100662D01*
X0184700Y0099063D02*
X0185727Y0099063D01*
X0185600Y0097465D02*
X0184700Y0097465D01*
X0184700Y0095866D02*
X0185908Y0095866D01*
X0186779Y0094268D02*
X0184700Y0094268D01*
X0184149Y0092669D02*
X0188994Y0092669D01*
X0187663Y0091071D02*
X0182784Y0091071D01*
X0177216Y0091071D02*
X0166509Y0091071D01*
X0175300Y0094268D02*
X0149528Y0094268D01*
X0151244Y0095866D02*
X0175300Y0095866D01*
X0175300Y0097465D02*
X0151958Y0097465D01*
X0152200Y0099063D02*
X0175300Y0099063D01*
X0175300Y0100662D02*
X0152057Y0100662D01*
X0151395Y0102260D02*
X0175462Y0102260D01*
X0176279Y0103859D02*
X0165445Y0103859D01*
X0165662Y0103949D02*
X0166984Y0105271D01*
X0167700Y0106998D01*
X0167700Y0108868D01*
X0166984Y0110595D01*
X0165662Y0111918D01*
X0163935Y0112633D01*
X0156065Y0112633D01*
X0154338Y0111918D01*
X0153016Y0110595D01*
X0152300Y0108868D01*
X0152300Y0106998D01*
X0153016Y0105271D01*
X0154338Y0103949D01*
X0156065Y0103233D01*
X0163935Y0103233D01*
X0165662Y0103949D01*
X0167062Y0105457D02*
X0178640Y0105457D01*
X0178375Y0107056D02*
X0167700Y0107056D01*
X0167700Y0108654D02*
X0176776Y0108654D01*
X0175178Y0110253D02*
X0167126Y0110253D01*
X0165729Y0111851D02*
X0173579Y0111851D01*
X0172700Y0113450D02*
X0150151Y0113450D01*
X0151523Y0111851D02*
X0154271Y0111851D01*
X0152874Y0110253D02*
X0152163Y0110253D01*
X0152300Y0108654D02*
X0152300Y0108654D01*
X0152300Y0107056D02*
X0151988Y0107056D01*
X0151144Y0105457D02*
X0152938Y0105457D01*
X0154555Y0103859D02*
X0149885Y0103859D01*
X0146700Y0110253D02*
X0146300Y0110253D01*
X0146300Y0111851D02*
X0146700Y0111851D01*
X0146700Y0113450D02*
X0146300Y0113450D01*
X0140176Y0115048D02*
X0172700Y0115048D01*
X0175851Y0092669D02*
X0139800Y0092669D01*
X0139800Y0091071D02*
X0153491Y0091071D01*
X0143472Y0094268D02*
X0139800Y0094268D01*
X0139800Y0095866D02*
X0141756Y0095866D01*
X0141042Y0097465D02*
X0139800Y0097465D01*
X0139800Y0099063D02*
X0140800Y0099063D01*
X0140943Y0100662D02*
X0139800Y0100662D01*
X0140214Y0102260D02*
X0141605Y0102260D01*
X0141236Y0103859D02*
X0143115Y0103859D01*
X0141856Y0105457D02*
X0141650Y0105457D01*
X0140837Y0110253D02*
X0139567Y0110253D01*
X0135200Y0126238D02*
X0134025Y0126238D01*
X0128474Y0126238D02*
X0114025Y0126238D01*
X0115790Y0127836D02*
X0117710Y0127836D01*
X0124790Y0127836D02*
X0126710Y0127836D01*
X0121332Y0145420D02*
X0120650Y0145420D01*
X0122449Y0147018D02*
X0118687Y0147018D01*
X0080063Y0147018D02*
X0076301Y0147018D01*
X0077418Y0145420D02*
X0078100Y0145420D01*
X0044537Y0169398D02*
X0018101Y0169398D01*
X0019628Y0170996D02*
X0042939Y0170996D01*
X0011434Y0163004D02*
X0007100Y0163004D01*
X0007100Y0161405D02*
X0010179Y0161405D01*
X0009600Y0159807D02*
X0007100Y0159807D01*
X0007100Y0158208D02*
X0009600Y0158208D01*
X0010118Y0156610D02*
X0007100Y0156610D01*
X0007100Y0155011D02*
X0011285Y0155011D01*
X0011843Y0153412D02*
X0007100Y0153412D01*
X0007100Y0151814D02*
X0010348Y0151814D01*
X0009686Y0150215D02*
X0007100Y0150215D01*
X0007100Y0148617D02*
X0009600Y0148617D01*
X0009948Y0147018D02*
X0007100Y0147018D01*
X0007100Y0145420D02*
X0010876Y0145420D01*
X0061156Y0206163D02*
X0062890Y0206163D01*
X0058936Y0209360D02*
X0057373Y0209360D01*
X0072110Y0206163D02*
X0073844Y0206163D01*
X0074364Y0209360D02*
X0078936Y0209360D01*
X0077680Y0210959D02*
X0076663Y0210959D01*
X0024477Y0230141D02*
X0018845Y0230141D01*
X0019936Y0231740D02*
X0022925Y0231740D01*
X0022300Y0233338D02*
X0020400Y0233338D01*
X0020400Y0234937D02*
X0022300Y0234937D01*
X0022887Y0236535D02*
X0019767Y0236535D01*
X0018436Y0238134D02*
X0024304Y0238134D01*
X0125846Y0092669D02*
X0126239Y0092669D01*
X0127226Y0091071D02*
X0124225Y0091071D01*
X0123550Y0089472D02*
X0129720Y0089472D01*
X0139660Y0078282D02*
X0196555Y0078282D01*
X0196200Y0076684D02*
X0195386Y0076684D01*
X0197400Y0071888D02*
X0199454Y0071888D01*
X0196957Y0070290D02*
X0212900Y0070290D01*
X0212900Y0068691D02*
X0195895Y0068691D01*
X0193861Y0067093D02*
X0212900Y0067093D01*
X0212900Y0065494D02*
X0195575Y0065494D01*
X0196239Y0063896D02*
X0212900Y0063896D01*
X0212900Y0062297D02*
X0196400Y0062297D01*
X0196127Y0060699D02*
X0212900Y0060699D01*
X0212900Y0059100D02*
X0195304Y0059100D01*
X0194167Y0057502D02*
X0212900Y0057502D01*
X0212900Y0055903D02*
X0196277Y0055903D01*
X0197175Y0054305D02*
X0212900Y0054305D01*
X0212900Y0052706D02*
X0197500Y0052706D01*
X0197352Y0051108D02*
X0212900Y0051108D01*
X0212900Y0049509D02*
X0196674Y0049509D01*
X0195133Y0047911D02*
X0212900Y0047911D01*
X0192200Y0047911D02*
X0191800Y0047911D01*
X0191800Y0049509D02*
X0192200Y0049509D01*
X0192200Y0051108D02*
X0191800Y0051108D01*
X0188794Y0057502D02*
X0184080Y0057502D01*
X0184700Y0059100D02*
X0186696Y0059100D01*
X0185873Y0060699D02*
X0184700Y0060699D01*
X0184700Y0062297D02*
X0185600Y0062297D01*
X0185761Y0063896D02*
X0184700Y0063896D01*
X0184700Y0065494D02*
X0186425Y0065494D01*
X0188139Y0067093D02*
X0184607Y0067093D01*
X0183888Y0068691D02*
X0188105Y0068691D01*
X0187043Y0070290D02*
X0181763Y0070290D01*
X0178237Y0070290D02*
X0166992Y0070290D01*
X0167655Y0071888D02*
X0186600Y0071888D01*
X0186600Y0073487D02*
X0167700Y0073487D01*
X0167196Y0075085D02*
X0187254Y0075085D01*
X0188614Y0076684D02*
X0165896Y0076684D01*
X0165041Y0068691D02*
X0176112Y0068691D01*
X0175393Y0067093D02*
X0151919Y0067093D01*
X0152294Y0068691D02*
X0154959Y0068691D01*
X0153008Y0070290D02*
X0152197Y0070290D01*
X0152345Y0071888D02*
X0151631Y0071888D01*
X0152300Y0073487D02*
X0150399Y0073487D01*
X0146700Y0073487D02*
X0146300Y0073487D01*
X0142011Y0065494D02*
X0140878Y0065494D01*
X0139300Y0057502D02*
X0155748Y0057502D01*
X0153323Y0055903D02*
X0139300Y0055903D01*
X0139300Y0054305D02*
X0152481Y0054305D01*
X0152300Y0052706D02*
X0139300Y0052706D01*
X0139300Y0051108D02*
X0152669Y0051108D01*
X0153777Y0049509D02*
X0141235Y0049509D01*
X0142700Y0044714D02*
X0147750Y0044714D01*
X0145871Y0043115D02*
X0142106Y0043115D01*
X0148899Y0063896D02*
X0175300Y0063896D01*
X0175300Y0065494D02*
X0150989Y0065494D01*
X0194060Y0102260D02*
X0199848Y0102260D01*
X0199600Y0103859D02*
X0195812Y0103859D01*
X0196923Y0105457D02*
X0199786Y0105457D01*
X0200486Y0107056D02*
X0197400Y0107056D01*
X0197400Y0108654D02*
X0202287Y0108654D01*
X0201044Y0110253D02*
X0196781Y0110253D01*
X0195469Y0111851D02*
X0200017Y0111851D01*
X0200635Y0100662D02*
X0195611Y0100662D01*
X0196273Y0099063D02*
X0202646Y0099063D01*
X0199914Y0091071D02*
X0196337Y0091071D01*
X0197202Y0089472D02*
X0197392Y0089472D01*
X0179044Y0140624D02*
X0177300Y0140624D01*
X0080590Y0073487D02*
X0076083Y0073487D01*
X0077328Y0071888D02*
X0078319Y0071888D01*
X0052700Y0068691D02*
X0052300Y0068691D01*
X0052300Y0067093D02*
X0052700Y0067093D01*
X0052700Y0065494D02*
X0052300Y0065494D01*
D19*
X0027500Y0104933D03*
X0022000Y0104933D03*
X0022000Y0112933D03*
X0027500Y0112933D03*
X0023500Y0122433D03*
X0028500Y0125433D03*
X0038500Y0142933D03*
X0027000Y0219933D03*
X0022000Y0219933D03*
X0024000Y0227933D03*
X0030500Y0227433D03*
D20*
X0040000Y0130433D03*
D21*
X0040000Y0130683D01*
X0040004Y0130985D01*
X0040015Y0131287D01*
X0040033Y0131588D01*
X0040058Y0131889D01*
X0040091Y0132190D01*
X0040131Y0132489D01*
X0040178Y0132787D01*
X0040233Y0133085D01*
X0040294Y0133380D01*
X0040363Y0133674D01*
X0040439Y0133967D01*
X0040522Y0134257D01*
X0040612Y0134546D01*
X0040709Y0134832D01*
X0040812Y0135116D01*
X0040923Y0135397D01*
X0041040Y0135675D01*
X0041164Y0135951D01*
X0041295Y0136223D01*
X0041432Y0136492D01*
X0041575Y0136758D01*
X0041725Y0137020D01*
X0041882Y0137279D01*
X0042044Y0137533D01*
X0042213Y0137784D01*
X0042387Y0138030D01*
X0042568Y0138273D01*
X0042754Y0138510D01*
X0042946Y0138744D01*
X0043144Y0138972D01*
X0043347Y0139196D01*
X0043555Y0139414D01*
X0043769Y0139628D01*
X0043987Y0139836D01*
X0044211Y0140039D01*
X0044439Y0140237D01*
X0044673Y0140429D01*
X0044910Y0140615D01*
X0045153Y0140796D01*
X0045399Y0140970D01*
X0045650Y0141139D01*
X0045904Y0141301D01*
X0046163Y0141458D01*
X0046425Y0141608D01*
X0046691Y0141751D01*
X0046960Y0141888D01*
X0047232Y0142019D01*
X0047508Y0142143D01*
X0047786Y0142260D01*
X0048067Y0142371D01*
X0048351Y0142474D01*
X0048637Y0142571D01*
X0048926Y0142661D01*
X0049216Y0142744D01*
X0049509Y0142820D01*
X0049803Y0142889D01*
X0050098Y0142950D01*
X0050396Y0143005D01*
X0050694Y0143052D01*
X0050993Y0143092D01*
X0051294Y0143125D01*
X0051595Y0143150D01*
X0051896Y0143168D01*
X0052198Y0143179D01*
X0052500Y0143183D01*
D22*
X0050000Y0133933D03*
X0175000Y0158933D03*
D23*
X0050000Y0133933D02*
X0046769Y0129289D01*
X0042000Y0122433D01*
X0023500Y0122433D01*
X0028500Y0125433D02*
X0033000Y0129933D01*
X0038500Y0142933D01*
X0027500Y0112933D02*
X0027500Y0104933D01*
X0022000Y0104933D02*
X0022000Y0112933D01*
M02*
