G75*
%MOIN*%
%OFA0B0*%
%FSLAX25Y25*%
%IPPOS*%
%LPD*%
%AMOC8*
5,1,8,0,0,1.08239X$1,22.5*
%
%ADD10C,0.00600*%
%ADD11C,0.00512*%
%ADD12C,0.00300*%
%ADD13C,0.07800*%
%ADD14C,0.06400*%
%ADD15C,0.00500*%
%ADD16R,0.07800X0.07800*%
D10*
X0015000Y0028933D02*
X0005000Y0038933D01*
X0005000Y0248933D01*
X0012500Y0255933D01*
X0056000Y0255933D01*
X0065000Y0264433D01*
X0194500Y0263933D01*
X0205000Y0253933D01*
X0215000Y0253933D01*
X0215000Y0038933D01*
X0205000Y0028933D01*
X0015000Y0028933D01*
D11*
X0005000Y0038933D02*
X0005000Y0001256D01*
X0005256Y0008933D02*
X0015236Y0007909D01*
X0015236Y0007676D02*
X0005256Y0008933D01*
X0015236Y0009957D01*
X0015236Y0010190D02*
X0015236Y0007676D01*
X0015236Y0008421D02*
X0005256Y0008933D01*
X0015236Y0009445D01*
X0015236Y0010190D02*
X0005256Y0008933D01*
X0214744Y0008933D01*
X0204764Y0007909D01*
X0204764Y0007676D02*
X0214744Y0008933D01*
X0204764Y0009957D01*
X0204764Y0010190D02*
X0204764Y0007676D01*
X0204764Y0008421D02*
X0214744Y0008933D01*
X0204764Y0009445D01*
X0204764Y0010190D02*
X0214744Y0008933D01*
X0215000Y0001256D02*
X0215000Y0038933D01*
X0205000Y0028933D02*
X0242677Y0028933D01*
X0235000Y0029189D02*
X0236024Y0039169D01*
X0236257Y0039169D02*
X0235000Y0029189D01*
X0233976Y0039169D01*
X0233743Y0039169D02*
X0236257Y0039169D01*
X0235512Y0039169D02*
X0235000Y0029189D01*
X0234488Y0039169D01*
X0233743Y0039169D02*
X0235000Y0029189D01*
X0235000Y0263677D01*
X0236024Y0253697D01*
X0236257Y0253697D02*
X0235000Y0263677D01*
X0233976Y0253697D01*
X0233743Y0253697D02*
X0236257Y0253697D01*
X0235512Y0253697D02*
X0235000Y0263677D01*
X0234488Y0253697D01*
X0233743Y0253697D02*
X0235000Y0263677D01*
X0242677Y0263933D02*
X0205000Y0263933D01*
D12*
X0231444Y0152223D02*
X0232249Y0152223D01*
X0232249Y0151256D01*
X0232249Y0152223D02*
X0232319Y0152221D01*
X0232388Y0152215D01*
X0232458Y0152206D01*
X0232526Y0152193D01*
X0232594Y0152176D01*
X0232661Y0152156D01*
X0232726Y0152131D01*
X0232790Y0152104D01*
X0232853Y0152073D01*
X0232914Y0152038D01*
X0232972Y0152001D01*
X0233029Y0151960D01*
X0233083Y0151916D01*
X0233135Y0151870D01*
X0233185Y0151820D01*
X0233231Y0151768D01*
X0233275Y0151714D01*
X0233316Y0151657D01*
X0233353Y0151599D01*
X0233388Y0151538D01*
X0233419Y0151475D01*
X0233446Y0151411D01*
X0233471Y0151346D01*
X0233491Y0151279D01*
X0233508Y0151211D01*
X0233521Y0151143D01*
X0233530Y0151073D01*
X0233536Y0151004D01*
X0233538Y0150934D01*
X0232733Y0149343D02*
X0232572Y0149343D01*
X0232524Y0149341D01*
X0232476Y0149336D01*
X0232429Y0149327D01*
X0232382Y0149314D01*
X0232337Y0149298D01*
X0232293Y0149279D01*
X0232250Y0149257D01*
X0232209Y0149231D01*
X0232170Y0149203D01*
X0232134Y0149171D01*
X0232100Y0149137D01*
X0232069Y0149101D01*
X0232040Y0149062D01*
X0232014Y0149021D01*
X0231992Y0148978D01*
X0231973Y0148934D01*
X0231957Y0148889D01*
X0231944Y0148842D01*
X0231935Y0148795D01*
X0231930Y0148747D01*
X0231928Y0148699D01*
X0231927Y0148699D02*
X0231927Y0147732D01*
X0232733Y0147732D01*
X0232733Y0147731D02*
X0232788Y0147733D01*
X0232843Y0147739D01*
X0232897Y0147748D01*
X0232950Y0147761D01*
X0233003Y0147778D01*
X0233054Y0147798D01*
X0233104Y0147821D01*
X0233152Y0147848D01*
X0233198Y0147879D01*
X0233242Y0147912D01*
X0233283Y0147948D01*
X0233322Y0147987D01*
X0233358Y0148028D01*
X0233391Y0148072D01*
X0233422Y0148118D01*
X0233449Y0148166D01*
X0233472Y0148216D01*
X0233492Y0148267D01*
X0233509Y0148320D01*
X0233522Y0148373D01*
X0233531Y0148427D01*
X0233537Y0148482D01*
X0233539Y0148537D01*
X0233537Y0148592D01*
X0233531Y0148647D01*
X0233522Y0148701D01*
X0233509Y0148754D01*
X0233492Y0148807D01*
X0233472Y0148858D01*
X0233449Y0148908D01*
X0233422Y0148956D01*
X0233391Y0149002D01*
X0233358Y0149046D01*
X0233322Y0149087D01*
X0233283Y0149126D01*
X0233242Y0149162D01*
X0233198Y0149195D01*
X0233152Y0149226D01*
X0233104Y0149253D01*
X0233054Y0149276D01*
X0233003Y0149296D01*
X0232950Y0149313D01*
X0232897Y0149326D01*
X0232843Y0149335D01*
X0232788Y0149341D01*
X0232733Y0149343D01*
X0231927Y0147732D02*
X0231857Y0147734D01*
X0231788Y0147740D01*
X0231718Y0147749D01*
X0231650Y0147762D01*
X0231582Y0147779D01*
X0231515Y0147799D01*
X0231450Y0147824D01*
X0231386Y0147851D01*
X0231323Y0147882D01*
X0231262Y0147917D01*
X0231204Y0147954D01*
X0231147Y0147995D01*
X0231093Y0148039D01*
X0231041Y0148085D01*
X0230991Y0148135D01*
X0230945Y0148187D01*
X0230901Y0148241D01*
X0230860Y0148298D01*
X0230823Y0148356D01*
X0230788Y0148417D01*
X0230757Y0148480D01*
X0230730Y0148544D01*
X0230705Y0148609D01*
X0230685Y0148676D01*
X0230668Y0148744D01*
X0230655Y0148812D01*
X0230646Y0148882D01*
X0230640Y0148951D01*
X0230638Y0149021D01*
X0231444Y0150612D02*
X0231605Y0150612D01*
X0231653Y0150614D01*
X0231701Y0150619D01*
X0231748Y0150628D01*
X0231795Y0150641D01*
X0231840Y0150657D01*
X0231884Y0150676D01*
X0231927Y0150698D01*
X0231968Y0150724D01*
X0232007Y0150753D01*
X0232043Y0150784D01*
X0232077Y0150818D01*
X0232108Y0150854D01*
X0232137Y0150893D01*
X0232163Y0150934D01*
X0232185Y0150977D01*
X0232204Y0151021D01*
X0232220Y0151066D01*
X0232233Y0151113D01*
X0232242Y0151160D01*
X0232247Y0151208D01*
X0232249Y0151256D01*
X0231444Y0150611D02*
X0231389Y0150613D01*
X0231334Y0150619D01*
X0231280Y0150628D01*
X0231227Y0150641D01*
X0231174Y0150658D01*
X0231123Y0150678D01*
X0231073Y0150701D01*
X0231025Y0150728D01*
X0230979Y0150759D01*
X0230935Y0150792D01*
X0230894Y0150828D01*
X0230855Y0150867D01*
X0230819Y0150908D01*
X0230786Y0150952D01*
X0230755Y0150998D01*
X0230728Y0151046D01*
X0230705Y0151096D01*
X0230685Y0151147D01*
X0230668Y0151200D01*
X0230655Y0151253D01*
X0230646Y0151307D01*
X0230640Y0151362D01*
X0230638Y0151417D01*
X0230640Y0151472D01*
X0230646Y0151527D01*
X0230655Y0151581D01*
X0230668Y0151634D01*
X0230685Y0151687D01*
X0230705Y0151738D01*
X0230728Y0151788D01*
X0230755Y0151836D01*
X0230786Y0151882D01*
X0230819Y0151926D01*
X0230855Y0151967D01*
X0230894Y0152006D01*
X0230935Y0152042D01*
X0230979Y0152075D01*
X0231025Y0152106D01*
X0231073Y0152133D01*
X0231123Y0152156D01*
X0231174Y0152176D01*
X0231227Y0152193D01*
X0231280Y0152206D01*
X0231334Y0152215D01*
X0231389Y0152221D01*
X0231444Y0152223D01*
X0233377Y0146602D02*
X0233538Y0146602D01*
X0233538Y0146441D01*
X0233377Y0146441D01*
X0233377Y0146602D01*
X0232249Y0145311D02*
X0231444Y0145311D01*
X0232249Y0145311D02*
X0232249Y0144344D01*
X0232249Y0145311D02*
X0232319Y0145309D01*
X0232388Y0145303D01*
X0232458Y0145294D01*
X0232526Y0145281D01*
X0232594Y0145264D01*
X0232661Y0145244D01*
X0232726Y0145219D01*
X0232790Y0145192D01*
X0232853Y0145161D01*
X0232914Y0145126D01*
X0232972Y0145089D01*
X0233029Y0145048D01*
X0233083Y0145004D01*
X0233135Y0144958D01*
X0233185Y0144908D01*
X0233231Y0144856D01*
X0233275Y0144802D01*
X0233316Y0144745D01*
X0233353Y0144687D01*
X0233388Y0144626D01*
X0233419Y0144563D01*
X0233446Y0144499D01*
X0233471Y0144434D01*
X0233491Y0144367D01*
X0233508Y0144299D01*
X0233521Y0144231D01*
X0233530Y0144161D01*
X0233536Y0144092D01*
X0233538Y0144022D01*
X0232894Y0142431D02*
X0232572Y0142431D01*
X0232521Y0142429D01*
X0232471Y0142423D01*
X0232422Y0142413D01*
X0232373Y0142399D01*
X0232326Y0142382D01*
X0232280Y0142361D01*
X0232236Y0142336D01*
X0232193Y0142308D01*
X0232154Y0142277D01*
X0232117Y0142242D01*
X0232082Y0142205D01*
X0232051Y0142166D01*
X0232023Y0142123D01*
X0231998Y0142079D01*
X0231977Y0142033D01*
X0231960Y0141986D01*
X0231946Y0141937D01*
X0231936Y0141888D01*
X0231930Y0141838D01*
X0231928Y0141787D01*
X0231927Y0141787D02*
X0231927Y0140820D01*
X0230638Y0140820D01*
X0230638Y0142431D01*
X0231444Y0143700D02*
X0231605Y0143700D01*
X0231653Y0143702D01*
X0231701Y0143707D01*
X0231748Y0143716D01*
X0231795Y0143729D01*
X0231840Y0143745D01*
X0231884Y0143764D01*
X0231927Y0143786D01*
X0231968Y0143812D01*
X0232007Y0143841D01*
X0232043Y0143872D01*
X0232077Y0143906D01*
X0232108Y0143942D01*
X0232137Y0143981D01*
X0232163Y0144022D01*
X0232185Y0144065D01*
X0232204Y0144109D01*
X0232220Y0144154D01*
X0232233Y0144201D01*
X0232242Y0144248D01*
X0232247Y0144296D01*
X0232249Y0144344D01*
X0231444Y0143699D02*
X0231389Y0143701D01*
X0231334Y0143707D01*
X0231280Y0143716D01*
X0231227Y0143729D01*
X0231174Y0143746D01*
X0231123Y0143766D01*
X0231073Y0143789D01*
X0231025Y0143816D01*
X0230979Y0143847D01*
X0230935Y0143880D01*
X0230894Y0143916D01*
X0230855Y0143955D01*
X0230819Y0143996D01*
X0230786Y0144040D01*
X0230755Y0144086D01*
X0230728Y0144134D01*
X0230705Y0144184D01*
X0230685Y0144235D01*
X0230668Y0144288D01*
X0230655Y0144341D01*
X0230646Y0144395D01*
X0230640Y0144450D01*
X0230638Y0144505D01*
X0230640Y0144560D01*
X0230646Y0144615D01*
X0230655Y0144669D01*
X0230668Y0144722D01*
X0230685Y0144775D01*
X0230705Y0144826D01*
X0230728Y0144876D01*
X0230755Y0144924D01*
X0230786Y0144970D01*
X0230819Y0145014D01*
X0230855Y0145055D01*
X0230894Y0145094D01*
X0230935Y0145130D01*
X0230979Y0145163D01*
X0231025Y0145194D01*
X0231073Y0145221D01*
X0231123Y0145244D01*
X0231174Y0145264D01*
X0231227Y0145281D01*
X0231280Y0145294D01*
X0231334Y0145303D01*
X0231389Y0145309D01*
X0231444Y0145311D01*
X0232894Y0142431D02*
X0232942Y0142429D01*
X0232990Y0142424D01*
X0233037Y0142415D01*
X0233084Y0142402D01*
X0233129Y0142386D01*
X0233173Y0142367D01*
X0233216Y0142345D01*
X0233257Y0142319D01*
X0233296Y0142290D01*
X0233332Y0142259D01*
X0233366Y0142225D01*
X0233397Y0142189D01*
X0233426Y0142150D01*
X0233452Y0142109D01*
X0233474Y0142066D01*
X0233493Y0142022D01*
X0233509Y0141977D01*
X0233522Y0141930D01*
X0233531Y0141883D01*
X0233536Y0141835D01*
X0233538Y0141787D01*
X0233538Y0140820D01*
X0114823Y0013295D02*
X0114179Y0011039D01*
X0115790Y0011039D01*
X0115307Y0011684D02*
X0115307Y0010395D01*
X0112266Y0012006D02*
X0111621Y0012006D01*
X0112266Y0012006D02*
X0112315Y0012008D01*
X0112364Y0012014D01*
X0112413Y0012023D01*
X0112460Y0012036D01*
X0112507Y0012053D01*
X0112552Y0012073D01*
X0112595Y0012096D01*
X0112637Y0012123D01*
X0112676Y0012153D01*
X0112713Y0012186D01*
X0112747Y0012222D01*
X0112778Y0012260D01*
X0112807Y0012300D01*
X0112832Y0012342D01*
X0112854Y0012387D01*
X0112872Y0012432D01*
X0112887Y0012479D01*
X0112898Y0012527D01*
X0112906Y0012576D01*
X0112910Y0012625D01*
X0112910Y0012675D01*
X0112906Y0012724D01*
X0112898Y0012773D01*
X0112887Y0012821D01*
X0112872Y0012868D01*
X0112854Y0012913D01*
X0112832Y0012958D01*
X0112807Y0013000D01*
X0112778Y0013040D01*
X0112747Y0013078D01*
X0112713Y0013114D01*
X0112676Y0013147D01*
X0112637Y0013177D01*
X0112595Y0013204D01*
X0112552Y0013227D01*
X0112507Y0013247D01*
X0112460Y0013264D01*
X0112413Y0013277D01*
X0112364Y0013286D01*
X0112315Y0013292D01*
X0112266Y0013294D01*
X0112266Y0013295D02*
X0111299Y0013295D01*
X0112104Y0012006D02*
X0112159Y0012004D01*
X0112214Y0011998D01*
X0112268Y0011989D01*
X0112321Y0011976D01*
X0112374Y0011959D01*
X0112425Y0011939D01*
X0112475Y0011916D01*
X0112523Y0011889D01*
X0112569Y0011858D01*
X0112613Y0011825D01*
X0112654Y0011789D01*
X0112693Y0011750D01*
X0112729Y0011709D01*
X0112762Y0011665D01*
X0112793Y0011619D01*
X0112820Y0011571D01*
X0112843Y0011521D01*
X0112863Y0011470D01*
X0112880Y0011417D01*
X0112893Y0011364D01*
X0112902Y0011310D01*
X0112908Y0011255D01*
X0112910Y0011200D01*
X0112908Y0011145D01*
X0112902Y0011090D01*
X0112893Y0011036D01*
X0112880Y0010983D01*
X0112863Y0010930D01*
X0112843Y0010879D01*
X0112820Y0010829D01*
X0112793Y0010781D01*
X0112762Y0010735D01*
X0112729Y0010691D01*
X0112693Y0010650D01*
X0112654Y0010611D01*
X0112613Y0010575D01*
X0112569Y0010542D01*
X0112523Y0010511D01*
X0112475Y0010484D01*
X0112425Y0010461D01*
X0112374Y0010441D01*
X0112321Y0010424D01*
X0112268Y0010411D01*
X0112214Y0010402D01*
X0112159Y0010396D01*
X0112104Y0010394D01*
X0112104Y0010395D02*
X0111299Y0010395D01*
X0110169Y0010395D02*
X0110008Y0010395D01*
X0110008Y0010556D01*
X0110169Y0010556D01*
X0110169Y0010395D01*
X0108072Y0010395D02*
X0107267Y0010395D01*
X0108072Y0010394D02*
X0108127Y0010396D01*
X0108182Y0010402D01*
X0108236Y0010411D01*
X0108289Y0010424D01*
X0108342Y0010441D01*
X0108393Y0010461D01*
X0108443Y0010484D01*
X0108491Y0010511D01*
X0108537Y0010542D01*
X0108581Y0010575D01*
X0108622Y0010611D01*
X0108661Y0010650D01*
X0108697Y0010691D01*
X0108730Y0010735D01*
X0108761Y0010781D01*
X0108788Y0010829D01*
X0108811Y0010879D01*
X0108831Y0010930D01*
X0108848Y0010983D01*
X0108861Y0011036D01*
X0108870Y0011090D01*
X0108876Y0011145D01*
X0108878Y0011200D01*
X0108876Y0011255D01*
X0108870Y0011310D01*
X0108861Y0011364D01*
X0108848Y0011417D01*
X0108831Y0011470D01*
X0108811Y0011521D01*
X0108788Y0011571D01*
X0108761Y0011619D01*
X0108730Y0011665D01*
X0108697Y0011709D01*
X0108661Y0011750D01*
X0108622Y0011789D01*
X0108581Y0011825D01*
X0108537Y0011858D01*
X0108491Y0011889D01*
X0108443Y0011916D01*
X0108393Y0011939D01*
X0108342Y0011959D01*
X0108289Y0011976D01*
X0108236Y0011989D01*
X0108182Y0011998D01*
X0108127Y0012004D01*
X0108072Y0012006D01*
X0108234Y0012006D02*
X0107589Y0012006D01*
X0108234Y0012006D02*
X0108283Y0012008D01*
X0108332Y0012014D01*
X0108381Y0012023D01*
X0108428Y0012036D01*
X0108475Y0012053D01*
X0108520Y0012073D01*
X0108563Y0012096D01*
X0108605Y0012123D01*
X0108644Y0012153D01*
X0108681Y0012186D01*
X0108715Y0012222D01*
X0108746Y0012260D01*
X0108775Y0012300D01*
X0108800Y0012342D01*
X0108822Y0012387D01*
X0108840Y0012432D01*
X0108855Y0012479D01*
X0108866Y0012527D01*
X0108874Y0012576D01*
X0108878Y0012625D01*
X0108878Y0012675D01*
X0108874Y0012724D01*
X0108866Y0012773D01*
X0108855Y0012821D01*
X0108840Y0012868D01*
X0108822Y0012913D01*
X0108800Y0012958D01*
X0108775Y0013000D01*
X0108746Y0013040D01*
X0108715Y0013078D01*
X0108681Y0013114D01*
X0108644Y0013147D01*
X0108605Y0013177D01*
X0108563Y0013204D01*
X0108520Y0013227D01*
X0108475Y0013247D01*
X0108428Y0013264D01*
X0108381Y0013277D01*
X0108332Y0013286D01*
X0108283Y0013292D01*
X0108234Y0013294D01*
X0108234Y0013295D02*
X0107267Y0013295D01*
X0105998Y0013295D02*
X0104387Y0013295D01*
X0104387Y0012006D01*
X0105354Y0012006D01*
X0105402Y0012004D01*
X0105450Y0011999D01*
X0105497Y0011990D01*
X0105544Y0011977D01*
X0105589Y0011961D01*
X0105633Y0011942D01*
X0105676Y0011920D01*
X0105717Y0011894D01*
X0105756Y0011865D01*
X0105792Y0011834D01*
X0105826Y0011800D01*
X0105857Y0011764D01*
X0105886Y0011725D01*
X0105912Y0011684D01*
X0105934Y0011641D01*
X0105953Y0011597D01*
X0105969Y0011552D01*
X0105982Y0011505D01*
X0105991Y0011458D01*
X0105996Y0011410D01*
X0105998Y0011362D01*
X0105998Y0011039D01*
X0105996Y0010991D01*
X0105991Y0010943D01*
X0105982Y0010896D01*
X0105969Y0010849D01*
X0105953Y0010804D01*
X0105934Y0010760D01*
X0105912Y0010717D01*
X0105886Y0010676D01*
X0105857Y0010637D01*
X0105826Y0010601D01*
X0105792Y0010567D01*
X0105756Y0010536D01*
X0105717Y0010507D01*
X0105676Y0010481D01*
X0105633Y0010459D01*
X0105589Y0010440D01*
X0105544Y0010424D01*
X0105497Y0010411D01*
X0105450Y0010402D01*
X0105402Y0010397D01*
X0105354Y0010395D01*
X0104387Y0010395D01*
D13*
X0111250Y0057183D03*
X0121250Y0058183D03*
X0131250Y0057183D03*
X0136250Y0068433D03*
X0126250Y0069433D03*
X0116250Y0068433D03*
X0111250Y0094683D03*
X0121250Y0095683D03*
X0131250Y0094683D03*
X0136250Y0105933D03*
X0126250Y0106933D03*
X0116250Y0105933D03*
X0111250Y0130933D03*
X0121250Y0131933D03*
X0131250Y0130933D03*
X0136250Y0142183D03*
X0126250Y0143183D03*
X0116250Y0142183D03*
X0111250Y0167183D03*
X0121250Y0168183D03*
X0131250Y0167183D03*
X0136250Y0178433D03*
X0126250Y0179433D03*
X0116250Y0178433D03*
X0111250Y0202183D03*
X0121250Y0203183D03*
X0131250Y0202183D03*
X0136250Y0213433D03*
X0126250Y0214433D03*
X0116250Y0213433D03*
X0111250Y0237183D03*
X0121250Y0238183D03*
X0131250Y0237183D03*
X0136250Y0248433D03*
X0126250Y0249433D03*
X0116250Y0248433D03*
X0082500Y0248433D03*
X0072500Y0249433D03*
X0062500Y0248433D03*
X0067500Y0238183D03*
X0057500Y0237183D03*
X0077500Y0237183D03*
X0072500Y0214433D03*
X0062500Y0213433D03*
X0067500Y0203183D03*
X0057500Y0202183D03*
X0077500Y0202183D03*
X0082500Y0213433D03*
X0082500Y0178433D03*
X0072500Y0179433D03*
X0062500Y0178433D03*
X0067500Y0168183D03*
X0057500Y0167183D03*
X0077500Y0167183D03*
X0072500Y0143183D03*
X0062500Y0142183D03*
X0067500Y0131933D03*
X0057500Y0130933D03*
X0077500Y0130933D03*
X0082500Y0142183D03*
X0072500Y0106933D03*
X0062500Y0105933D03*
X0067500Y0095683D03*
X0057500Y0094683D03*
X0077500Y0094683D03*
X0082500Y0105933D03*
X0072500Y0069433D03*
X0062500Y0068433D03*
X0067500Y0058183D03*
X0057500Y0057183D03*
X0077500Y0057183D03*
X0082500Y0068433D03*
X0015000Y0068933D03*
X0015000Y0078933D03*
X0015000Y0088933D03*
X0015000Y0098933D03*
X0015000Y0108933D03*
X0015000Y0118933D03*
X0015000Y0128933D03*
X0015000Y0138933D03*
X0015000Y0148933D03*
X0015000Y0158933D03*
X0015000Y0173933D03*
X0015000Y0183933D03*
X0015000Y0193933D03*
X0015000Y0203933D03*
X0015000Y0213933D03*
X0015000Y0223933D03*
X0015000Y0233933D03*
X0015000Y0243933D03*
X0191250Y0237683D03*
X0192250Y0227683D03*
X0191750Y0213183D03*
X0190750Y0203183D03*
X0191750Y0193183D03*
X0205000Y0193933D03*
X0205000Y0203933D03*
X0205000Y0213933D03*
X0205000Y0223933D03*
X0205000Y0233933D03*
X0205000Y0243933D03*
X0192250Y0247683D03*
X0191750Y0177433D03*
X0190750Y0167433D03*
X0191750Y0157433D03*
X0205000Y0153933D03*
X0205000Y0143933D03*
X0205000Y0133933D03*
X0205000Y0123933D03*
X0205000Y0113933D03*
X0205000Y0103933D03*
X0192000Y0107683D03*
X0191000Y0097683D03*
X0192000Y0087683D03*
X0192000Y0072433D03*
X0191000Y0062433D03*
X0192000Y0052433D03*
X0192000Y0122933D03*
X0191000Y0132933D03*
X0192000Y0142933D03*
X0205000Y0163933D03*
X0205000Y0173933D03*
D14*
X0180000Y0170933D02*
X0180000Y0164933D01*
X0163000Y0157933D02*
X0157000Y0157933D01*
X0157000Y0142933D02*
X0163000Y0142933D01*
X0180000Y0135933D02*
X0180000Y0129933D01*
X0163000Y0122933D02*
X0157000Y0122933D01*
X0157000Y0107933D02*
X0163000Y0107933D01*
X0180000Y0100933D02*
X0180000Y0094933D01*
X0163000Y0087933D02*
X0157000Y0087933D01*
X0157000Y0072933D02*
X0163000Y0072933D01*
X0180000Y0065933D02*
X0180000Y0059933D01*
X0163000Y0052933D02*
X0157000Y0052933D01*
X0201000Y0076433D02*
X0207000Y0076433D01*
X0207000Y0086433D02*
X0201000Y0086433D01*
X0163000Y0177933D02*
X0157000Y0177933D01*
X0157000Y0192933D02*
X0163000Y0192933D01*
X0180000Y0199933D02*
X0180000Y0205933D01*
X0163000Y0212933D02*
X0157000Y0212933D01*
X0157000Y0227933D02*
X0163000Y0227933D01*
X0180000Y0234933D02*
X0180000Y0240933D01*
X0163000Y0247933D02*
X0157000Y0247933D01*
X0033000Y0245183D02*
X0027000Y0245183D01*
X0027000Y0234183D02*
X0033000Y0234183D01*
X0035250Y0055933D02*
X0035250Y0049933D01*
X0035250Y0042183D02*
X0035250Y0036183D01*
X0025250Y0036183D02*
X0025250Y0042183D01*
X0025250Y0049933D02*
X0025250Y0055933D01*
X0015250Y0055933D02*
X0015250Y0049933D01*
X0015250Y0042183D02*
X0015250Y0036183D01*
X0045250Y0036183D02*
X0045250Y0042183D01*
X0045250Y0049933D02*
X0045250Y0055933D01*
D15*
X0039100Y0064031D02*
X0038761Y0063826D01*
X0038385Y0063701D01*
X0037990Y0063663D01*
X0037607Y0063710D01*
X0037243Y0063841D01*
X0036918Y0064049D01*
X0036647Y0064324D01*
X0036444Y0064653D01*
X0036320Y0065019D01*
X0036280Y0065403D01*
X0036314Y0065785D01*
X0036432Y0066149D01*
X0036628Y0066478D01*
X0036892Y0066755D01*
X0037212Y0066967D01*
X0037570Y0067101D01*
X0037950Y0067153D01*
X0038351Y0067118D01*
X0038733Y0066995D01*
X0039079Y0066790D01*
X0039370Y0066512D01*
X0039593Y0066177D01*
X0039735Y0065801D01*
X0039790Y0065403D01*
X0039739Y0065010D01*
X0039602Y0064638D01*
X0039385Y0064306D01*
X0039100Y0064031D01*
X0039389Y0064312D02*
X0036659Y0064312D01*
X0036391Y0064811D02*
X0039665Y0064811D01*
X0039778Y0065310D02*
X0036290Y0065310D01*
X0036321Y0065808D02*
X0039732Y0065808D01*
X0039507Y0066307D02*
X0036526Y0066307D01*
X0036968Y0066805D02*
X0039053Y0066805D01*
X0038726Y0063814D02*
X0037317Y0063814D01*
X0027966Y0065052D02*
X0027848Y0064687D01*
X0027652Y0064358D01*
X0027387Y0064081D01*
X0027068Y0063870D01*
X0026709Y0063735D01*
X0026330Y0063683D01*
X0025929Y0063718D01*
X0025547Y0063841D01*
X0025201Y0064047D01*
X0024910Y0064324D01*
X0024687Y0064659D01*
X0024545Y0065035D01*
X0024490Y0065433D01*
X0024541Y0065826D01*
X0024678Y0066198D01*
X0024895Y0066530D01*
X0025180Y0066805D01*
X0025519Y0067011D01*
X0025895Y0067135D01*
X0026290Y0067173D01*
X0026673Y0067126D01*
X0027037Y0066996D01*
X0027362Y0066787D01*
X0027633Y0066512D01*
X0027836Y0066183D01*
X0027960Y0065817D01*
X0028000Y0065433D01*
X0027966Y0065052D01*
X0027888Y0064811D02*
X0024630Y0064811D01*
X0024507Y0065310D02*
X0027989Y0065310D01*
X0027961Y0065808D02*
X0024539Y0065808D01*
X0024749Y0066307D02*
X0027759Y0066307D01*
X0027334Y0066805D02*
X0025179Y0066805D01*
X0024922Y0064312D02*
X0027608Y0064312D01*
X0026920Y0063814D02*
X0025632Y0063814D01*
X0051398Y0081796D02*
X0051187Y0082115D01*
X0051052Y0082474D01*
X0051000Y0082853D01*
X0051035Y0083254D01*
X0051158Y0083636D01*
X0051364Y0083982D01*
X0051641Y0084273D01*
X0051976Y0084496D01*
X0052352Y0084638D01*
X0052750Y0084693D01*
X0053143Y0084642D01*
X0053515Y0084505D01*
X0053847Y0084288D01*
X0054122Y0084003D01*
X0054327Y0083664D01*
X0054452Y0083288D01*
X0054490Y0082893D01*
X0054443Y0082510D01*
X0054313Y0082146D01*
X0054104Y0081821D01*
X0053829Y0081550D01*
X0053500Y0081347D01*
X0053134Y0081223D01*
X0052750Y0081183D01*
X0052368Y0081217D01*
X0052004Y0081335D01*
X0051675Y0081531D01*
X0051398Y0081796D01*
X0051435Y0081760D02*
X0054043Y0081760D01*
X0054353Y0082259D02*
X0051133Y0082259D01*
X0051013Y0082757D02*
X0054473Y0082757D01*
X0054455Y0083256D02*
X0051036Y0083256D01*
X0051228Y0083754D02*
X0054273Y0083754D01*
X0053881Y0084253D02*
X0051621Y0084253D01*
X0052230Y0081262D02*
X0053248Y0081262D01*
X0039355Y0094336D02*
X0039070Y0094061D01*
X0038731Y0093856D01*
X0038355Y0093731D01*
X0037960Y0093693D01*
X0037577Y0093740D01*
X0037213Y0093870D01*
X0036888Y0094079D01*
X0036617Y0094354D01*
X0036414Y0094683D01*
X0036290Y0095049D01*
X0036250Y0095433D01*
X0036284Y0095815D01*
X0036402Y0096179D01*
X0036598Y0096508D01*
X0036863Y0096785D01*
X0037182Y0096996D01*
X0037541Y0097131D01*
X0037920Y0097183D01*
X0038321Y0097148D01*
X0038703Y0097025D01*
X0039049Y0096819D01*
X0039340Y0096542D01*
X0039563Y0096207D01*
X0039705Y0095831D01*
X0039760Y0095433D01*
X0039709Y0095040D01*
X0039572Y0094668D01*
X0039355Y0094336D01*
X0039238Y0094223D02*
X0036746Y0094223D01*
X0036401Y0094722D02*
X0039591Y0094722D01*
X0039732Y0095220D02*
X0036272Y0095220D01*
X0036275Y0095719D02*
X0039720Y0095719D01*
X0039556Y0096217D02*
X0036425Y0096217D01*
X0036796Y0096716D02*
X0039158Y0096716D01*
X0038288Y0093725D02*
X0037702Y0093725D01*
X0027936Y0095081D02*
X0027818Y0094717D01*
X0027622Y0094388D01*
X0027358Y0094111D01*
X0027038Y0093900D01*
X0026680Y0093765D01*
X0026300Y0093713D01*
X0025899Y0093748D01*
X0025517Y0093871D01*
X0025171Y0094077D01*
X0024880Y0094354D01*
X0024657Y0094689D01*
X0024515Y0095065D01*
X0024460Y0095463D01*
X0024511Y0095856D01*
X0024648Y0096228D01*
X0024865Y0096560D01*
X0025150Y0096835D01*
X0025489Y0097040D01*
X0025865Y0097165D01*
X0026260Y0097203D01*
X0026643Y0097156D01*
X0027007Y0097026D01*
X0027332Y0096817D01*
X0027603Y0096542D01*
X0027806Y0096213D01*
X0027930Y0095847D01*
X0027970Y0095463D01*
X0027936Y0095081D01*
X0027948Y0095220D02*
X0024494Y0095220D01*
X0024493Y0095719D02*
X0027944Y0095719D01*
X0027803Y0096217D02*
X0024645Y0096217D01*
X0025026Y0096716D02*
X0027432Y0096716D01*
X0027820Y0094722D02*
X0024645Y0094722D01*
X0025017Y0094223D02*
X0027465Y0094223D01*
X0026386Y0093725D02*
X0026167Y0093725D01*
X0051398Y0118046D02*
X0051187Y0118365D01*
X0051052Y0118724D01*
X0051000Y0119103D01*
X0051035Y0119504D01*
X0051158Y0119886D01*
X0051364Y0120232D01*
X0051641Y0120523D01*
X0051976Y0120746D01*
X0052352Y0120888D01*
X0052750Y0120943D01*
X0053143Y0120892D01*
X0053515Y0120755D01*
X0053847Y0120538D01*
X0054122Y0120253D01*
X0054327Y0119914D01*
X0054452Y0119538D01*
X0054490Y0119143D01*
X0054443Y0118760D01*
X0054313Y0118396D01*
X0054104Y0118071D01*
X0053829Y0117800D01*
X0053500Y0117597D01*
X0053134Y0117473D01*
X0052750Y0117433D01*
X0052368Y0117467D01*
X0052004Y0117585D01*
X0051675Y0117781D01*
X0051398Y0118046D01*
X0051328Y0118152D02*
X0054156Y0118152D01*
X0054404Y0118650D02*
X0051079Y0118650D01*
X0051004Y0119149D02*
X0054489Y0119149D01*
X0054416Y0119647D02*
X0051081Y0119647D01*
X0051312Y0120146D02*
X0054187Y0120146D01*
X0053684Y0120644D02*
X0051823Y0120644D01*
X0051890Y0117653D02*
X0053590Y0117653D01*
X0081030Y0119133D02*
X0081065Y0119534D01*
X0081188Y0119916D01*
X0081394Y0120262D01*
X0081671Y0120553D01*
X0082006Y0120776D01*
X0082382Y0120918D01*
X0082780Y0120973D01*
X0083173Y0120922D01*
X0083545Y0120785D01*
X0083877Y0120568D01*
X0084152Y0120283D01*
X0084357Y0119944D01*
X0084482Y0119568D01*
X0084520Y0119173D01*
X0084473Y0118790D01*
X0084343Y0118426D01*
X0084134Y0118101D01*
X0083859Y0117830D01*
X0083530Y0117627D01*
X0083164Y0117503D01*
X0082780Y0117463D01*
X0082398Y0117497D01*
X0082034Y0117615D01*
X0081705Y0117811D01*
X0081428Y0118076D01*
X0081217Y0118395D01*
X0081082Y0118754D01*
X0081030Y0119133D01*
X0081031Y0119149D02*
X0084517Y0119149D01*
X0084456Y0119647D02*
X0081102Y0119647D01*
X0081324Y0120146D02*
X0084235Y0120146D01*
X0083760Y0120644D02*
X0081808Y0120644D01*
X0081121Y0118650D02*
X0084423Y0118650D01*
X0084167Y0118152D02*
X0081377Y0118152D01*
X0081970Y0117653D02*
X0083572Y0117653D01*
X0092878Y0108728D02*
X0092682Y0108399D01*
X0092564Y0108035D01*
X0092530Y0107653D01*
X0092570Y0107269D01*
X0092694Y0106903D01*
X0092897Y0106574D01*
X0093168Y0106299D01*
X0093493Y0106091D01*
X0093857Y0105960D01*
X0094240Y0105913D01*
X0094635Y0105951D01*
X0095011Y0106076D01*
X0095350Y0106281D01*
X0095635Y0106556D01*
X0095852Y0106888D01*
X0095989Y0107260D01*
X0096040Y0107653D01*
X0095985Y0108051D01*
X0095843Y0108427D01*
X0095620Y0108762D01*
X0095329Y0109040D01*
X0094983Y0109245D01*
X0094601Y0109368D01*
X0094200Y0109403D01*
X0093820Y0109351D01*
X0093462Y0109217D01*
X0093142Y0109005D01*
X0092878Y0108728D01*
X0092849Y0108680D02*
X0095675Y0108680D01*
X0095936Y0108181D02*
X0092611Y0108181D01*
X0092533Y0107683D02*
X0096036Y0107683D01*
X0095961Y0107184D02*
X0092599Y0107184D01*
X0092828Y0106686D02*
X0095720Y0106686D01*
X0095196Y0106187D02*
X0093342Y0106187D01*
X0093404Y0109179D02*
X0095095Y0109179D01*
X0094510Y0100453D02*
X0094893Y0100406D01*
X0095257Y0100276D01*
X0095582Y0100067D01*
X0095853Y0099792D01*
X0096056Y0099463D01*
X0096180Y0099097D01*
X0096220Y0098713D01*
X0096186Y0098331D01*
X0096068Y0097967D01*
X0095872Y0097638D01*
X0095608Y0097361D01*
X0095288Y0097150D01*
X0094930Y0097015D01*
X0094550Y0096963D01*
X0094149Y0096998D01*
X0093767Y0097121D01*
X0093421Y0097327D01*
X0093130Y0097604D01*
X0092907Y0097939D01*
X0092765Y0098315D01*
X0092710Y0098713D01*
X0092761Y0099106D01*
X0092898Y0099478D01*
X0093115Y0099810D01*
X0093400Y0100085D01*
X0093739Y0100290D01*
X0094115Y0100415D01*
X0094510Y0100453D01*
X0095367Y0100205D02*
X0093598Y0100205D01*
X0093048Y0099707D02*
X0095905Y0099707D01*
X0096142Y0099208D02*
X0092799Y0099208D01*
X0092711Y0098710D02*
X0096220Y0098710D01*
X0096147Y0098211D02*
X0092804Y0098211D01*
X0093057Y0097713D02*
X0095917Y0097713D01*
X0095386Y0097214D02*
X0093610Y0097214D01*
X0083877Y0084318D02*
X0084152Y0084033D01*
X0084357Y0083694D01*
X0084482Y0083318D01*
X0084520Y0082923D01*
X0084473Y0082540D01*
X0084343Y0082176D01*
X0084134Y0081851D01*
X0083859Y0081580D01*
X0083530Y0081377D01*
X0083164Y0081253D01*
X0082780Y0081213D01*
X0082398Y0081247D01*
X0082034Y0081365D01*
X0081705Y0081561D01*
X0081428Y0081826D01*
X0081217Y0082145D01*
X0081082Y0082504D01*
X0081030Y0082883D01*
X0081065Y0083284D01*
X0081188Y0083666D01*
X0081394Y0084012D01*
X0081671Y0084303D01*
X0082006Y0084526D01*
X0082382Y0084668D01*
X0082780Y0084723D01*
X0083173Y0084672D01*
X0083545Y0084535D01*
X0083877Y0084318D01*
X0083940Y0084253D02*
X0081623Y0084253D01*
X0081241Y0083754D02*
X0084321Y0083754D01*
X0084488Y0083256D02*
X0081063Y0083256D01*
X0081047Y0082757D02*
X0084500Y0082757D01*
X0084372Y0082259D02*
X0081174Y0082259D01*
X0081496Y0081760D02*
X0084042Y0081760D01*
X0083190Y0081262D02*
X0082352Y0081262D01*
X0093430Y0070055D02*
X0093769Y0070261D01*
X0094145Y0070385D01*
X0094540Y0070423D01*
X0094923Y0070376D01*
X0095287Y0070246D01*
X0095612Y0070037D01*
X0095883Y0069762D01*
X0096086Y0069433D01*
X0096210Y0069067D01*
X0096250Y0068683D01*
X0096216Y0068302D01*
X0096098Y0067937D01*
X0095902Y0067608D01*
X0095637Y0067331D01*
X0095318Y0067120D01*
X0094959Y0066985D01*
X0094580Y0066933D01*
X0094179Y0066968D01*
X0093797Y0067091D01*
X0093451Y0067297D01*
X0093160Y0067574D01*
X0092937Y0067909D01*
X0092795Y0068285D01*
X0092740Y0068683D01*
X0092791Y0069076D01*
X0092928Y0069448D01*
X0093145Y0069780D01*
X0093430Y0070055D01*
X0093162Y0069796D02*
X0095849Y0069796D01*
X0096132Y0069298D02*
X0092873Y0069298D01*
X0092755Y0068799D02*
X0096238Y0068799D01*
X0096216Y0068301D02*
X0092793Y0068301D01*
X0093008Y0067802D02*
X0096018Y0067802D01*
X0095596Y0067304D02*
X0093444Y0067304D01*
X0093872Y0070295D02*
X0095151Y0070295D01*
X0105123Y0081548D02*
X0104848Y0081833D01*
X0104643Y0082172D01*
X0104518Y0082548D01*
X0104480Y0082943D01*
X0104527Y0083326D01*
X0104657Y0083690D01*
X0104866Y0084015D01*
X0105141Y0084286D01*
X0105470Y0084489D01*
X0105836Y0084613D01*
X0106220Y0084653D01*
X0106602Y0084619D01*
X0106966Y0084501D01*
X0107295Y0084305D01*
X0107572Y0084041D01*
X0107783Y0083721D01*
X0107918Y0083363D01*
X0107970Y0082983D01*
X0107935Y0082583D01*
X0107812Y0082200D01*
X0107606Y0081854D01*
X0107329Y0081563D01*
X0106994Y0081341D01*
X0106618Y0081198D01*
X0106220Y0081143D01*
X0105827Y0081194D01*
X0105455Y0081332D01*
X0105123Y0081548D01*
X0104918Y0081760D02*
X0107517Y0081760D01*
X0107831Y0082259D02*
X0104614Y0082259D01*
X0104498Y0082757D02*
X0107950Y0082757D01*
X0107933Y0083256D02*
X0104518Y0083256D01*
X0104699Y0083754D02*
X0107761Y0083754D01*
X0107350Y0084253D02*
X0105108Y0084253D01*
X0105644Y0081262D02*
X0106786Y0081262D01*
X0134510Y0082973D02*
X0134557Y0083356D01*
X0134687Y0083720D01*
X0134896Y0084045D01*
X0135171Y0084316D01*
X0135500Y0084519D01*
X0135866Y0084643D01*
X0136250Y0084683D01*
X0136632Y0084649D01*
X0136996Y0084531D01*
X0137325Y0084335D01*
X0137602Y0084071D01*
X0137813Y0083751D01*
X0137948Y0083393D01*
X0138000Y0083013D01*
X0137965Y0082612D01*
X0137842Y0082230D01*
X0137636Y0081884D01*
X0137359Y0081593D01*
X0137024Y0081370D01*
X0136648Y0081228D01*
X0136250Y0081173D01*
X0135857Y0081224D01*
X0135485Y0081361D01*
X0135153Y0081578D01*
X0134878Y0081863D01*
X0134673Y0082202D01*
X0134548Y0082578D01*
X0134510Y0082973D01*
X0134531Y0082757D02*
X0137978Y0082757D01*
X0137967Y0083256D02*
X0134545Y0083256D01*
X0134710Y0083754D02*
X0137811Y0083754D01*
X0137411Y0084253D02*
X0135107Y0084253D01*
X0134654Y0082259D02*
X0137851Y0082259D01*
X0137519Y0081760D02*
X0134977Y0081760D01*
X0135755Y0081262D02*
X0136737Y0081262D01*
X0145392Y0070505D02*
X0145712Y0070717D01*
X0146070Y0070851D01*
X0146450Y0070903D01*
X0146851Y0070868D01*
X0147233Y0070745D01*
X0147579Y0070540D01*
X0147870Y0070262D01*
X0148093Y0069927D01*
X0148235Y0069551D01*
X0148290Y0069153D01*
X0148239Y0068760D01*
X0148102Y0068388D01*
X0147885Y0068056D01*
X0147600Y0067781D01*
X0147261Y0067576D01*
X0146885Y0067451D01*
X0146490Y0067413D01*
X0146107Y0067460D01*
X0145743Y0067591D01*
X0145418Y0067799D01*
X0145147Y0068074D01*
X0144944Y0068403D01*
X0144820Y0068769D01*
X0144780Y0069153D01*
X0144814Y0069535D01*
X0144932Y0069899D01*
X0145128Y0070228D01*
X0145392Y0070505D01*
X0145191Y0070295D02*
X0147836Y0070295D01*
X0148142Y0069796D02*
X0144899Y0069796D01*
X0144793Y0069298D02*
X0148270Y0069298D01*
X0148244Y0068799D02*
X0144817Y0068799D01*
X0145008Y0068301D02*
X0148044Y0068301D01*
X0147622Y0067802D02*
X0145415Y0067802D01*
X0145916Y0070793D02*
X0147083Y0070793D01*
X0137746Y0047281D02*
X0138075Y0047085D01*
X0138352Y0046821D01*
X0138563Y0046501D01*
X0138698Y0046143D01*
X0138750Y0045763D01*
X0138715Y0045362D01*
X0138592Y0044980D01*
X0138386Y0044634D01*
X0138109Y0044343D01*
X0137774Y0044120D01*
X0137398Y0043978D01*
X0137000Y0043923D01*
X0136607Y0043974D01*
X0136235Y0044111D01*
X0135903Y0044328D01*
X0135628Y0044613D01*
X0135423Y0044952D01*
X0135298Y0045328D01*
X0135260Y0045723D01*
X0135307Y0046106D01*
X0135437Y0046470D01*
X0135646Y0046795D01*
X0135921Y0047066D01*
X0136250Y0047269D01*
X0136616Y0047393D01*
X0137000Y0047433D01*
X0137382Y0047399D01*
X0137746Y0047281D01*
X0137493Y0047363D02*
X0136527Y0047363D01*
X0135716Y0046865D02*
X0138306Y0046865D01*
X0138614Y0046366D02*
X0135400Y0046366D01*
X0135278Y0045868D02*
X0138736Y0045868D01*
X0138716Y0045369D02*
X0135294Y0045369D01*
X0135472Y0044871D02*
X0138527Y0044871D01*
X0138137Y0044372D02*
X0135861Y0044372D01*
X0148785Y0040004D02*
X0148750Y0039603D01*
X0148802Y0039224D01*
X0148937Y0038865D01*
X0149148Y0038546D01*
X0149425Y0038281D01*
X0149754Y0038085D01*
X0150118Y0037967D01*
X0150500Y0037933D01*
X0150884Y0037973D01*
X0151250Y0038097D01*
X0151579Y0038300D01*
X0151854Y0038571D01*
X0152063Y0038896D01*
X0152193Y0039260D01*
X0152240Y0039643D01*
X0152202Y0040038D01*
X0152077Y0040414D01*
X0151872Y0040753D01*
X0151597Y0041038D01*
X0151265Y0041255D01*
X0150893Y0041392D01*
X0150500Y0041443D01*
X0150102Y0041388D01*
X0149726Y0041246D01*
X0149391Y0041023D01*
X0149114Y0040732D01*
X0148908Y0040386D01*
X0148785Y0040004D01*
X0148775Y0039885D02*
X0152217Y0039885D01*
X0152209Y0039387D02*
X0148779Y0039387D01*
X0148928Y0038888D02*
X0152058Y0038888D01*
X0151670Y0038390D02*
X0149311Y0038390D01*
X0148907Y0040384D02*
X0152087Y0040384D01*
X0151747Y0040882D02*
X0149257Y0040882D01*
X0150083Y0041381D02*
X0150923Y0041381D01*
X0178780Y0039633D02*
X0178815Y0040034D01*
X0178938Y0040416D01*
X0179144Y0040762D01*
X0179421Y0041053D01*
X0179756Y0041276D01*
X0180132Y0041418D01*
X0180530Y0041473D01*
X0180923Y0041422D01*
X0181295Y0041285D01*
X0181627Y0041068D01*
X0181902Y0040783D01*
X0182107Y0040444D01*
X0182232Y0040068D01*
X0182270Y0039673D01*
X0182223Y0039290D01*
X0182093Y0038926D01*
X0181884Y0038601D01*
X0181609Y0038330D01*
X0181280Y0038127D01*
X0180914Y0038003D01*
X0180530Y0037963D01*
X0180148Y0037997D01*
X0179784Y0038115D01*
X0179455Y0038311D01*
X0179178Y0038576D01*
X0178967Y0038895D01*
X0178832Y0039254D01*
X0178780Y0039633D01*
X0178813Y0039387D02*
X0182235Y0039387D01*
X0182249Y0039885D02*
X0178802Y0039885D01*
X0178928Y0040384D02*
X0182127Y0040384D01*
X0181806Y0040882D02*
X0179258Y0040882D01*
X0180034Y0041381D02*
X0181034Y0041381D01*
X0182068Y0038888D02*
X0178971Y0038888D01*
X0179372Y0038390D02*
X0181670Y0038390D01*
X0147231Y0097606D02*
X0146855Y0097481D01*
X0146460Y0097443D01*
X0146077Y0097490D01*
X0145713Y0097620D01*
X0145388Y0097829D01*
X0145117Y0098104D01*
X0144914Y0098433D01*
X0144790Y0098799D01*
X0144750Y0099183D01*
X0144784Y0099565D01*
X0144902Y0099929D01*
X0145098Y0100258D01*
X0145363Y0100535D01*
X0145682Y0100746D01*
X0146041Y0100881D01*
X0146420Y0100933D01*
X0146821Y0100898D01*
X0147203Y0100775D01*
X0147549Y0100569D01*
X0147840Y0100292D01*
X0148063Y0099957D01*
X0148205Y0099581D01*
X0148260Y0099183D01*
X0148209Y0098790D01*
X0148072Y0098418D01*
X0147855Y0098086D01*
X0147570Y0097811D01*
X0147231Y0097606D01*
X0147408Y0097713D02*
X0145569Y0097713D01*
X0145051Y0098211D02*
X0147937Y0098211D01*
X0148179Y0098710D02*
X0144820Y0098710D01*
X0144752Y0099208D02*
X0148256Y0099208D01*
X0148157Y0099707D02*
X0144830Y0099707D01*
X0145067Y0100205D02*
X0147898Y0100205D01*
X0147323Y0100704D02*
X0145618Y0100704D01*
X0146316Y0107184D02*
X0146711Y0107184D01*
X0146885Y0107201D02*
X0146490Y0107163D01*
X0146107Y0107210D01*
X0145743Y0107341D01*
X0145418Y0107549D01*
X0145147Y0107824D01*
X0144944Y0108153D01*
X0144820Y0108519D01*
X0144780Y0108903D01*
X0144814Y0109285D01*
X0144932Y0109649D01*
X0145128Y0109978D01*
X0145392Y0110255D01*
X0145712Y0110467D01*
X0146070Y0110601D01*
X0146450Y0110653D01*
X0146851Y0110618D01*
X0147233Y0110495D01*
X0147579Y0110290D01*
X0147870Y0110012D01*
X0148093Y0109677D01*
X0144949Y0109677D01*
X0144804Y0109179D02*
X0148252Y0109179D01*
X0148235Y0109301D02*
X0148290Y0108903D01*
X0148239Y0108510D01*
X0148102Y0108138D01*
X0147885Y0107806D01*
X0147600Y0107531D01*
X0147261Y0107326D01*
X0146885Y0107201D01*
X0147757Y0107683D02*
X0145286Y0107683D01*
X0144935Y0108181D02*
X0148117Y0108181D01*
X0148261Y0108680D02*
X0144803Y0108680D01*
X0145316Y0110176D02*
X0147699Y0110176D01*
X0148093Y0109677D02*
X0148235Y0109301D01*
X0137636Y0118134D02*
X0137359Y0117843D01*
X0137024Y0117620D01*
X0136648Y0117478D01*
X0136250Y0117423D01*
X0135857Y0117474D01*
X0135485Y0117611D01*
X0135153Y0117828D01*
X0134878Y0118113D01*
X0134673Y0118452D01*
X0134548Y0118828D01*
X0134510Y0119223D01*
X0134557Y0119606D01*
X0134687Y0119970D01*
X0134896Y0120295D01*
X0135171Y0120566D01*
X0135500Y0120769D01*
X0135866Y0120893D01*
X0136250Y0120933D01*
X0136632Y0120899D01*
X0136996Y0120781D01*
X0137325Y0120585D01*
X0137602Y0120321D01*
X0137813Y0120001D01*
X0137948Y0119643D01*
X0138000Y0119263D01*
X0137965Y0118862D01*
X0137842Y0118480D01*
X0137636Y0118134D01*
X0137647Y0118152D02*
X0134854Y0118152D01*
X0134607Y0118650D02*
X0137897Y0118650D01*
X0137990Y0119149D02*
X0134517Y0119149D01*
X0134571Y0119647D02*
X0137946Y0119647D01*
X0137718Y0120146D02*
X0134800Y0120146D01*
X0135298Y0120644D02*
X0137225Y0120644D01*
X0137074Y0117653D02*
X0135421Y0117653D01*
X0145713Y0137370D02*
X0145388Y0137579D01*
X0145117Y0137854D01*
X0144914Y0138183D01*
X0144790Y0138549D01*
X0144750Y0138933D01*
X0144784Y0139315D01*
X0144902Y0139679D01*
X0145098Y0140008D01*
X0145363Y0140285D01*
X0145682Y0140496D01*
X0146041Y0140631D01*
X0146420Y0140683D01*
X0146821Y0140648D01*
X0147203Y0140525D01*
X0147549Y0140319D01*
X0147840Y0140042D01*
X0148063Y0139707D01*
X0148205Y0139331D01*
X0148260Y0138933D01*
X0148209Y0138540D01*
X0148072Y0138168D01*
X0147855Y0137836D01*
X0147570Y0137561D01*
X0147231Y0137356D01*
X0146855Y0137231D01*
X0146460Y0137193D01*
X0146077Y0137240D01*
X0145713Y0137370D01*
X0145373Y0137594D02*
X0147604Y0137594D01*
X0148022Y0138092D02*
X0144970Y0138092D01*
X0144786Y0138591D02*
X0148215Y0138591D01*
X0148238Y0139089D02*
X0144764Y0139089D01*
X0144872Y0139588D02*
X0148108Y0139588D01*
X0147794Y0140086D02*
X0145173Y0140086D01*
X0145917Y0140585D02*
X0147017Y0140585D01*
X0146490Y0146913D02*
X0146107Y0146960D01*
X0145743Y0147091D01*
X0145418Y0147299D01*
X0145147Y0147574D01*
X0144944Y0147903D01*
X0144820Y0148269D01*
X0144780Y0148653D01*
X0144814Y0149035D01*
X0144932Y0149399D01*
X0145128Y0149728D01*
X0145392Y0150005D01*
X0145712Y0150217D01*
X0146070Y0150351D01*
X0146450Y0150403D01*
X0146851Y0150368D01*
X0147233Y0150245D01*
X0147579Y0150040D01*
X0147870Y0149762D01*
X0148093Y0149427D01*
X0148235Y0149051D01*
X0148290Y0148653D01*
X0148239Y0148260D01*
X0148102Y0147888D01*
X0147885Y0147556D01*
X0147600Y0147281D01*
X0147261Y0147076D01*
X0146885Y0146951D01*
X0146490Y0146913D01*
X0145813Y0147065D02*
X0147230Y0147065D01*
X0147890Y0147564D02*
X0145157Y0147564D01*
X0144890Y0148062D02*
X0148166Y0148062D01*
X0148278Y0148561D02*
X0144790Y0148561D01*
X0144822Y0149059D02*
X0148232Y0149059D01*
X0148006Y0149558D02*
X0145027Y0149558D01*
X0145470Y0150056D02*
X0147550Y0150056D01*
X0137842Y0155980D02*
X0137636Y0155634D01*
X0137359Y0155343D01*
X0137024Y0155120D01*
X0136648Y0154978D01*
X0136250Y0154923D01*
X0135857Y0154974D01*
X0135485Y0155111D01*
X0135153Y0155328D01*
X0134878Y0155613D01*
X0134673Y0155952D01*
X0134548Y0156328D01*
X0134510Y0156723D01*
X0134557Y0157106D01*
X0134687Y0157470D01*
X0134896Y0157795D01*
X0135171Y0158066D01*
X0135500Y0158269D01*
X0135866Y0158393D01*
X0136250Y0158433D01*
X0136632Y0158399D01*
X0136996Y0158281D01*
X0137325Y0158085D01*
X0137602Y0157821D01*
X0137813Y0157501D01*
X0137948Y0157143D01*
X0138000Y0156763D01*
X0137965Y0156362D01*
X0137842Y0155980D01*
X0137861Y0156039D02*
X0134644Y0156039D01*
X0134528Y0156537D02*
X0137980Y0156537D01*
X0137963Y0157036D02*
X0134548Y0157036D01*
X0134729Y0157534D02*
X0137791Y0157534D01*
X0137380Y0158033D02*
X0135137Y0158033D01*
X0134948Y0155540D02*
X0137547Y0155540D01*
X0136816Y0155042D02*
X0135675Y0155042D01*
X0145713Y0177120D02*
X0145388Y0177329D01*
X0145117Y0177604D01*
X0144914Y0177933D01*
X0144790Y0178299D01*
X0144750Y0178683D01*
X0144784Y0179065D01*
X0144902Y0179429D01*
X0145098Y0179758D01*
X0145363Y0180035D01*
X0145682Y0180246D01*
X0146041Y0180381D01*
X0146420Y0180433D01*
X0146821Y0180398D01*
X0147203Y0180275D01*
X0147549Y0180069D01*
X0147840Y0179792D01*
X0148063Y0179457D01*
X0148205Y0179081D01*
X0148260Y0178683D01*
X0148209Y0178290D01*
X0148072Y0177918D01*
X0147855Y0177586D01*
X0147570Y0177311D01*
X0147231Y0177106D01*
X0146855Y0176981D01*
X0146460Y0176943D01*
X0146077Y0176990D01*
X0145713Y0177120D01*
X0146190Y0176976D02*
X0146803Y0176976D01*
X0147740Y0177475D02*
X0145245Y0177475D01*
X0144901Y0177973D02*
X0148092Y0177973D01*
X0148232Y0178472D02*
X0144772Y0178472D01*
X0144776Y0178970D02*
X0148220Y0178970D01*
X0148055Y0179469D02*
X0144926Y0179469D01*
X0145298Y0179967D02*
X0147657Y0179967D01*
X0147740Y0186163D02*
X0147357Y0186210D01*
X0146993Y0186341D01*
X0146668Y0186549D01*
X0146397Y0186824D01*
X0146194Y0187153D01*
X0146070Y0187519D01*
X0146030Y0187903D01*
X0146064Y0188285D01*
X0146182Y0188649D01*
X0146378Y0188978D01*
X0146642Y0189255D01*
X0146962Y0189467D01*
X0147320Y0189601D01*
X0147700Y0189653D01*
X0148101Y0189618D01*
X0148483Y0189495D01*
X0148829Y0189290D01*
X0149120Y0189012D01*
X0149343Y0188677D01*
X0149485Y0188301D01*
X0149540Y0187903D01*
X0149489Y0187510D01*
X0149352Y0187138D01*
X0149135Y0186806D01*
X0148850Y0186531D01*
X0148511Y0186326D01*
X0148135Y0186201D01*
X0147740Y0186163D01*
X0146826Y0186448D02*
X0148713Y0186448D01*
X0149226Y0186946D02*
X0146322Y0186946D01*
X0146095Y0187445D02*
X0149465Y0187445D01*
X0149534Y0187943D02*
X0146033Y0187943D01*
X0146115Y0188442D02*
X0149432Y0188442D01*
X0149168Y0188940D02*
X0146355Y0188940D01*
X0146920Y0189439D02*
X0148578Y0189439D01*
X0137965Y0191362D02*
X0137842Y0190980D01*
X0137636Y0190634D01*
X0137359Y0190343D01*
X0137024Y0190120D01*
X0136648Y0189978D01*
X0136250Y0189923D01*
X0135857Y0189974D01*
X0135485Y0190111D01*
X0135153Y0190328D01*
X0134878Y0190613D01*
X0134673Y0190952D01*
X0134548Y0191328D01*
X0134510Y0191723D01*
X0134557Y0192106D01*
X0134687Y0192470D01*
X0134896Y0192795D01*
X0135171Y0193066D01*
X0135500Y0193269D01*
X0135866Y0193393D01*
X0136250Y0193433D01*
X0136632Y0193399D01*
X0136996Y0193281D01*
X0137325Y0193085D01*
X0137602Y0192821D01*
X0137813Y0192501D01*
X0137948Y0192143D01*
X0138000Y0191763D01*
X0137965Y0191362D01*
X0137971Y0191433D02*
X0134538Y0191433D01*
X0134536Y0191931D02*
X0137977Y0191931D01*
X0137840Y0192430D02*
X0134673Y0192430D01*
X0135031Y0192928D02*
X0137489Y0192928D01*
X0136319Y0193427D02*
X0136191Y0193427D01*
X0134683Y0190934D02*
X0137815Y0190934D01*
X0137448Y0190436D02*
X0135049Y0190436D01*
X0136141Y0189937D02*
X0136352Y0189937D01*
X0146963Y0216370D02*
X0146638Y0216579D01*
X0146367Y0216854D01*
X0146164Y0217183D01*
X0146040Y0217549D01*
X0146000Y0217933D01*
X0146034Y0218315D01*
X0146152Y0218679D01*
X0146348Y0219008D01*
X0146613Y0219285D01*
X0146932Y0219496D01*
X0147291Y0219631D01*
X0147670Y0219683D01*
X0148071Y0219648D01*
X0148453Y0219525D01*
X0148799Y0219319D01*
X0149090Y0219042D01*
X0149313Y0218707D01*
X0149455Y0218331D01*
X0149510Y0217933D01*
X0149459Y0217540D01*
X0149322Y0217168D01*
X0149105Y0216836D01*
X0148820Y0216561D01*
X0148481Y0216356D01*
X0148105Y0216231D01*
X0147710Y0216193D01*
X0147327Y0216240D01*
X0146963Y0216370D01*
X0146997Y0216358D02*
X0148486Y0216358D01*
X0149119Y0216857D02*
X0146365Y0216857D01*
X0146106Y0217355D02*
X0149391Y0217355D01*
X0149500Y0217854D02*
X0146008Y0217854D01*
X0146046Y0218352D02*
X0149447Y0218352D01*
X0149217Y0218851D02*
X0146254Y0218851D01*
X0146710Y0219350D02*
X0148748Y0219350D01*
X0148580Y0225683D02*
X0148179Y0225718D01*
X0147797Y0225841D01*
X0147451Y0226047D01*
X0147160Y0226324D01*
X0146937Y0226659D01*
X0146795Y0227035D01*
X0146740Y0227433D01*
X0146791Y0227826D01*
X0146928Y0228198D01*
X0147145Y0228530D01*
X0147430Y0228805D01*
X0147769Y0229011D01*
X0148145Y0229135D01*
X0148540Y0229173D01*
X0148923Y0229126D01*
X0149287Y0228996D01*
X0149612Y0228787D01*
X0149883Y0228512D01*
X0150086Y0228183D01*
X0150210Y0227817D01*
X0150250Y0227433D01*
X0150216Y0227052D01*
X0150098Y0226687D01*
X0149902Y0226358D01*
X0149637Y0226081D01*
X0149318Y0225870D01*
X0148959Y0225735D01*
X0148580Y0225683D01*
X0149213Y0225830D02*
X0147831Y0225830D01*
X0147156Y0226329D02*
X0149874Y0226329D01*
X0150143Y0226827D02*
X0146874Y0226827D01*
X0146755Y0227326D02*
X0150240Y0227326D01*
X0150208Y0227824D02*
X0146791Y0227824D01*
X0147010Y0228323D02*
X0150000Y0228323D01*
X0149559Y0228821D02*
X0147456Y0228821D01*
X0139198Y0227143D02*
X0139250Y0226763D01*
X0139215Y0226362D01*
X0139092Y0225980D01*
X0138886Y0225634D01*
X0138609Y0225343D01*
X0138274Y0225120D01*
X0137898Y0224978D01*
X0137500Y0224923D01*
X0137107Y0224974D01*
X0136735Y0225111D01*
X0136403Y0225328D01*
X0136128Y0225613D01*
X0135923Y0225952D01*
X0135798Y0226328D01*
X0135760Y0226723D01*
X0135807Y0227106D01*
X0135937Y0227470D01*
X0136146Y0227795D01*
X0136421Y0228066D01*
X0136750Y0228269D01*
X0137116Y0228393D01*
X0137500Y0228433D01*
X0137882Y0228399D01*
X0138246Y0228281D01*
X0138575Y0228085D01*
X0138852Y0227821D01*
X0139063Y0227501D01*
X0139198Y0227143D01*
X0139129Y0227326D02*
X0135886Y0227326D01*
X0135773Y0226827D02*
X0139241Y0226827D01*
X0139204Y0226329D02*
X0135798Y0226329D01*
X0135996Y0225830D02*
X0139003Y0225830D01*
X0138592Y0225332D02*
X0136400Y0225332D01*
X0136175Y0227824D02*
X0138848Y0227824D01*
X0138117Y0228323D02*
X0136909Y0228323D01*
X0147767Y0255871D02*
X0147421Y0256077D01*
X0147130Y0256354D01*
X0146907Y0256689D01*
X0146765Y0257065D01*
X0146710Y0257463D01*
X0146761Y0257856D01*
X0146898Y0258228D01*
X0147115Y0258560D01*
X0147400Y0258835D01*
X0147739Y0259040D01*
X0148115Y0259165D01*
X0148510Y0259203D01*
X0148893Y0259156D01*
X0149257Y0259026D01*
X0149582Y0258817D01*
X0149853Y0258542D01*
X0150056Y0258213D01*
X0150180Y0257847D01*
X0150220Y0257463D01*
X0150186Y0257081D01*
X0150068Y0256717D01*
X0149872Y0256388D01*
X0149608Y0256111D01*
X0149288Y0255900D01*
X0148930Y0255765D01*
X0148550Y0255713D01*
X0148149Y0255748D01*
X0147767Y0255871D01*
X0148232Y0255741D02*
X0148754Y0255741D01*
X0149730Y0256239D02*
X0147250Y0256239D01*
X0146889Y0256738D02*
X0150075Y0256738D01*
X0150200Y0257236D02*
X0146742Y0257236D01*
X0146746Y0257735D02*
X0150192Y0257735D01*
X0150043Y0258233D02*
X0146902Y0258233D01*
X0147293Y0258732D02*
X0149666Y0258732D01*
X0108822Y0227791D02*
X0109033Y0227471D01*
X0109168Y0227113D01*
X0109220Y0226733D01*
X0109185Y0226333D01*
X0109062Y0225950D01*
X0108856Y0225604D01*
X0108579Y0225313D01*
X0108244Y0225091D01*
X0107868Y0224948D01*
X0107470Y0224893D01*
X0107077Y0224944D01*
X0106705Y0225082D01*
X0106373Y0225298D01*
X0106098Y0225583D01*
X0105893Y0225922D01*
X0105768Y0226298D01*
X0105730Y0226693D01*
X0105777Y0227076D01*
X0105907Y0227440D01*
X0106116Y0227765D01*
X0106391Y0228036D01*
X0106720Y0228239D01*
X0107086Y0228363D01*
X0107470Y0228403D01*
X0107852Y0228369D01*
X0108216Y0228251D01*
X0108545Y0228055D01*
X0108822Y0227791D01*
X0108787Y0227824D02*
X0106176Y0227824D01*
X0105866Y0227326D02*
X0109088Y0227326D01*
X0109207Y0226827D02*
X0105747Y0226827D01*
X0105765Y0226329D02*
X0109184Y0226329D01*
X0108991Y0225830D02*
X0105948Y0225830D01*
X0106341Y0225332D02*
X0108597Y0225332D01*
X0107995Y0228323D02*
X0106967Y0228323D01*
X0096250Y0227433D02*
X0096210Y0227817D01*
X0096086Y0228183D01*
X0095883Y0228512D01*
X0095612Y0228787D01*
X0095287Y0228996D01*
X0094923Y0229126D01*
X0094540Y0229173D01*
X0094145Y0229135D01*
X0093769Y0229011D01*
X0093430Y0228805D01*
X0093145Y0228530D01*
X0092928Y0228198D01*
X0092791Y0227826D01*
X0092740Y0227433D01*
X0092795Y0227035D01*
X0092937Y0226659D01*
X0093160Y0226324D01*
X0093451Y0226047D01*
X0093797Y0225841D01*
X0094179Y0225718D01*
X0094580Y0225683D01*
X0094959Y0225735D01*
X0095318Y0225870D01*
X0095637Y0226081D01*
X0095902Y0226358D01*
X0096098Y0226687D01*
X0096216Y0227052D01*
X0096250Y0227433D01*
X0096240Y0227326D02*
X0092755Y0227326D01*
X0092791Y0227824D02*
X0096208Y0227824D01*
X0096000Y0228323D02*
X0093010Y0228323D01*
X0093456Y0228821D02*
X0095559Y0228821D01*
X0096143Y0226827D02*
X0092874Y0226827D01*
X0093156Y0226329D02*
X0095874Y0226329D01*
X0095213Y0225830D02*
X0093831Y0225830D01*
X0094510Y0219203D02*
X0094893Y0219156D01*
X0095257Y0219026D01*
X0095582Y0218817D01*
X0095853Y0218542D01*
X0096056Y0218213D01*
X0096180Y0217847D01*
X0096220Y0217463D01*
X0096186Y0217081D01*
X0096068Y0216717D01*
X0095872Y0216388D01*
X0095608Y0216111D01*
X0095288Y0215900D01*
X0094930Y0215765D01*
X0094550Y0215713D01*
X0094149Y0215748D01*
X0093767Y0215871D01*
X0093421Y0216077D01*
X0093130Y0216354D01*
X0092907Y0216689D01*
X0092765Y0217065D01*
X0092710Y0217463D01*
X0092761Y0217856D01*
X0092898Y0218228D01*
X0093115Y0218560D01*
X0093400Y0218835D01*
X0093739Y0219040D01*
X0094115Y0219165D01*
X0094510Y0219203D01*
X0095530Y0218851D02*
X0093426Y0218851D01*
X0092980Y0218352D02*
X0095970Y0218352D01*
X0096178Y0217854D02*
X0092761Y0217854D01*
X0092725Y0217355D02*
X0096211Y0217355D01*
X0096113Y0216857D02*
X0092844Y0216857D01*
X0093127Y0216358D02*
X0095844Y0216358D01*
X0095183Y0215860D02*
X0093802Y0215860D01*
X0084134Y0225601D02*
X0083859Y0225330D01*
X0083530Y0225127D01*
X0083164Y0225003D01*
X0082780Y0224963D01*
X0082398Y0224997D01*
X0082034Y0225115D01*
X0081705Y0225311D01*
X0081428Y0225576D01*
X0081217Y0225895D01*
X0081082Y0226254D01*
X0081030Y0226633D01*
X0081065Y0227034D01*
X0081188Y0227416D01*
X0081394Y0227762D01*
X0081671Y0228053D01*
X0082006Y0228276D01*
X0082382Y0228418D01*
X0082780Y0228473D01*
X0083173Y0228422D01*
X0083545Y0228285D01*
X0083877Y0228068D01*
X0084152Y0227783D01*
X0084357Y0227444D01*
X0084482Y0227068D01*
X0084520Y0226673D01*
X0084473Y0226290D01*
X0084343Y0225926D01*
X0084134Y0225601D01*
X0084281Y0225830D02*
X0081259Y0225830D01*
X0081071Y0226329D02*
X0084478Y0226329D01*
X0084505Y0226827D02*
X0081047Y0226827D01*
X0081159Y0227326D02*
X0084397Y0227326D01*
X0084113Y0227824D02*
X0081453Y0227824D01*
X0082130Y0228323D02*
X0083441Y0228323D01*
X0083860Y0225332D02*
X0081683Y0225332D01*
X0054490Y0226643D02*
X0054443Y0226260D01*
X0054313Y0225896D01*
X0054104Y0225571D01*
X0053829Y0225300D01*
X0053500Y0225097D01*
X0053134Y0224973D01*
X0052750Y0224933D01*
X0052368Y0224967D01*
X0052004Y0225085D01*
X0051675Y0225281D01*
X0051398Y0225546D01*
X0051187Y0225865D01*
X0051052Y0226224D01*
X0051000Y0226603D01*
X0051035Y0227004D01*
X0051158Y0227386D01*
X0051364Y0227732D01*
X0051641Y0228023D01*
X0051976Y0228246D01*
X0052352Y0228388D01*
X0052750Y0228443D01*
X0053143Y0228392D01*
X0053515Y0228255D01*
X0053847Y0228038D01*
X0054122Y0227753D01*
X0054327Y0227414D01*
X0054452Y0227038D01*
X0054490Y0226643D01*
X0054472Y0226827D02*
X0051020Y0226827D01*
X0051037Y0226329D02*
X0054452Y0226329D01*
X0054270Y0225830D02*
X0051210Y0225830D01*
X0051622Y0225332D02*
X0053861Y0225332D01*
X0054357Y0227326D02*
X0051139Y0227326D01*
X0051451Y0227824D02*
X0054054Y0227824D01*
X0053330Y0228323D02*
X0052179Y0228323D01*
X0052750Y0193443D02*
X0053143Y0193392D01*
X0053515Y0193255D01*
X0053847Y0193038D01*
X0054122Y0192753D01*
X0054327Y0192414D01*
X0054452Y0192038D01*
X0054490Y0191643D01*
X0054443Y0191260D01*
X0054313Y0190896D01*
X0054104Y0190571D01*
X0053829Y0190300D01*
X0053500Y0190097D01*
X0053134Y0189973D01*
X0052750Y0189933D01*
X0052368Y0189967D01*
X0052004Y0190085D01*
X0051675Y0190281D01*
X0051398Y0190546D01*
X0051187Y0190865D01*
X0051052Y0191224D01*
X0051000Y0191603D01*
X0051035Y0192004D01*
X0051158Y0192386D01*
X0051364Y0192732D01*
X0051641Y0193023D01*
X0051976Y0193246D01*
X0052352Y0193388D01*
X0052750Y0193443D01*
X0052634Y0193427D02*
X0052873Y0193427D01*
X0053953Y0192928D02*
X0051550Y0192928D01*
X0051184Y0192430D02*
X0054318Y0192430D01*
X0054462Y0191931D02*
X0051029Y0191931D01*
X0051023Y0191433D02*
X0054464Y0191433D01*
X0054326Y0190934D02*
X0051161Y0190934D01*
X0051513Y0190436D02*
X0053967Y0190436D01*
X0052791Y0189937D02*
X0052702Y0189937D01*
X0081030Y0191633D02*
X0081065Y0192034D01*
X0081188Y0192416D01*
X0081394Y0192762D01*
X0081671Y0193053D01*
X0082006Y0193276D01*
X0082382Y0193418D01*
X0082780Y0193473D01*
X0083173Y0193422D01*
X0083545Y0193285D01*
X0083877Y0193068D01*
X0084152Y0192783D01*
X0084357Y0192444D01*
X0084482Y0192068D01*
X0084520Y0191673D01*
X0084473Y0191290D01*
X0084343Y0190926D01*
X0084134Y0190601D01*
X0083859Y0190330D01*
X0083530Y0190127D01*
X0083164Y0190003D01*
X0082780Y0189963D01*
X0082398Y0189997D01*
X0082034Y0190115D01*
X0081705Y0190311D01*
X0081428Y0190576D01*
X0081217Y0190895D01*
X0081082Y0191254D01*
X0081030Y0191633D01*
X0081057Y0191433D02*
X0084491Y0191433D01*
X0084495Y0191931D02*
X0081056Y0191931D01*
X0081196Y0192430D02*
X0084362Y0192430D01*
X0084012Y0192928D02*
X0081552Y0192928D01*
X0082447Y0193427D02*
X0083134Y0193427D01*
X0084345Y0190934D02*
X0081202Y0190934D01*
X0081574Y0190436D02*
X0083966Y0190436D01*
X0092791Y0187826D02*
X0092928Y0188198D01*
X0093145Y0188530D01*
X0093430Y0188805D01*
X0093769Y0189011D01*
X0094145Y0189135D01*
X0094540Y0189173D01*
X0094923Y0189126D01*
X0095287Y0188996D01*
X0095612Y0188787D01*
X0095883Y0188512D01*
X0096086Y0188183D01*
X0096210Y0187817D01*
X0096250Y0187433D01*
X0096216Y0187052D01*
X0096098Y0186687D01*
X0095902Y0186358D01*
X0095637Y0186081D01*
X0095318Y0185870D01*
X0094959Y0185735D01*
X0094580Y0185683D01*
X0094179Y0185718D01*
X0093797Y0185841D01*
X0093451Y0186047D01*
X0093160Y0186324D01*
X0092937Y0186659D01*
X0092795Y0187035D01*
X0092740Y0187433D01*
X0092791Y0187826D01*
X0092834Y0187943D02*
X0096167Y0187943D01*
X0096249Y0187445D02*
X0092742Y0187445D01*
X0092829Y0186946D02*
X0096182Y0186946D01*
X0095955Y0186448D02*
X0093077Y0186448D01*
X0093615Y0185949D02*
X0095438Y0185949D01*
X0095926Y0188442D02*
X0093087Y0188442D01*
X0093653Y0188940D02*
X0095373Y0188940D01*
X0104518Y0191298D02*
X0104480Y0191693D01*
X0104527Y0192076D01*
X0104657Y0192440D01*
X0104866Y0192765D01*
X0105141Y0193036D01*
X0105470Y0193239D01*
X0105836Y0193363D01*
X0106220Y0193403D01*
X0106602Y0193369D01*
X0106966Y0193251D01*
X0107295Y0193055D01*
X0107572Y0192791D01*
X0107783Y0192471D01*
X0107918Y0192113D01*
X0107970Y0191733D01*
X0107935Y0191333D01*
X0107812Y0190950D01*
X0107606Y0190604D01*
X0107329Y0190313D01*
X0106994Y0190091D01*
X0106618Y0189948D01*
X0106220Y0189893D01*
X0105827Y0189944D01*
X0105455Y0190082D01*
X0105123Y0190298D01*
X0104848Y0190583D01*
X0104643Y0190922D01*
X0104518Y0191298D01*
X0104505Y0191433D02*
X0107944Y0191433D01*
X0107943Y0191931D02*
X0104509Y0191931D01*
X0104654Y0192430D02*
X0107799Y0192430D01*
X0107428Y0192928D02*
X0105032Y0192928D01*
X0104639Y0190934D02*
X0107803Y0190934D01*
X0107446Y0190436D02*
X0104990Y0190436D01*
X0105881Y0189937D02*
X0106539Y0189937D01*
X0095582Y0178817D02*
X0095853Y0178542D01*
X0096056Y0178213D01*
X0096180Y0177847D01*
X0096220Y0177463D01*
X0096186Y0177081D01*
X0096068Y0176717D01*
X0095872Y0176388D01*
X0095608Y0176111D01*
X0095288Y0175900D01*
X0094930Y0175765D01*
X0094550Y0175713D01*
X0094149Y0175748D01*
X0093767Y0175871D01*
X0093421Y0176077D01*
X0093130Y0176354D01*
X0092907Y0176689D01*
X0092765Y0177065D01*
X0092710Y0177463D01*
X0092761Y0177856D01*
X0092898Y0178228D01*
X0093115Y0178560D01*
X0093400Y0178835D01*
X0093739Y0179040D01*
X0094115Y0179165D01*
X0094510Y0179203D01*
X0094893Y0179156D01*
X0095257Y0179026D01*
X0095582Y0178817D01*
X0095344Y0178970D02*
X0093623Y0178970D01*
X0093057Y0178472D02*
X0095896Y0178472D01*
X0096137Y0177973D02*
X0092804Y0177973D01*
X0092712Y0177475D02*
X0096219Y0177475D01*
X0096152Y0176976D02*
X0092799Y0176976D01*
X0093048Y0176478D02*
X0095925Y0176478D01*
X0095408Y0175979D02*
X0093585Y0175979D01*
X0082996Y0157781D02*
X0082632Y0157899D01*
X0082250Y0157933D01*
X0081866Y0157893D01*
X0081500Y0157769D01*
X0081171Y0157566D01*
X0080896Y0157295D01*
X0080687Y0156970D01*
X0080557Y0156606D01*
X0080510Y0156223D01*
X0080548Y0155828D01*
X0080673Y0155452D01*
X0080878Y0155113D01*
X0081153Y0154828D01*
X0081485Y0154611D01*
X0081857Y0154474D01*
X0082250Y0154423D01*
X0082648Y0154478D01*
X0083024Y0154620D01*
X0083359Y0154843D01*
X0083636Y0155134D01*
X0083842Y0155480D01*
X0083965Y0155862D01*
X0084000Y0156263D01*
X0083948Y0156643D01*
X0083813Y0157001D01*
X0083602Y0157321D01*
X0083325Y0157585D01*
X0082996Y0157781D01*
X0083378Y0157534D02*
X0081139Y0157534D01*
X0080730Y0157036D02*
X0083791Y0157036D01*
X0083963Y0156537D02*
X0080548Y0156537D01*
X0080528Y0156039D02*
X0083980Y0156039D01*
X0083861Y0155540D02*
X0080643Y0155540D01*
X0080947Y0155042D02*
X0083548Y0155042D01*
X0082820Y0154543D02*
X0081671Y0154543D01*
X0092928Y0148198D02*
X0093145Y0148530D01*
X0093430Y0148805D01*
X0093769Y0149011D01*
X0094145Y0149135D01*
X0094540Y0149173D01*
X0094923Y0149126D01*
X0095287Y0148996D01*
X0095612Y0148787D01*
X0095883Y0148512D01*
X0096086Y0148183D01*
X0096210Y0147817D01*
X0096250Y0147433D01*
X0096216Y0147052D01*
X0096098Y0146687D01*
X0095902Y0146358D01*
X0095637Y0146081D01*
X0095318Y0145870D01*
X0094959Y0145735D01*
X0094580Y0145683D01*
X0094179Y0145718D01*
X0093797Y0145841D01*
X0093451Y0146047D01*
X0093160Y0146324D01*
X0092937Y0146659D01*
X0092795Y0147035D01*
X0092740Y0147433D01*
X0092791Y0147826D01*
X0092928Y0148198D01*
X0092878Y0148062D02*
X0096127Y0148062D01*
X0096236Y0147564D02*
X0092757Y0147564D01*
X0092791Y0147065D02*
X0096217Y0147065D01*
X0096026Y0146567D02*
X0092998Y0146567D01*
X0093428Y0146068D02*
X0095618Y0146068D01*
X0095835Y0148561D02*
X0093177Y0148561D01*
X0093916Y0149059D02*
X0095109Y0149059D01*
X0094170Y0139433D02*
X0094571Y0139398D01*
X0094953Y0139275D01*
X0095299Y0139069D01*
X0095590Y0138792D01*
X0095813Y0138457D01*
X0095955Y0138081D01*
X0096010Y0137683D01*
X0095959Y0137290D01*
X0095822Y0136918D01*
X0095605Y0136586D01*
X0095320Y0136311D01*
X0094981Y0136106D01*
X0094605Y0135981D01*
X0094210Y0135943D01*
X0093827Y0135990D01*
X0093463Y0136120D01*
X0093138Y0136329D01*
X0092867Y0136604D01*
X0092664Y0136933D01*
X0092540Y0137299D01*
X0092500Y0137683D01*
X0092534Y0138065D01*
X0092652Y0138429D01*
X0092848Y0138758D01*
X0093113Y0139035D01*
X0093432Y0139246D01*
X0093791Y0139381D01*
X0094170Y0139433D01*
X0093194Y0139089D02*
X0095266Y0139089D01*
X0095724Y0138591D02*
X0092748Y0138591D01*
X0092543Y0138092D02*
X0095951Y0138092D01*
X0095998Y0137594D02*
X0092509Y0137594D01*
X0092609Y0137095D02*
X0095887Y0137095D01*
X0095612Y0136597D02*
X0092875Y0136597D01*
X0093525Y0136098D02*
X0094959Y0136098D01*
X0105141Y0120536D02*
X0104866Y0120265D01*
X0104657Y0119940D01*
X0104527Y0119576D01*
X0104480Y0119193D01*
X0104518Y0118798D01*
X0104643Y0118422D01*
X0104848Y0118083D01*
X0105123Y0117798D01*
X0105455Y0117582D01*
X0105827Y0117444D01*
X0106220Y0117393D01*
X0106618Y0117448D01*
X0106994Y0117591D01*
X0107329Y0117813D01*
X0107606Y0118104D01*
X0107812Y0118450D01*
X0107935Y0118833D01*
X0107970Y0119233D01*
X0107918Y0119613D01*
X0107783Y0119971D01*
X0107572Y0120291D01*
X0107295Y0120555D01*
X0106966Y0120751D01*
X0106602Y0120869D01*
X0106220Y0120903D01*
X0105836Y0120863D01*
X0105470Y0120739D01*
X0105141Y0120536D01*
X0105317Y0120644D02*
X0107145Y0120644D01*
X0107668Y0120146D02*
X0104789Y0120146D01*
X0104552Y0119647D02*
X0107905Y0119647D01*
X0107963Y0119149D02*
X0104485Y0119149D01*
X0104567Y0118650D02*
X0107876Y0118650D01*
X0107635Y0118152D02*
X0104806Y0118152D01*
X0105345Y0117653D02*
X0107089Y0117653D01*
X0106220Y0154893D02*
X0105827Y0154944D01*
X0105455Y0155082D01*
X0105123Y0155298D01*
X0104848Y0155583D01*
X0104643Y0155922D01*
X0104518Y0156298D01*
X0104480Y0156693D01*
X0104527Y0157076D01*
X0104657Y0157440D01*
X0104866Y0157765D01*
X0105141Y0158036D01*
X0105470Y0158239D01*
X0105836Y0158363D01*
X0106220Y0158403D01*
X0106602Y0158369D01*
X0106966Y0158251D01*
X0107295Y0158055D01*
X0107572Y0157791D01*
X0107783Y0157471D01*
X0107918Y0157113D01*
X0107970Y0156733D01*
X0107935Y0156333D01*
X0107812Y0155950D01*
X0107606Y0155604D01*
X0107329Y0155313D01*
X0106994Y0155091D01*
X0106618Y0154948D01*
X0106220Y0154893D01*
X0106865Y0155042D02*
X0105564Y0155042D01*
X0104889Y0155540D02*
X0107545Y0155540D01*
X0107840Y0156039D02*
X0104604Y0156039D01*
X0104495Y0156537D02*
X0107953Y0156537D01*
X0107929Y0157036D02*
X0104522Y0157036D01*
X0104718Y0157534D02*
X0107742Y0157534D01*
X0107319Y0158033D02*
X0105138Y0158033D01*
X0053970Y0156233D02*
X0053935Y0155833D01*
X0053812Y0155450D01*
X0053606Y0155104D01*
X0053329Y0154813D01*
X0052994Y0154591D01*
X0052618Y0154448D01*
X0052220Y0154393D01*
X0051827Y0154444D01*
X0051455Y0154582D01*
X0051123Y0154798D01*
X0050848Y0155083D01*
X0050643Y0155422D01*
X0050518Y0155798D01*
X0050480Y0156193D01*
X0050527Y0156576D01*
X0050657Y0156940D01*
X0050866Y0157265D01*
X0051141Y0157536D01*
X0051470Y0157739D01*
X0051836Y0157863D01*
X0052220Y0157903D01*
X0052602Y0157869D01*
X0052966Y0157751D01*
X0053295Y0157555D01*
X0053572Y0157291D01*
X0053783Y0156971D01*
X0053918Y0156613D01*
X0053970Y0156233D01*
X0053953Y0156039D02*
X0050495Y0156039D01*
X0050522Y0156537D02*
X0053929Y0156537D01*
X0053741Y0157036D02*
X0050719Y0157036D01*
X0051139Y0157534D02*
X0053317Y0157534D01*
X0053841Y0155540D02*
X0050604Y0155540D01*
X0050888Y0155042D02*
X0053547Y0155042D01*
X0052869Y0154543D02*
X0051560Y0154543D01*
X0093767Y0255871D02*
X0093421Y0256077D01*
X0093130Y0256354D01*
X0092907Y0256689D01*
X0092765Y0257065D01*
X0092710Y0257463D01*
X0092761Y0257856D01*
X0092898Y0258228D01*
X0093115Y0258560D01*
X0093400Y0258835D01*
X0093739Y0259040D01*
X0094115Y0259165D01*
X0094510Y0259203D01*
X0094893Y0259156D01*
X0095257Y0259026D01*
X0095582Y0258817D01*
X0095853Y0258542D01*
X0096056Y0258213D01*
X0096180Y0257847D01*
X0096220Y0257463D01*
X0096186Y0257081D01*
X0096068Y0256717D01*
X0095872Y0256388D01*
X0095608Y0256111D01*
X0095288Y0255900D01*
X0094930Y0255765D01*
X0094550Y0255713D01*
X0094149Y0255748D01*
X0093767Y0255871D01*
X0094232Y0255741D02*
X0094754Y0255741D01*
X0095730Y0256239D02*
X0093250Y0256239D01*
X0092889Y0256738D02*
X0096075Y0256738D01*
X0096200Y0257236D02*
X0092742Y0257236D01*
X0092746Y0257735D02*
X0096192Y0257735D01*
X0096043Y0258233D02*
X0092902Y0258233D01*
X0093293Y0258732D02*
X0095666Y0258732D01*
X0089750Y0047933D02*
X0089366Y0047893D01*
X0089000Y0047769D01*
X0088671Y0047566D01*
X0088396Y0047295D01*
X0088187Y0046970D01*
X0088057Y0046606D01*
X0088010Y0046223D01*
X0088048Y0045828D01*
X0088173Y0045452D01*
X0088378Y0045113D01*
X0088653Y0044828D01*
X0088985Y0044611D01*
X0089357Y0044474D01*
X0089750Y0044423D01*
X0090148Y0044478D01*
X0090524Y0044620D01*
X0090859Y0044843D01*
X0091136Y0045134D01*
X0091342Y0045480D01*
X0091465Y0045862D01*
X0091500Y0046263D01*
X0091448Y0046643D01*
X0091313Y0047001D01*
X0091102Y0047321D01*
X0090825Y0047585D01*
X0090496Y0047781D01*
X0090132Y0047899D01*
X0089750Y0047933D01*
X0089273Y0047862D02*
X0090247Y0047862D01*
X0091057Y0047363D02*
X0088465Y0047363D01*
X0088150Y0046865D02*
X0091365Y0046865D01*
X0091486Y0046366D02*
X0088028Y0046366D01*
X0088044Y0045868D02*
X0091465Y0045868D01*
X0091276Y0045369D02*
X0088223Y0045369D01*
X0088612Y0044871D02*
X0090886Y0044871D01*
X0089882Y0036399D02*
X0090246Y0036281D01*
X0090575Y0036085D01*
X0090852Y0035821D01*
X0091063Y0035501D01*
X0091198Y0035143D01*
X0091250Y0034763D01*
X0091215Y0034362D01*
X0091092Y0033980D01*
X0090886Y0033634D01*
X0090609Y0033343D01*
X0090274Y0033120D01*
X0089898Y0032978D01*
X0089500Y0032923D01*
X0089107Y0032974D01*
X0088735Y0033111D01*
X0088403Y0033328D01*
X0088128Y0033613D01*
X0087923Y0033952D01*
X0087798Y0034328D01*
X0087760Y0034723D01*
X0087807Y0035106D01*
X0087937Y0035470D01*
X0088146Y0035795D01*
X0088421Y0036066D01*
X0088750Y0036269D01*
X0089116Y0036393D01*
X0089500Y0036433D01*
X0089882Y0036399D01*
X0089892Y0036396D02*
X0089142Y0036396D01*
X0088250Y0035897D02*
X0090772Y0035897D01*
X0091102Y0035399D02*
X0087912Y0035399D01*
X0087782Y0034900D02*
X0091231Y0034900D01*
X0091218Y0034402D02*
X0087791Y0034402D01*
X0087952Y0033903D02*
X0091046Y0033903D01*
X0090668Y0033405D02*
X0088329Y0033405D01*
X0105598Y0044583D02*
X0105393Y0044922D01*
X0105268Y0045298D01*
X0105230Y0045693D01*
X0105277Y0046076D01*
X0105407Y0046440D01*
X0105616Y0046765D01*
X0105891Y0047036D01*
X0106220Y0047239D01*
X0106586Y0047363D01*
X0106970Y0047403D01*
X0107352Y0047369D01*
X0107716Y0047251D01*
X0108045Y0047055D01*
X0108322Y0046791D01*
X0108533Y0046471D01*
X0108668Y0046113D01*
X0108720Y0045733D01*
X0108685Y0045333D01*
X0108562Y0044950D01*
X0108356Y0044604D01*
X0108079Y0044313D01*
X0107744Y0044091D01*
X0107368Y0043948D01*
X0106970Y0043893D01*
X0106577Y0043944D01*
X0106205Y0044082D01*
X0105873Y0044298D01*
X0105598Y0044583D01*
X0105802Y0044372D02*
X0108136Y0044372D01*
X0108515Y0044871D02*
X0105424Y0044871D01*
X0105261Y0045369D02*
X0108688Y0045369D01*
X0108702Y0045868D02*
X0105251Y0045868D01*
X0105381Y0046366D02*
X0108573Y0046366D01*
X0108245Y0046865D02*
X0105717Y0046865D01*
X0106585Y0047363D02*
X0107370Y0047363D01*
X0061470Y0046233D02*
X0061435Y0045833D01*
X0061312Y0045450D01*
X0061106Y0045104D01*
X0060829Y0044813D01*
X0060494Y0044591D01*
X0060118Y0044448D01*
X0059720Y0044393D01*
X0059327Y0044444D01*
X0058955Y0044582D01*
X0058623Y0044798D01*
X0058348Y0045083D01*
X0058143Y0045422D01*
X0058018Y0045798D01*
X0057980Y0046193D01*
X0058027Y0046576D01*
X0058157Y0046940D01*
X0058366Y0047265D01*
X0058641Y0047536D01*
X0058970Y0047739D01*
X0059336Y0047863D01*
X0059720Y0047903D01*
X0060102Y0047869D01*
X0060466Y0047751D01*
X0060795Y0047555D01*
X0061072Y0047291D01*
X0061283Y0046971D01*
X0061418Y0046613D01*
X0061470Y0046233D01*
X0061452Y0046366D02*
X0058001Y0046366D01*
X0058011Y0045868D02*
X0061438Y0045868D01*
X0061264Y0045369D02*
X0058175Y0045369D01*
X0058553Y0044871D02*
X0060884Y0044871D01*
X0061324Y0046865D02*
X0058130Y0046865D01*
X0058465Y0047363D02*
X0060996Y0047363D01*
X0060125Y0047862D02*
X0059331Y0047862D01*
X0059470Y0036403D02*
X0059086Y0036363D01*
X0058720Y0036239D01*
X0058391Y0036036D01*
X0058116Y0035765D01*
X0057907Y0035440D01*
X0057777Y0035076D01*
X0057730Y0034693D01*
X0057768Y0034298D01*
X0057893Y0033922D01*
X0058098Y0033583D01*
X0058373Y0033298D01*
X0058705Y0033082D01*
X0059077Y0032944D01*
X0059470Y0032893D01*
X0059868Y0032948D01*
X0060244Y0033091D01*
X0060579Y0033313D01*
X0060856Y0033604D01*
X0061062Y0033950D01*
X0061185Y0034333D01*
X0061220Y0034733D01*
X0061168Y0035113D01*
X0061033Y0035471D01*
X0060822Y0035791D01*
X0060545Y0036055D01*
X0060216Y0036251D01*
X0059852Y0036369D01*
X0059470Y0036403D01*
X0059400Y0036396D02*
X0059552Y0036396D01*
X0060710Y0035897D02*
X0058250Y0035897D01*
X0057893Y0035399D02*
X0061061Y0035399D01*
X0061197Y0034900D02*
X0057755Y0034900D01*
X0057758Y0034402D02*
X0061191Y0034402D01*
X0061034Y0033903D02*
X0057904Y0033903D01*
X0058270Y0033405D02*
X0060667Y0033405D01*
X0059564Y0032906D02*
X0059370Y0032906D01*
D16*
X0052500Y0069433D03*
X0052500Y0106933D03*
X0052500Y0143183D03*
X0052500Y0179433D03*
X0052500Y0214433D03*
X0052500Y0249433D03*
X0106250Y0249433D03*
X0106250Y0214433D03*
X0106250Y0179433D03*
X0106250Y0143183D03*
X0106250Y0106933D03*
X0106250Y0069433D03*
M02*
